<svg width="393" height="852" viewBox="0 0 393 852" fill="none" xmlns="http://www.w3.org/2000/svg">
<g clip-path="url(#clip0_72_172)">
<rect width="393" height="852" rx="25" fill="white"/>
<path d="M0 798H393V833C393 846.807 381.807 858 368 858H25C11.1929 858 0 846.807 0 833V798Z" fill="#FEC00A"/>
<path d="M48 840V831.176H53V840H59.25V828.235H63L50.5 815L38 828.235H41.75V840H48Z" fill="#F8F8F8"/>
<path d="M134.056 840L125.306 831.25C124.611 831.806 123.813 832.245 122.91 832.569C122.007 832.894 121.046 833.056 120.028 833.056C117.505 833.056 115.369 832.181 113.622 830.433C111.875 828.685 111.001 826.55 111 824.028C110.999 821.506 111.873 819.37 113.622 817.622C115.371 815.874 117.506 815 120.028 815C122.549 815 124.685 815.874 126.435 817.622C128.185 819.37 129.058 821.506 129.056 824.028C129.056 825.046 128.894 826.007 128.569 826.91C128.245 827.812 127.806 828.611 127.25 829.306L136 838.056L134.056 840ZM120.028 830.278C121.764 830.278 123.24 829.67 124.456 828.456C125.671 827.241 126.279 825.765 126.278 824.028C126.277 822.291 125.669 820.815 124.456 819.601C123.242 818.388 121.766 817.78 120.028 817.778C118.29 817.776 116.814 818.384 115.601 819.601C114.388 820.819 113.781 822.294 113.778 824.028C113.775 825.761 114.383 827.237 115.601 828.456C116.82 829.674 118.295 830.281 120.028 830.278Z" fill="white"/>
<path d="M269.5 827.5C267.781 827.5 266.31 826.888 265.086 825.664C263.862 824.44 263.25 822.969 263.25 821.25C263.25 819.531 263.862 818.06 265.086 816.836C266.31 815.612 267.781 815 269.5 815C271.219 815 272.69 815.612 273.914 816.836C275.138 818.06 275.75 819.531 275.75 821.25C275.75 822.969 275.138 824.44 273.914 825.664C272.69 826.888 271.219 827.5 269.5 827.5ZM257 840V835.625C257 834.74 257.228 833.926 257.684 833.184C258.141 832.443 258.746 831.876 259.5 831.484C261.115 830.677 262.755 830.072 264.422 829.669C266.089 829.266 267.781 829.064 269.5 829.062C271.219 829.061 272.911 829.264 274.578 829.669C276.245 830.074 277.885 830.679 279.5 831.484C280.255 831.875 280.861 832.442 281.317 833.184C281.773 833.927 282.001 834.741 282 835.625V840H257Z" fill="white"/>
<path d="M341.25 826.225C341.25 825.893 341.382 825.576 341.616 825.341C341.851 825.107 342.168 824.975 342.5 824.975C342.832 824.975 343.149 825.107 343.384 825.341C343.618 825.576 343.75 825.893 343.75 826.225V833.725C343.75 834.056 343.618 834.374 343.384 834.609C343.149 834.843 342.832 834.975 342.5 834.975C342.168 834.975 341.851 834.843 341.616 834.609C341.382 834.374 341.25 834.056 341.25 833.725V826.225ZM342.5 820.064C342.168 820.064 341.851 820.195 341.616 820.43C341.382 820.664 341.25 820.982 341.25 821.314C341.25 821.645 341.382 821.963 341.616 822.198C341.851 822.432 342.168 822.564 342.5 822.564C342.832 822.564 343.149 822.432 343.384 822.198C343.618 821.963 343.75 821.645 343.75 821.314C343.75 820.982 343.618 820.664 343.384 820.43C343.149 820.195 342.832 820.064 342.5 820.064Z" fill="white"/>
<path fill-rule="evenodd" clip-rule="evenodd" d="M342.5 815C335.596 815 330 820.596 330 827.5C330 834.404 335.596 840 342.5 840C349.404 840 355 834.404 355 827.5C355 820.596 349.404 815 342.5 815ZM332.5 827.5C332.5 830.152 333.554 832.696 335.429 834.571C337.304 836.446 339.848 837.5 342.5 837.5C345.152 837.5 347.696 836.446 349.571 834.571C351.446 832.696 352.5 830.152 352.5 827.5C352.5 824.848 351.446 822.304 349.571 820.429C347.696 818.554 345.152 817.5 342.5 817.5C339.848 817.5 337.304 818.554 335.429 820.429C333.554 822.304 332.5 824.848 332.5 827.5Z" fill="white"/>
<g filter="url(#filter0_d_72_172)">
<circle cx="196.5" cy="827.5" r="22.5" fill="#FEC00A"/>
</g>
<path d="M209 829.286H198.286V840H194.714V829.286H184V825.714H194.714V815H198.286V825.714H209V829.286Z" fill="white"/>
<path d="M0 25C0 11.1929 11.1929 0 25 0H368C381.807 0 393 11.1929 393 25V60H0V25Z" fill="#FEC00A"/>
<path d="M130.414 39H126.898L133.299 20.8182H137.365L143.775 39H140.259L135.403 24.5469H135.261L130.414 39ZM130.529 31.8711H140.117V34.5167H130.529V31.8711ZM150.673 39.2397C149.602 39.2397 148.643 38.9645 147.797 38.4141C146.95 37.8636 146.282 37.0646 145.79 36.017C145.299 34.9695 145.053 33.697 145.053 32.1996C145.053 30.6844 145.302 29.406 145.799 28.3643C146.302 27.3168 146.98 26.5266 147.832 25.994C148.684 25.4554 149.634 25.1861 150.682 25.1861C151.481 25.1861 152.138 25.3222 152.653 25.5945C153.168 25.8608 153.576 26.1834 153.878 26.5621C154.18 26.935 154.414 27.2872 154.579 27.6186H154.712V20.8182H157.935V39H154.775V36.8516H154.579C154.414 37.183 154.174 37.5352 153.86 37.908C153.547 38.275 153.132 38.5887 152.617 38.8491C152.102 39.1095 151.454 39.2397 150.673 39.2397ZM151.57 36.603C152.25 36.603 152.83 36.4195 153.31 36.0526C153.789 35.6797 154.153 35.1618 154.402 34.4989C154.65 33.8361 154.775 33.0637 154.775 32.1818C154.775 31.3 154.65 30.5335 154.402 29.8825C154.159 29.2314 153.798 28.7254 153.319 28.3643C152.845 28.0033 152.262 27.8228 151.57 27.8228C150.854 27.8228 150.256 28.0092 149.776 28.3821C149.297 28.755 148.936 29.2699 148.693 29.9268C148.451 30.5838 148.329 31.3355 148.329 32.1818C148.329 33.0341 148.451 33.7946 148.693 34.4634C148.942 35.1263 149.306 35.6501 149.785 36.0348C150.271 36.4136 150.865 36.603 151.57 36.603ZM166.42 39.2397C165.349 39.2397 164.39 38.9645 163.544 38.4141C162.697 37.8636 162.029 37.0646 161.537 36.017C161.046 34.9695 160.8 33.697 160.8 32.1996C160.8 30.6844 161.049 29.406 161.546 28.3643C162.049 27.3168 162.727 26.5266 163.579 25.994C164.432 25.4554 165.381 25.1861 166.429 25.1861C167.228 25.1861 167.885 25.3222 168.4 25.5945C168.915 25.8608 169.323 26.1834 169.625 26.5621C169.927 26.935 170.161 27.2872 170.326 27.6186H170.46V20.8182H173.682V39H170.522V36.8516H170.326C170.161 37.183 169.921 37.5352 169.607 37.908C169.294 38.275 168.879 38.5887 168.364 38.8491C167.849 39.1095 167.201 39.2397 166.42 39.2397ZM167.317 36.603C167.997 36.603 168.577 36.4195 169.057 36.0526C169.536 35.6797 169.9 35.1618 170.149 34.4989C170.397 33.8361 170.522 33.0637 170.522 32.1818C170.522 31.3 170.397 30.5335 170.149 29.8825C169.906 29.2314 169.545 28.7254 169.066 28.3643C168.592 28.0033 168.009 27.8228 167.317 27.8228C166.601 27.8228 166.003 28.0092 165.523 28.3821C165.044 28.755 164.683 29.2699 164.44 29.9268C164.198 30.5838 164.076 31.3355 164.076 32.1818C164.076 33.0341 164.198 33.7946 164.44 34.4634C164.689 35.1263 165.053 35.6501 165.532 36.0348C166.018 36.4136 166.612 36.603 167.317 36.603ZM186.122 39L182.269 25.3636H185.545L187.942 34.9517H188.067L190.517 25.3636H193.757L196.208 34.8984H196.341L198.702 25.3636H201.987L198.125 39H194.778L192.221 29.7848H192.035L189.478 39H186.122ZM209.788 39.2663C208.457 39.2663 207.303 38.9734 206.326 38.3874C205.349 37.8015 204.592 36.9818 204.053 35.9283C203.521 34.8748 203.254 33.6437 203.254 32.2351C203.254 30.8265 203.521 29.5924 204.053 28.533C204.592 27.4736 205.349 26.6509 206.326 26.065C207.303 25.479 208.457 25.1861 209.788 25.1861C211.12 25.1861 212.274 25.479 213.251 26.065C214.227 26.6509 214.982 27.4736 215.515 28.533C216.053 29.5924 216.322 30.8265 216.322 32.2351C216.322 33.6437 216.053 34.8748 215.515 35.9283C214.982 36.9818 214.227 37.8015 213.251 38.3874C212.274 38.9734 211.12 39.2663 209.788 39.2663ZM209.806 36.6918C210.528 36.6918 211.132 36.4935 211.617 36.0969C212.103 35.6945 212.464 35.1559 212.7 34.4812C212.943 33.8065 213.064 33.0548 213.064 32.2262C213.064 31.3917 212.943 30.6371 212.7 29.9624C212.464 29.2817 212.103 28.7402 211.617 28.3377C211.132 27.9353 210.528 27.734 209.806 27.734C209.066 27.734 208.451 27.9353 207.96 28.3377C207.474 28.7402 207.11 29.2817 206.868 29.9624C206.631 30.6371 206.512 31.3917 206.512 32.2262C206.512 33.0548 206.631 33.8065 206.868 34.4812C207.11 35.1559 207.474 35.6945 207.96 36.0969C208.451 36.4935 209.066 36.6918 209.806 36.6918ZM219.05 39V25.3636H222.166V27.6364H222.308C222.557 26.8492 222.983 26.2425 223.587 25.8164C224.196 25.3844 224.892 25.1683 225.673 25.1683C225.851 25.1683 226.049 25.1772 226.268 25.195C226.493 25.2068 226.679 25.2275 226.827 25.2571V28.2134C226.691 28.1661 226.475 28.1246 226.179 28.0891C225.889 28.0477 225.608 28.027 225.336 28.027C224.75 28.027 224.223 28.1542 223.755 28.4087C223.294 28.6573 222.93 29.0036 222.663 29.4474C222.397 29.8913 222.264 30.4033 222.264 30.9833V39H219.05ZM231.892 34.7209L231.883 30.8413H232.398L237.299 25.3636H241.054L235.026 32.0753H234.36L231.892 34.7209ZM228.962 39V20.8182H232.176V39H228.962ZM237.521 39L233.082 32.7944L235.248 30.5305L241.365 39H237.521ZM248.671 39.2663C247.304 39.2663 246.123 38.9822 245.129 38.4141C244.14 37.84 243.38 37.0291 242.847 35.9815C242.315 34.928 242.048 33.6881 242.048 32.2617C242.048 30.859 242.315 29.628 242.847 28.5685C243.386 27.5032 244.138 26.6746 245.102 26.0827C246.067 25.485 247.2 25.1861 248.502 25.1861C249.343 25.1861 250.136 25.3222 250.882 25.5945C251.633 25.8608 252.296 26.2751 252.87 26.8374C253.45 27.3996 253.906 28.1158 254.238 28.9858C254.569 29.8499 254.735 30.8797 254.735 32.0753V33.0607H243.557V30.8945H251.654C251.648 30.279 251.515 29.7315 251.255 29.2521C250.994 28.7668 250.63 28.3851 250.163 28.1069C249.701 27.8287 249.162 27.6896 248.547 27.6896C247.89 27.6896 247.313 27.8494 246.816 28.169C246.318 28.4827 245.931 28.897 245.653 29.4119C245.38 29.9209 245.241 30.4802 245.235 31.0898V32.9808C245.235 33.7739 245.38 34.4545 245.67 35.0227C245.96 35.585 246.366 36.017 246.887 36.3189C247.408 36.6148 248.017 36.7628 248.716 36.7628C249.183 36.7628 249.606 36.6977 249.985 36.5675C250.364 36.4313 250.692 36.2331 250.97 35.9727C251.249 35.7122 251.459 35.3897 251.601 35.005L254.602 35.3423C254.412 36.1354 254.051 36.8279 253.518 37.4197C252.992 38.0057 252.317 38.4614 251.494 38.7869C250.672 39.1065 249.731 39.2663 248.671 39.2663ZM257.454 39V25.3636H260.57V27.6364H260.712C260.96 26.8492 261.386 26.2425 261.99 25.8164C262.6 25.3844 263.295 25.1683 264.076 25.1683C264.254 25.1683 264.452 25.1772 264.671 25.195C264.896 25.2068 265.083 25.2275 265.231 25.2571V28.2134C265.094 28.1661 264.878 28.1246 264.582 28.0891C264.292 28.0477 264.011 28.027 263.739 28.027C263.153 28.027 262.626 28.1542 262.159 28.4087C261.697 28.6573 261.333 29.0036 261.067 29.4474C260.8 29.8913 260.667 30.4033 260.667 30.9833V39H257.454Z" fill="white"/>
<rect x="18.5" y="318.5" width="355" height="45" rx="6.5" fill="white" stroke="#8D8D8D"/>
<path d="M29.8336 346V335.091H36.1458V335.986H30.8297V340.093H35.6504V340.988H30.8297V346H29.8336ZM38.4363 346V337.818H39.3897V346H38.4363ZM38.921 336.412C38.7257 336.412 38.5588 336.346 38.4203 336.215C38.2818 336.08 38.2125 335.918 38.2125 335.73C38.2125 335.542 38.2818 335.382 38.4203 335.251C38.5588 335.116 38.7257 335.048 38.921 335.048C39.1163 335.048 39.2832 335.116 39.4217 335.251C39.5602 335.382 39.6294 335.542 39.6294 335.73C39.6294 335.918 39.5602 336.08 39.4217 336.215C39.2832 336.346 39.1163 336.412 38.921 336.412ZM41.8973 346V337.818H42.8188V339.075H42.8881C43.0514 338.663 43.3355 338.331 43.7403 338.079C44.1487 337.824 44.6104 337.696 45.1253 337.696C45.2034 337.696 45.2904 337.697 45.3863 337.701C45.4822 337.705 45.5621 337.708 45.626 337.712V338.676C45.5834 338.669 45.5088 338.658 45.4023 338.644C45.2957 338.63 45.1803 338.623 45.056 338.623C44.6299 338.623 44.2499 338.713 43.9161 338.894C43.5858 339.072 43.3248 339.319 43.1331 339.635C42.9413 339.951 42.8454 340.311 42.8454 340.716V346H41.8973ZM52.7411 339.613L51.8729 339.858C51.7876 339.613 51.6669 339.391 51.5107 339.192C51.3544 338.994 51.1502 338.836 50.8981 338.718C50.6495 338.601 50.3406 338.543 49.9712 338.543C49.4173 338.543 48.9627 338.674 48.6076 338.937C48.2525 339.2 48.0749 339.539 48.0749 339.954C48.0749 340.306 48.1957 340.592 48.4371 340.812C48.6822 341.028 49.0586 341.201 49.5664 341.328L50.8022 341.632C51.4876 341.799 52.0007 342.064 52.3416 342.426C52.6861 342.788 52.8583 343.243 52.8583 343.789C52.8583 344.251 52.7305 344.661 52.4748 345.02C52.2191 345.379 51.8622 345.661 51.4041 345.867C50.9496 346.069 50.4222 346.17 49.8221 346.17C49.0231 346.17 48.3643 345.991 47.8459 345.632C47.3274 345.27 46.9954 344.748 46.8498 344.066L47.7607 343.843C47.8778 344.329 48.1069 344.697 48.4478 344.945C48.7923 345.194 49.245 345.318 49.8061 345.318C50.4347 345.318 50.9371 345.178 51.3136 344.897C51.69 344.613 51.8782 344.258 51.8782 343.832C51.8782 343.502 51.7681 343.225 51.5479 343.001C51.3278 342.774 50.994 342.607 50.5465 342.5L49.2095 342.181C48.4993 342.01 47.9737 341.74 47.6328 341.371C47.2919 341.002 47.1214 340.544 47.1214 339.997C47.1214 339.546 47.244 339.15 47.489 338.809C47.734 338.464 48.0714 338.195 48.5011 337.999C48.9308 337.804 49.4208 337.706 49.9712 337.706C50.7205 337.706 51.3189 337.877 51.7663 338.218C52.2173 338.555 52.5423 339.02 52.7411 339.613ZM58.157 337.818V338.644H54.2526V337.818H58.157ZM55.4724 335.858H56.4259V343.864C56.4259 344.205 56.4845 344.473 56.6017 344.668C56.7188 344.86 56.8715 344.997 57.0597 345.078C57.248 345.157 57.4486 345.196 57.6617 345.196C57.786 345.196 57.8925 345.189 57.9813 345.174C58.07 345.157 58.1482 345.139 58.2156 345.121L58.4181 345.979C58.3257 346.014 58.2121 346.046 58.0771 346.075C57.9422 346.107 57.7753 346.123 57.5764 346.123C57.2284 346.123 56.8928 346.046 56.5697 345.893C56.2501 345.741 55.9873 345.513 55.7813 345.212C55.5754 344.91 55.4724 344.535 55.4724 344.088V335.858ZM73.2223 335.091V346H72.2528L65.8075 336.865H65.7223V346H64.7262V335.091H65.6903L72.157 344.237H72.2422V335.091H73.2223ZM78.2108 346.186C77.7172 346.186 77.2662 346.091 76.8578 345.899C76.4494 345.703 76.1245 345.423 75.883 345.057C75.6415 344.688 75.5208 344.24 75.5208 343.715C75.5208 343.31 75.5971 342.969 75.7498 342.692C75.9025 342.415 76.1191 342.188 76.3997 342.01C76.6802 341.833 77.0123 341.692 77.3958 341.589C77.7793 341.487 78.2019 341.407 78.6635 341.35C79.1216 341.293 79.5087 341.243 79.8248 341.201C80.1444 341.158 80.3876 341.091 80.5545 340.998C80.7214 340.906 80.8049 340.757 80.8049 340.551V340.359C80.8049 339.801 80.638 339.363 80.3042 339.043C79.9739 338.72 79.498 338.559 78.8766 338.559C78.2871 338.559 77.8059 338.688 77.4331 338.947C77.0637 339.207 76.8045 339.512 76.6554 339.864L75.7551 339.539C75.9398 339.091 76.1955 338.734 76.5222 338.468C76.8489 338.198 77.2147 338.005 77.6195 337.887C78.0243 337.767 78.4345 337.706 78.85 337.706C79.1625 337.706 79.4874 337.747 79.8248 337.829C80.1657 337.911 80.4817 338.053 80.7729 338.255C81.0641 338.454 81.3002 338.733 81.4814 339.091C81.6625 339.446 81.753 339.897 81.753 340.444V346H80.8049V344.706H80.7463C80.6326 344.947 80.464 345.181 80.2402 345.409C80.0165 345.636 79.736 345.822 79.3986 345.968C79.0613 346.114 78.6653 346.186 78.2108 346.186ZM78.3386 345.318C78.8429 345.318 79.2797 345.206 79.649 344.983C80.0183 344.759 80.3024 344.462 80.5012 344.093C80.7037 343.72 80.8049 343.31 80.8049 342.863V341.68C80.7338 341.748 80.6149 341.808 80.448 341.861C80.2846 341.914 80.0946 341.962 79.878 342.005C79.665 342.044 79.4519 342.078 79.2388 342.106C79.0257 342.135 78.834 342.159 78.6635 342.181C78.2019 342.238 77.8077 342.326 77.481 342.447C77.1543 342.568 76.9039 342.735 76.7299 342.948C76.5559 343.157 76.4689 343.427 76.4689 343.757C76.4689 344.255 76.6465 344.64 77.0016 344.913C77.3567 345.183 77.8024 345.318 78.3386 345.318ZM84.2752 346V337.818H85.1967V339.075H85.282C85.4453 338.653 85.717 338.321 86.0969 338.079C86.4805 337.834 86.9403 337.712 87.4766 337.712C88.0412 337.712 88.5046 337.845 88.8668 338.111C89.2326 338.374 89.506 338.736 89.6871 339.198H89.7564C89.9411 338.743 90.2411 338.383 90.6566 338.116C91.0756 337.847 91.5835 337.712 92.18 337.712C92.94 337.712 93.5401 337.951 93.9805 338.431C94.4208 338.907 94.641 339.603 94.641 340.519V346H93.6928V340.519C93.6928 339.873 93.5277 339.388 93.1974 339.065C92.8672 338.741 92.4322 338.58 91.8924 338.58C91.2674 338.58 90.7862 338.772 90.4489 339.155C90.1115 339.539 89.9428 340.025 89.9428 340.615V346H88.9734V340.434C88.9734 339.88 88.8189 339.432 88.5099 339.091C88.201 338.75 87.766 338.58 87.2049 338.58C86.8285 338.58 86.4893 338.672 86.1875 338.857C85.8892 339.042 85.6531 339.299 85.479 339.629C85.3086 339.956 85.2234 340.332 85.2234 340.759V346H84.2752ZM100.459 346.17C99.6956 346.17 99.0351 345.993 98.4775 345.638C97.92 345.279 97.4885 344.784 97.1831 344.152C96.8813 343.516 96.7304 342.784 96.7304 341.957C96.7304 341.133 96.8813 340.402 97.1831 339.762C97.4885 339.12 97.9094 338.617 98.4456 338.255C98.9854 337.889 99.6086 337.706 100.315 337.706C100.759 337.706 101.187 337.788 101.599 337.951C102.011 338.111 102.38 338.358 102.707 338.692C103.037 339.022 103.298 339.439 103.49 339.944C103.682 340.444 103.778 341.037 103.778 341.723V342.191H97.3856V341.355H102.808C102.808 340.83 102.702 340.357 102.489 339.938C102.279 339.516 101.986 339.182 101.61 338.937C101.237 338.692 100.805 338.569 100.315 338.569C99.7968 338.569 99.3405 338.708 98.9463 338.985C98.5521 339.262 98.2432 339.627 98.0194 340.082C97.7993 340.537 97.6874 341.034 97.6839 341.574V342.074C97.6839 342.724 97.7957 343.292 98.0194 343.779C98.2467 344.262 98.5681 344.636 98.9836 344.903C99.3991 345.169 99.8909 345.302 100.459 345.302C100.846 345.302 101.185 345.242 101.476 345.121C101.771 345 102.018 344.839 102.217 344.636C102.419 344.43 102.572 344.205 102.675 343.96L103.575 344.253C103.451 344.597 103.247 344.915 102.963 345.206C102.682 345.498 102.331 345.732 101.908 345.909C101.489 346.083 101.006 346.17 100.459 346.17Z" fill="#757575"/>
<rect x="18.5" y="396.5" width="355" height="45" rx="6.5" fill="white" stroke="#8D8D8D"/>
<path d="M29.7438 424V413.091H30.7399V423.105H35.9387V424H29.7438ZM40.2694 424.186C39.7757 424.186 39.3248 424.091 38.9164 423.899C38.508 423.703 38.1831 423.423 37.9416 423.057C37.7001 422.688 37.5794 422.24 37.5794 421.715C37.5794 421.31 37.6557 420.969 37.8084 420.692C37.9611 420.415 38.1777 420.188 38.4583 420.01C38.7388 419.833 39.0708 419.692 39.4544 419.589C39.8379 419.487 40.2605 419.407 40.7221 419.35C41.1802 419.293 41.5673 419.243 41.8833 419.201C42.2029 419.158 42.4462 419.091 42.6131 418.998C42.78 418.906 42.8635 418.757 42.8635 418.551V418.359C42.8635 417.801 42.6966 417.363 42.3627 417.043C42.0325 416.72 41.5566 416.559 40.9352 416.559C40.3457 416.559 39.8645 416.688 39.4917 416.947C39.1223 417.207 38.8631 417.512 38.714 417.864L37.8137 417.539C37.9984 417.091 38.2541 416.734 38.5808 416.468C38.9075 416.198 39.2733 416.005 39.6781 415.887C40.0829 415.767 40.4931 415.706 40.9086 415.706C41.2211 415.706 41.546 415.747 41.8833 415.829C42.2243 415.911 42.5403 416.053 42.8315 416.255C43.1227 416.454 43.3588 416.733 43.54 417.091C43.7211 417.446 43.8116 417.897 43.8116 418.444V424H42.8635V422.706H42.8049C42.6912 422.947 42.5225 423.181 42.2988 423.409C42.0751 423.636 41.7946 423.822 41.4572 423.968C41.1199 424.114 40.7239 424.186 40.2694 424.186ZM40.3972 423.318C40.9015 423.318 41.3382 423.206 41.7076 422.983C42.0769 422.759 42.361 422.462 42.5598 422.093C42.7623 421.72 42.8635 421.31 42.8635 420.863V419.68C42.7924 419.748 42.6735 419.808 42.5066 419.861C42.3432 419.914 42.1532 419.962 41.9366 420.005C41.7235 420.044 41.5105 420.078 41.2974 420.106C41.0843 420.135 40.8926 420.159 40.7221 420.181C40.2605 420.238 39.8663 420.326 39.5396 420.447C39.2129 420.568 38.9625 420.735 38.7885 420.948C38.6145 421.157 38.5275 421.427 38.5275 421.757C38.5275 422.255 38.7051 422.64 39.0602 422.913C39.4153 423.183 39.861 423.318 40.3972 423.318ZM51.831 417.613L50.9627 417.858C50.8775 417.613 50.7567 417.391 50.6005 417.192C50.4442 416.994 50.2401 416.836 49.9879 416.718C49.7393 416.601 49.4304 416.543 49.0611 416.543C48.5071 416.543 48.0526 416.674 47.6974 416.937C47.3423 417.2 47.1648 417.539 47.1648 417.954C47.1648 418.306 47.2855 418.592 47.527 418.812C47.772 419.028 48.1484 419.201 48.6562 419.328L49.892 419.632C50.5774 419.799 51.0906 420.064 51.4315 420.426C51.7759 420.788 51.9482 421.243 51.9482 421.789C51.9482 422.251 51.8203 422.661 51.5646 423.02C51.3089 423.379 50.9521 423.661 50.494 423.867C50.0394 424.069 49.5121 424.17 48.9119 424.17C48.1129 424.17 47.4542 423.991 46.9357 423.632C46.4173 423.27 46.0852 422.748 45.9396 422.066L46.8505 421.843C46.9677 422.329 47.1967 422.697 47.5376 422.945C47.8821 423.194 48.3349 423.318 48.896 423.318C49.5245 423.318 50.027 423.178 50.4034 422.897C50.7798 422.613 50.968 422.258 50.968 421.832C50.968 421.502 50.858 421.225 50.6378 421.001C50.4176 420.774 50.0838 420.607 49.6364 420.5L48.2994 420.181C47.5891 420.01 47.0636 419.74 46.7227 419.371C46.3817 419.002 46.2113 418.544 46.2113 417.997C46.2113 417.546 46.3338 417.15 46.5788 416.809C46.8239 416.464 47.1612 416.195 47.5909 415.999C48.0206 415.804 48.5107 415.706 49.0611 415.706C49.8104 415.706 50.4087 415.877 50.8562 416.218C51.3072 416.555 51.6321 417.02 51.831 417.613ZM57.2469 415.818V416.644H53.3424V415.818H57.2469ZM54.5622 413.858H55.5157V421.864C55.5157 422.205 55.5743 422.473 55.6915 422.668C55.8087 422.86 55.9614 422.997 56.1496 423.078C56.3378 423.157 56.5384 423.196 56.7515 423.196C56.8758 423.196 56.9823 423.189 57.0711 423.174C57.1599 423.157 57.238 423.139 57.3055 423.121L57.5079 423.979C57.4156 424.014 57.3019 424.046 57.167 424.075C57.032 424.107 56.8651 424.123 56.6663 424.123C56.3183 424.123 55.9827 424.046 55.6595 423.893C55.3399 423.741 55.0771 423.513 54.8712 423.212C54.6652 422.91 54.5622 422.535 54.5622 422.088V413.858ZM72.3121 413.091V424H71.3427L64.8974 414.865H64.8121V424H63.8161V413.091H64.7802L71.2468 422.237H71.332V413.091H72.3121ZM77.3006 424.186C76.807 424.186 76.356 424.091 75.9476 423.899C75.5392 423.703 75.2143 423.423 74.9728 423.057C74.7314 422.688 74.6106 422.24 74.6106 421.715C74.6106 421.31 74.687 420.969 74.8397 420.692C74.9924 420.415 75.209 420.188 75.4895 420.01C75.7701 419.833 76.1021 419.692 76.4856 419.589C76.8691 419.487 77.2917 419.407 77.7534 419.35C78.2115 419.293 78.5985 419.243 78.9146 419.201C79.2342 419.158 79.4775 419.091 79.6444 418.998C79.8113 418.906 79.8947 418.757 79.8947 418.551V418.359C79.8947 417.801 79.7278 417.363 79.394 417.043C79.0637 416.72 78.5879 416.559 77.9664 416.559C77.377 416.559 76.8958 416.688 76.5229 416.947C76.1536 417.207 75.8944 417.512 75.7452 417.864L74.845 417.539C75.0297 417.091 75.2853 416.734 75.612 416.468C75.9387 416.198 76.3045 416.005 76.7093 415.887C77.1142 415.767 77.5243 415.706 77.9398 415.706C78.2523 415.706 78.5772 415.747 78.9146 415.829C79.2555 415.911 79.5716 416.053 79.8627 416.255C80.1539 416.454 80.3901 416.733 80.5712 417.091C80.7523 417.446 80.8429 417.897 80.8429 418.444V424H79.8947V422.706H79.8361C79.7225 422.947 79.5538 423.181 79.3301 423.409C79.1064 423.636 78.8258 423.822 78.4885 423.968C78.1511 424.114 77.7551 424.186 77.3006 424.186ZM77.4284 423.318C77.9327 423.318 78.3695 423.206 78.7388 422.983C79.1081 422.759 79.3922 422.462 79.5911 422.093C79.7935 421.72 79.8947 421.31 79.8947 420.863V419.68C79.8237 419.748 79.7047 419.808 79.5378 419.861C79.3745 419.914 79.1845 419.962 78.9679 420.005C78.7548 420.044 78.5417 420.078 78.3287 420.106C78.1156 420.135 77.9238 420.159 77.7534 420.181C77.2917 420.238 76.8975 420.326 76.5708 420.447C76.2441 420.568 75.9938 420.735 75.8198 420.948C75.6458 421.157 75.5588 421.427 75.5588 421.757C75.5588 422.255 75.7363 422.64 76.0914 422.913C76.4466 423.183 76.8922 423.318 77.4284 423.318ZM83.3651 424V415.818H84.2866V417.075H84.3718C84.5352 416.653 84.8068 416.321 85.1868 416.079C85.5703 415.834 86.0302 415.712 86.5664 415.712C87.131 415.712 87.5945 415.845 87.9567 416.111C88.3224 416.374 88.5959 416.736 88.777 417.198H88.8462C89.0309 416.743 89.331 416.383 89.7464 416.116C90.1655 415.847 90.6733 415.712 91.2699 415.712C92.0298 415.712 92.63 415.951 93.0703 416.431C93.5107 416.907 93.7308 417.603 93.7308 418.519V424H92.7827V418.519C92.7827 417.873 92.6175 417.388 92.2873 417.065C91.957 416.741 91.522 416.58 90.9822 416.58C90.3572 416.58 89.8761 416.772 89.5387 417.155C89.2013 417.539 89.0327 418.025 89.0327 418.615V424H88.0632V418.434C88.0632 417.88 87.9087 417.432 87.5998 417.091C87.2908 416.75 86.8558 416.58 86.2947 416.58C85.9183 416.58 85.5792 416.672 85.2773 416.857C84.979 417.042 84.7429 417.299 84.5689 417.629C84.3984 417.956 84.3132 418.332 84.3132 418.759V424H83.3651ZM99.5489 424.17C98.7854 424.17 98.1249 423.993 97.5674 423.638C97.0099 423.279 96.5784 422.784 96.273 422.152C95.9711 421.516 95.8202 420.784 95.8202 419.957C95.8202 419.133 95.9711 418.402 96.273 417.762C96.5784 417.12 96.9992 416.617 97.5354 416.255C98.0752 415.889 98.6984 415.706 99.4051 415.706C99.849 415.706 100.277 415.788 100.689 415.951C101.101 416.111 101.47 416.358 101.797 416.692C102.127 417.022 102.388 417.439 102.58 417.944C102.772 418.444 102.867 419.037 102.867 419.723V420.191H96.4754V419.355H101.898C101.898 418.83 101.791 418.357 101.578 417.938C101.369 417.516 101.076 417.182 100.699 416.937C100.327 416.692 99.8952 416.569 99.4051 416.569C98.8866 416.569 98.4303 416.708 98.0361 416.985C97.642 417.262 97.333 417.627 97.1093 418.082C96.8891 418.537 96.7773 419.034 96.7737 419.574V420.074C96.7737 420.724 96.8856 421.292 97.1093 421.779C97.3366 422.262 97.6579 422.636 98.0734 422.903C98.4889 423.169 98.9807 423.302 99.5489 423.302C99.936 423.302 100.275 423.242 100.566 423.121C100.861 423 101.108 422.839 101.307 422.636C101.509 422.43 101.662 422.205 101.765 421.96L102.665 422.253C102.541 422.597 102.337 422.915 102.052 423.206C101.772 423.498 101.42 423.732 100.998 423.909C100.579 424.083 100.096 424.17 99.5489 424.17Z" fill="#757575"/>
<rect x="18.5" y="474.5" width="355" height="45" rx="6.5" fill="white" stroke="#8D8D8D"/>
<path d="M23.9284 502V491.091H27.6091C28.3193 491.091 28.9106 491.215 29.3829 491.464C29.8588 491.712 30.2156 492.051 30.4536 492.481C30.6915 492.911 30.8105 493.399 30.8105 493.946C30.8105 494.401 30.7341 494.789 30.5814 495.113C30.4287 495.436 30.221 495.697 29.9582 495.896C29.6954 496.094 29.4024 496.238 29.0793 496.327V496.412C29.4308 496.437 29.7718 496.561 30.102 496.785C30.4323 497.005 30.7039 497.314 30.917 497.712C31.1301 498.11 31.2366 498.586 31.2366 499.14C31.2366 499.69 31.1141 500.182 30.8691 500.615C30.624 501.045 30.2476 501.384 29.7398 501.632C29.2355 501.877 28.5928 502 27.8115 502H23.9284ZM24.9244 501.105H27.8115C28.6531 501.105 29.2746 500.919 29.6759 500.546C30.0807 500.173 30.2831 499.704 30.2831 499.14C30.2831 498.724 30.1819 498.348 29.9795 498.01C29.7806 497.669 29.4983 497.4 29.1325 497.201C28.7703 497.002 28.3442 496.902 27.8541 496.902H24.9244V501.105ZM24.9244 496.018H27.6997C28.1294 496.018 28.5058 495.929 28.8289 495.752C29.1521 495.574 29.4042 495.329 29.5853 495.017C29.7664 494.704 29.857 494.347 29.857 493.946C29.857 493.367 29.6688 492.897 29.2923 492.534C28.9159 492.169 28.3548 491.986 27.6091 491.986H24.9244V496.018ZM34.3913 491.091V502H33.4432V491.091H34.3913ZM40.0803 502.17C39.3736 502.17 38.7486 501.991 38.2053 501.632C37.6655 501.274 37.2429 500.778 36.9375 500.146C36.6321 499.511 36.4794 498.777 36.4794 497.946C36.4794 497.108 36.6321 496.371 36.9375 495.736C37.2429 495.097 37.6655 494.599 38.2053 494.244C38.7486 493.886 39.3736 493.706 40.0803 493.706C40.7869 493.706 41.4102 493.886 41.9499 494.244C42.4897 494.603 42.9123 495.1 43.2177 495.736C43.5266 496.371 43.6811 497.108 43.6811 497.946C43.6811 498.777 43.5284 499.511 43.223 500.146C42.9176 500.778 42.4933 501.274 41.9499 501.632C41.4102 501.991 40.7869 502.17 40.0803 502.17ZM40.0803 501.302C40.6484 501.302 41.1296 501.15 41.5238 500.844C41.918 500.539 42.2163 500.132 42.4187 499.624C42.6246 499.116 42.7276 498.557 42.7276 497.946C42.7276 497.336 42.6246 496.775 42.4187 496.263C42.2163 495.752 41.918 495.342 41.5238 495.033C41.1296 494.724 40.6484 494.569 40.0803 494.569C39.5156 494.569 39.0344 494.724 38.6367 495.033C38.2425 495.342 37.9425 495.752 37.7365 496.263C37.5341 496.775 37.4329 497.336 37.4329 497.946C37.4329 498.557 37.5341 499.116 37.7365 499.624C37.9425 500.132 38.2425 500.539 38.6367 500.844C39.0309 501.15 39.5121 501.302 40.0803 501.302ZM48.9426 502.17C48.2359 502.17 47.6109 501.991 47.0676 501.632C46.5278 501.274 46.1052 500.778 45.7998 500.146C45.4944 499.511 45.3417 498.777 45.3417 497.946C45.3417 497.108 45.4944 496.371 45.7998 495.736C46.1052 495.097 46.5278 494.599 47.0676 494.244C47.6109 493.886 48.2359 493.706 48.9426 493.706C49.6492 493.706 50.2725 493.886 50.8122 494.244C51.352 494.603 51.7746 495.1 52.08 495.736C52.3889 496.371 52.5434 497.108 52.5434 497.946C52.5434 498.777 52.3907 499.511 52.0853 500.146C51.7799 500.778 51.3556 501.274 50.8122 501.632C50.2725 501.991 49.6492 502.17 48.9426 502.17ZM48.9426 501.302C49.5107 501.302 49.9919 501.15 50.3861 500.844C50.7803 500.539 51.0786 500.132 51.281 499.624C51.4869 499.116 51.5899 498.557 51.5899 497.946C51.5899 497.336 51.4869 496.775 51.281 496.263C51.0786 495.752 50.7803 495.342 50.3861 495.033C49.9919 494.724 49.5107 494.569 48.9426 494.569C48.3779 494.569 47.8968 494.724 47.499 495.033C47.1048 495.342 46.8048 495.752 46.5988 496.263C46.3964 496.775 46.2952 497.336 46.2952 497.946C46.2952 498.557 46.3964 499.116 46.5988 499.624C46.8048 500.132 47.1048 500.539 47.499 500.844C47.8932 501.15 48.3744 501.302 48.9426 501.302ZM57.5705 502.17C56.8993 502.17 56.3116 501.993 55.8074 501.638C55.3031 501.283 54.9089 500.787 54.6248 500.152C54.3443 499.516 54.204 498.776 54.204 497.93C54.204 497.089 54.3443 496.352 54.6248 495.72C54.9089 495.084 55.3049 494.591 55.8127 494.239C56.3205 493.884 56.9118 493.706 57.5865 493.706C58.0836 493.706 58.4973 493.795 58.8276 493.973C59.1578 494.147 59.4224 494.363 59.6213 494.623C59.8201 494.882 59.9746 495.134 60.0847 495.379H60.1699V491.091H61.1234V502H60.1966V500.482H60.0847C59.9746 500.73 59.8184 500.986 59.6159 501.249C59.4135 501.508 59.1454 501.727 58.8116 501.904C58.4814 502.082 58.0676 502.17 57.5705 502.17ZM57.6824 501.302C58.2115 501.302 58.6625 501.158 59.0353 500.871C59.4082 500.58 59.6923 500.18 59.8876 499.672C60.0865 499.161 60.1859 498.575 60.1859 497.914C60.1859 497.261 60.0882 496.684 59.8929 496.183C59.6976 495.679 59.4135 495.285 59.0407 495.001C58.6678 494.713 58.215 494.569 57.6824 494.569C57.1355 494.569 56.6738 494.718 56.2974 495.017C55.9245 495.311 55.6404 495.711 55.4451 496.215C55.2534 496.719 55.1575 497.286 55.1575 497.914C55.1575 498.55 55.2551 499.124 55.4505 499.635C55.6458 500.146 55.9299 500.553 56.3027 500.855C56.6792 501.153 57.139 501.302 57.6824 501.302ZM75.7878 494.5C75.6884 494.138 75.5428 493.799 75.351 493.483C75.1593 493.163 74.9213 492.884 74.6373 492.646C74.3567 492.405 74.0318 492.217 73.6625 492.082C73.2967 491.947 72.8883 491.879 72.4373 491.879C71.7271 491.879 71.0914 492.064 70.5304 492.433C69.9693 492.803 69.5254 493.335 69.1987 494.031C68.8755 494.727 68.714 495.565 68.714 496.545C68.714 497.522 68.8773 498.358 69.204 499.054C69.5307 499.75 69.9782 500.285 70.5463 500.658C71.1181 501.027 71.7715 501.212 72.5066 501.212C73.1777 501.212 73.7708 501.062 74.2857 500.764C74.8006 500.466 75.2019 500.04 75.4895 499.486C75.7807 498.932 75.9228 498.273 75.9157 497.51L76.2353 497.611H72.7409V496.716H76.8851V497.611C76.8851 498.541 76.6969 499.346 76.3205 500.024C75.9441 500.702 75.4274 501.226 74.7704 501.595C74.1135 501.964 73.3588 502.149 72.5066 502.149C71.5549 502.149 70.7221 501.92 70.0083 501.462C69.2946 501 68.7388 500.35 68.3411 499.512C67.9469 498.671 67.7498 497.682 67.7498 496.545C67.7498 495.69 67.8635 494.917 68.0907 494.228C68.318 493.539 68.6394 492.95 69.0549 492.46C69.4739 491.97 69.9693 491.595 70.541 491.336C71.1127 491.073 71.7449 490.942 72.4373 490.942C73.0339 490.942 73.579 491.036 74.0726 491.224C74.5698 491.412 75.0066 491.672 75.383 492.002C75.763 492.328 76.0737 492.707 76.3152 493.136C76.5602 493.562 76.7253 494.017 76.8105 494.5H75.7878ZM79.161 502V493.818H80.0825V495.075H80.1517C80.3151 494.663 80.5992 494.331 81.004 494.079C81.4124 493.824 81.874 493.696 82.3889 493.696C82.4671 493.696 82.5541 493.697 82.6499 493.701C82.7458 493.705 82.8257 493.708 82.8896 493.712V494.676C82.847 494.669 82.7725 494.658 82.6659 494.644C82.5594 494.63 82.444 494.623 82.3197 494.623C81.8936 494.623 81.5136 494.713 81.1798 494.894C80.8495 495.072 80.5885 495.319 80.3968 495.635C80.205 495.951 80.1091 496.311 80.1091 496.716V502H79.161ZM87.4387 502.17C86.732 502.17 86.107 501.991 85.5637 501.632C85.0239 501.274 84.6013 500.778 84.2959 500.146C83.9905 499.511 83.8378 498.777 83.8378 497.946C83.8378 497.108 83.9905 496.371 84.2959 495.736C84.6013 495.097 85.0239 494.599 85.5637 494.244C86.107 493.886 86.732 493.706 87.4387 493.706C88.1453 493.706 88.7686 493.886 89.3083 494.244C89.8481 494.603 90.2707 495.1 90.5761 495.736C90.885 496.371 91.0395 497.108 91.0395 497.946C91.0395 498.777 90.8868 499.511 90.5814 500.146C90.276 500.778 89.8517 501.274 89.3083 501.632C88.7686 501.991 88.1453 502.17 87.4387 502.17ZM87.4387 501.302C88.0068 501.302 88.488 501.15 88.8822 500.844C89.2764 500.539 89.5747 500.132 89.7771 499.624C89.983 499.116 90.086 498.557 90.086 497.946C90.086 497.336 89.983 496.775 89.7771 496.263C89.5747 495.752 89.2764 495.342 88.8822 495.033C88.488 494.724 88.0068 494.569 87.4387 494.569C86.874 494.569 86.3928 494.724 85.9951 495.033C85.6009 495.342 85.3009 495.752 85.0949 496.263C84.8925 496.775 84.7913 497.336 84.7913 497.946C84.7913 498.557 84.8925 499.116 85.0949 499.624C85.3009 500.132 85.6009 500.539 85.9951 500.844C86.3893 501.15 86.8705 501.302 87.4387 501.302ZM98.3198 498.873V493.818H99.2679V502H98.3198V500.642H98.2452C98.0534 501.061 97.7498 501.411 97.3343 501.691C96.9189 501.968 96.411 502.107 95.8109 502.107C95.2889 502.107 94.8255 501.993 94.4206 501.766C94.0158 501.535 93.698 501.197 93.4672 500.754C93.2363 500.31 93.1209 499.765 93.1209 499.118V493.818H94.0691V499.06C94.0691 499.699 94.2573 500.214 94.6337 500.604C95.0101 500.991 95.4931 501.185 96.0826 501.185C96.4519 501.185 96.807 501.096 97.1479 500.919C97.4888 500.741 97.7694 500.482 97.9895 500.141C98.2097 499.797 98.3198 499.374 98.3198 498.873ZM101.778 505.068V493.818H102.7V495.379H102.812C102.925 495.134 103.081 494.884 103.28 494.628C103.479 494.369 103.742 494.15 104.069 493.973C104.399 493.795 104.814 493.706 105.315 493.706C105.99 493.706 106.579 493.884 107.084 494.239C107.591 494.591 107.986 495.084 108.266 495.72C108.55 496.352 108.692 497.089 108.692 497.93C108.692 498.776 108.55 499.516 108.266 500.152C107.986 500.787 107.591 501.283 107.084 501.638C106.579 501.993 105.993 502.17 105.326 502.17C104.832 502.17 104.418 502.082 104.085 501.904C103.754 501.727 103.486 501.508 103.28 501.249C103.078 500.986 102.922 500.73 102.812 500.482H102.726V505.068H101.778ZM102.716 497.914C102.716 498.575 102.813 499.161 103.009 499.672C103.207 500.18 103.492 500.58 103.861 500.871C104.234 501.158 104.685 501.302 105.214 501.302C105.757 501.302 106.215 501.153 106.588 500.855C106.965 500.553 107.25 500.146 107.446 499.635C107.645 499.124 107.744 498.55 107.744 497.914C107.744 497.286 107.646 496.719 107.451 496.215C107.259 495.711 106.975 495.311 106.599 495.017C106.222 494.718 105.761 494.569 105.214 494.569C104.681 494.569 104.228 494.713 103.856 495.001C103.483 495.285 103.199 495.679 103.003 496.183C102.812 496.684 102.716 497.261 102.716 497.914Z" fill="#757575"/>
<rect x="18.5" y="552.5" width="355" height="45" rx="6.5" fill="white" stroke="#8D8D8D"/>
<path d="M23.9536 580H22.9096L26.878 569.091H27.9433L31.9117 580H30.8677L27.4479 570.385H27.3734L23.9536 580ZM24.7047 575.819H30.1166V576.713H24.7047V575.819ZM36.53 580.17C35.8588 580.17 35.2711 579.993 34.7668 579.638C34.2626 579.283 33.8684 578.787 33.5843 578.152C33.3038 577.516 33.1635 576.776 33.1635 575.93C33.1635 575.089 33.3038 574.352 33.5843 573.72C33.8684 573.084 34.2643 572.591 34.7722 572.239C35.28 571.884 35.8712 571.706 36.5459 571.706C37.0431 571.706 37.4568 571.795 37.7871 571.973C38.1173 572.147 38.3819 572.363 38.5807 572.623C38.7796 572.882 38.9341 573.134 39.0442 573.379H39.1294V569.091H40.0829V580H39.156V578.482H39.0442C38.9341 578.73 38.7778 578.986 38.5754 579.249C38.373 579.508 38.1049 579.727 37.7711 579.904C37.4408 580.082 37.0271 580.17 36.53 580.17ZM36.6418 579.302C37.1709 579.302 37.6219 579.158 37.9948 578.871C38.3677 578.58 38.6518 578.18 38.8471 577.672C39.0459 577.161 39.1454 576.575 39.1454 575.914C39.1454 575.261 39.0477 574.684 38.8524 574.183C38.6571 573.679 38.373 573.285 38.0001 573.001C37.6273 572.713 37.1745 572.569 36.6418 572.569C36.0949 572.569 35.6333 572.718 35.2569 573.017C34.884 573.311 34.5999 573.711 34.4046 574.215C34.2128 574.719 34.117 575.286 34.117 575.914C34.117 576.55 34.2146 577.124 34.4099 577.635C34.6052 578.146 34.8893 578.553 35.2622 578.855C35.6386 579.153 36.0985 579.302 36.6418 579.302ZM45.7292 580.17C45.058 580.17 44.4703 579.993 43.966 579.638C43.4618 579.283 43.0676 578.787 42.7835 578.152C42.503 577.516 42.3627 576.776 42.3627 575.93C42.3627 575.089 42.503 574.352 42.7835 573.72C43.0676 573.084 43.4636 572.591 43.9714 572.239C44.4792 571.884 45.0704 571.706 45.7452 571.706C46.2423 571.706 46.656 571.795 46.9863 571.973C47.3165 572.147 47.5811 572.363 47.78 572.623C47.9788 572.882 48.1333 573.134 48.2434 573.379H48.3286V569.091H49.2821V580H48.3552V578.482H48.2434C48.1333 578.73 47.9771 578.986 47.7746 579.249C47.5722 579.508 47.3041 579.727 46.9703 579.904C46.64 580.082 46.2263 580.17 45.7292 580.17ZM45.841 579.302C46.3702 579.302 46.8212 579.158 47.194 578.871C47.5669 578.58 47.851 578.18 48.0463 577.672C48.2452 577.161 48.3446 576.575 48.3446 575.914C48.3446 575.261 48.2469 574.684 48.0516 574.183C47.8563 573.679 47.5722 573.285 47.1994 573.001C46.8265 572.713 46.3737 572.569 45.841 572.569C45.2942 572.569 44.8325 572.718 44.4561 573.017C44.0832 573.311 43.7991 573.711 43.6038 574.215C43.4121 574.719 43.3162 575.286 43.3162 575.914C43.3162 576.55 43.4138 577.124 43.6092 577.635C43.8045 578.146 44.0886 578.553 44.4614 578.855C44.8378 579.153 45.2977 579.302 45.841 579.302ZM51.9827 580V571.818H52.9043V573.075H52.9735C53.1369 572.663 53.4209 572.331 53.8258 572.079C54.2342 571.824 54.6958 571.696 55.2107 571.696C55.2888 571.696 55.3758 571.697 55.4717 571.701C55.5676 571.705 55.6475 571.708 55.7114 571.712V572.676C55.6688 572.669 55.5942 572.658 55.4877 572.644C55.3812 572.63 55.2658 572.623 55.1415 572.623C54.7153 572.623 54.3354 572.713 54.0016 572.894C53.6713 573.072 53.4103 573.319 53.2185 573.635C53.0268 573.951 52.9309 574.311 52.9309 574.716V580H51.9827ZM60.3883 580.17C59.6248 580.17 58.9643 579.993 58.4067 579.638C57.8492 579.279 57.4177 578.784 57.1123 578.152C56.8105 577.516 56.6596 576.784 56.6596 575.957C56.6596 575.133 56.8105 574.402 57.1123 573.762C57.4177 573.12 57.8386 572.617 58.3748 572.255C58.9146 571.889 59.5378 571.706 60.2445 571.706C60.6883 571.706 61.1163 571.788 61.5282 571.951C61.9401 572.111 62.3094 572.358 62.6361 572.692C62.9664 573.022 63.2274 573.439 63.4192 573.944C63.6109 574.444 63.7068 575.037 63.7068 575.723V576.191H57.3148V575.355H62.7373C62.7373 574.83 62.6308 574.357 62.4177 573.938C62.2082 573.516 61.9153 573.182 61.5388 572.937C61.166 572.692 60.7345 572.569 60.2445 572.569C59.726 572.569 59.2697 572.708 58.8755 572.985C58.4813 573.262 58.1724 573.627 57.9486 574.082C57.7285 574.537 57.6166 575.034 57.6131 575.574V576.074C57.6131 576.724 57.7249 577.292 57.9486 577.779C58.1759 578.262 58.4973 578.636 58.9128 578.903C59.3283 579.169 59.8201 579.302 60.3883 579.302C60.7753 579.302 61.1145 579.242 61.4057 579.121C61.7004 579 61.9472 578.839 62.1461 578.636C62.3485 578.43 62.5012 578.205 62.6042 577.96L63.5044 578.253C63.3801 578.597 63.1759 578.915 62.8918 579.206C62.6113 579.498 62.2597 579.732 61.8371 579.909C61.4181 580.083 60.9351 580.17 60.3883 580.17ZM71.2934 573.613L70.4251 573.858C70.3399 573.613 70.2191 573.391 70.0629 573.192C69.9066 572.994 69.7025 572.836 69.4503 572.718C69.2017 572.601 68.8928 572.543 68.5235 572.543C67.9695 572.543 67.515 572.674 67.1598 572.937C66.8047 573.2 66.6272 573.539 66.6272 573.954C66.6272 574.306 66.7479 574.592 66.9894 574.812C67.2344 575.028 67.6108 575.201 68.1187 575.328L69.3544 575.632C70.0398 575.799 70.553 576.064 70.8939 576.426C71.2383 576.788 71.4106 577.243 71.4106 577.789C71.4106 578.251 71.2827 578.661 71.027 579.02C70.7714 579.379 70.4145 579.661 69.9564 579.867C69.5018 580.069 68.9745 580.17 68.3743 580.17C67.5753 580.17 66.9166 579.991 66.3981 579.632C65.8797 579.27 65.5476 578.748 65.402 578.066L66.3129 577.843C66.4301 578.329 66.6591 578.697 67 578.945C67.3445 579.194 67.7973 579.318 68.3584 579.318C68.9869 579.318 69.4894 579.178 69.8658 578.897C70.2422 578.613 70.4304 578.258 70.4304 577.832C70.4304 577.502 70.3204 577.225 70.1002 577.001C69.88 576.774 69.5462 576.607 69.0988 576.5L67.7618 576.181C67.0515 576.01 66.526 575.74 66.1851 575.371C65.8441 575.002 65.6737 574.544 65.6737 573.997C65.6737 573.546 65.7962 573.15 66.0412 572.809C66.2863 572.464 66.6236 572.195 67.0533 571.999C67.483 571.804 67.9731 571.706 68.5235 571.706C69.2728 571.706 69.8711 571.877 70.3186 572.218C70.7696 572.555 71.0945 573.02 71.2934 573.613ZM78.9838 573.613L78.1155 573.858C78.0303 573.613 77.9096 573.391 77.7533 573.192C77.5971 572.994 77.3929 572.836 77.1408 572.718C76.8922 572.601 76.5832 572.543 76.2139 572.543C75.6599 572.543 75.2054 572.674 74.8503 572.937C74.4952 573.2 74.3176 573.539 74.3176 573.954C74.3176 574.306 74.4383 574.592 74.6798 574.812C74.9248 575.028 75.3013 575.201 75.8091 575.328L77.0449 575.632C77.7302 575.799 78.2434 576.064 78.5843 576.426C78.9288 576.788 79.101 577.243 79.101 577.789C79.101 578.251 78.9731 578.661 78.7175 579.02C78.4618 579.379 78.1049 579.661 77.6468 579.867C77.1922 580.069 76.6649 580.17 76.0648 580.17C75.2658 580.17 74.607 579.991 74.0886 579.632C73.5701 579.27 73.2381 578.748 73.0925 578.066L74.0033 577.843C74.1205 578.329 74.3496 578.697 74.6905 578.945C75.0349 579.194 75.4877 579.318 76.0488 579.318C76.6773 579.318 77.1798 579.178 77.5562 578.897C77.9327 578.613 78.1209 578.258 78.1209 577.832C78.1209 577.502 78.0108 577.225 77.7906 577.001C77.5704 576.774 77.2366 576.607 76.7892 576.5L75.4522 576.181C74.742 576.01 74.2164 575.74 73.8755 575.371C73.5346 575.002 73.3641 574.544 73.3641 573.997C73.3641 573.546 73.4866 573.15 73.7317 572.809C73.9767 572.464 74.3141 572.195 74.7437 571.999C75.1734 571.804 75.6635 571.706 76.2139 571.706C76.9632 571.706 77.5616 571.877 78.009 572.218C78.46 572.555 78.7849 573.02 78.9838 573.613ZM86.589 569.091V580H85.5929V569.091H86.589ZM90.2405 574.886V580H89.2923V571.818H90.2138V573.102H90.2991C90.4908 572.683 90.7891 572.347 91.1939 572.095C91.6023 571.839 92.1066 571.712 92.7067 571.712C93.2571 571.712 93.7401 571.827 94.1556 572.058C94.5746 572.285 94.8995 572.621 95.1304 573.065C95.3647 573.509 95.4819 574.054 95.4819 574.7V580H94.5338V574.759C94.5338 574.087 94.3456 573.556 93.9691 573.166C93.5963 572.775 93.0956 572.58 92.467 572.58C92.0373 572.58 91.6556 572.672 91.3218 572.857C90.988 573.042 90.7234 573.308 90.5281 573.656C90.3363 574 90.2405 574.411 90.2405 574.886ZM101.345 571.818V572.644H97.3236V571.818H101.345ZM98.5807 580V570.62C98.5807 570.179 98.682 569.808 98.8844 569.506C99.0903 569.205 99.3584 568.975 99.6887 568.819C100.019 568.663 100.369 568.585 100.738 568.585C100.987 568.585 101.193 568.606 101.356 568.649C101.523 568.688 101.654 568.727 101.75 568.766L101.473 569.597C101.402 569.576 101.315 569.551 101.212 569.522C101.109 569.494 100.98 569.48 100.823 569.48C100.411 569.48 100.094 569.595 99.8698 569.826C99.6461 570.057 99.5342 570.387 99.5342 570.817L99.5289 580H98.5807ZM106.081 580.17C105.374 580.17 104.749 579.991 104.206 579.632C103.666 579.274 103.243 578.778 102.938 578.146C102.633 577.511 102.48 576.777 102.48 575.946C102.48 575.108 102.633 574.371 102.938 573.736C103.243 573.097 103.666 572.599 104.206 572.244C104.749 571.886 105.374 571.706 106.081 571.706C106.787 571.706 107.411 571.886 107.95 572.244C108.49 572.603 108.913 573.1 109.218 573.736C109.527 574.371 109.682 575.108 109.682 575.946C109.682 576.777 109.529 577.511 109.224 578.146C108.918 578.778 108.494 579.274 107.95 579.632C107.411 579.991 106.787 580.17 106.081 580.17ZM106.081 579.302C106.649 579.302 107.13 579.15 107.524 578.844C107.918 578.539 108.217 578.132 108.419 577.624C108.625 577.116 108.728 576.557 108.728 575.946C108.728 575.336 108.625 574.775 108.419 574.263C108.217 573.752 107.918 573.342 107.524 573.033C107.13 572.724 106.649 572.569 106.081 572.569C105.516 572.569 105.035 572.724 104.637 573.033C104.243 573.342 103.943 573.752 103.737 574.263C103.535 574.775 103.433 575.336 103.433 575.946C103.433 576.557 103.535 577.116 103.737 577.624C103.943 578.132 104.243 578.539 104.637 578.844C105.031 579.15 105.513 579.302 106.081 579.302Z" fill="#757575"/>
<rect x="18.5" y="630.5" width="355" height="45" rx="6.5" fill="white" stroke="#8D8D8D"/>
<path d="M26.7714 658L23.7832 647.091H24.7952L27.2668 656.471H27.3521L29.8236 647.091H30.9742L33.4458 656.471H33.531L36.0026 647.091H37.02L34.0317 658H32.9664L30.4362 648.748H30.367L27.8368 658H26.7714ZM41.0417 658.17C40.335 658.17 39.71 657.991 39.1667 657.632C38.6269 657.274 38.2043 656.778 37.8989 656.146C37.5935 655.511 37.4408 654.777 37.4408 653.946C37.4408 653.108 37.5935 652.371 37.8989 651.736C38.2043 651.097 38.6269 650.599 39.1667 650.244C39.71 649.886 40.335 649.706 41.0417 649.706C41.7484 649.706 42.3716 649.886 42.9114 650.244C43.4511 650.603 43.8737 651.1 44.1791 651.736C44.4881 652.371 44.6425 653.108 44.6425 653.946C44.6425 654.777 44.4898 655.511 44.1844 656.146C43.879 656.778 43.4547 657.274 42.9114 657.632C42.3716 657.991 41.7484 658.17 41.0417 658.17ZM41.0417 657.302C41.6099 657.302 42.091 657.15 42.4852 656.844C42.8794 656.539 43.1777 656.132 43.3801 655.624C43.5861 655.116 43.6891 654.557 43.6891 653.946C43.6891 653.336 43.5861 652.775 43.3801 652.263C43.1777 651.752 42.8794 651.342 42.4852 651.033C42.091 650.724 41.6099 650.569 41.0417 650.569C40.4771 650.569 39.9959 650.724 39.5981 651.033C39.204 651.342 38.9039 651.752 38.6979 652.263C38.4955 652.775 38.3943 653.336 38.3943 653.946C38.3943 654.557 38.4955 655.116 38.6979 655.624C38.9039 656.132 39.204 656.539 39.5981 656.844C39.9923 657.15 40.4735 657.302 41.0417 657.302ZM46.7239 658V649.818H47.6455V651.075H47.7147C47.8781 650.663 48.1622 650.331 48.567 650.079C48.9754 649.824 49.437 649.696 49.9519 649.696C50.0301 649.696 50.1171 649.697 50.2129 649.701C50.3088 649.705 50.3887 649.708 50.4526 649.712V650.676C50.41 650.669 50.3354 650.658 50.2289 650.644C50.1224 650.63 50.007 650.623 49.8827 650.623C49.4565 650.623 49.0766 650.713 48.7428 650.894C48.4125 651.072 48.1515 651.319 47.9597 651.635C47.768 651.951 47.6721 652.311 47.6721 652.716V658H46.7239ZM52.9335 654.911L52.9229 653.669H53.136L56.9712 649.818H58.1697L54.3824 653.611L54.2972 653.627L52.9335 654.911ZM52.0706 658V647.091H53.0188V658H52.0706ZM57.1683 658L53.8444 653.797L54.5262 653.142L58.3828 658H57.1683ZM62.9225 658.17C62.159 658.17 61.4984 657.993 60.9409 657.638C60.3834 657.279 59.9519 656.784 59.6465 656.152C59.3447 655.516 59.1938 654.784 59.1938 653.957C59.1938 653.133 59.3447 652.402 59.6465 651.762C59.9519 651.12 60.3727 650.617 60.909 650.255C61.4487 649.889 62.072 649.706 62.7786 649.706C63.2225 649.706 63.6504 649.788 64.0624 649.951C64.4743 650.111 64.8436 650.358 65.1703 650.692C65.5006 651.022 65.7616 651.439 65.9533 651.944C66.1451 652.444 66.241 653.037 66.241 653.723V654.191H59.8489V653.355H65.2715C65.2715 652.83 65.165 652.357 64.9519 651.938C64.7424 651.516 64.4494 651.182 64.073 650.937C63.7002 650.692 63.2687 650.569 62.7786 650.569C62.2602 650.569 61.8038 650.708 61.4097 650.985C61.0155 651.262 60.7065 651.627 60.4828 652.082C60.2627 652.537 60.1508 653.034 60.1472 653.574V654.074C60.1472 654.724 60.2591 655.292 60.4828 655.779C60.7101 656.262 61.0315 656.636 61.447 656.903C61.8624 657.169 62.3543 657.302 62.9225 657.302C63.3095 657.302 63.6487 657.242 63.9399 657.121C64.2346 657 64.4814 656.839 64.6803 656.636C64.8827 656.43 65.0354 656.205 65.1384 655.96L66.0386 656.253C65.9143 656.597 65.7101 656.915 65.426 657.206C65.1455 657.498 64.7939 657.732 64.3713 657.909C63.9523 658.083 63.4693 658.17 62.9225 658.17ZM68.3304 658V649.818H69.2519V651.075H69.3212C69.4845 650.663 69.7686 650.331 70.1734 650.079C70.5818 649.824 71.0435 649.696 71.5584 649.696C71.6365 649.696 71.7235 649.697 71.8194 649.701C71.9153 649.705 71.9952 649.708 72.0591 649.712V650.676C72.0165 650.669 71.9419 650.658 71.8354 650.644C71.7288 650.63 71.6134 650.623 71.4891 650.623C71.063 650.623 70.683 650.713 70.3492 650.894C70.019 651.072 69.7579 651.319 69.5662 651.635C69.3744 651.951 69.2785 652.311 69.2785 652.716V658H68.3304ZM86.589 647.091V658H85.6195L79.1742 648.865H79.089V658H78.0929V647.091H79.057L85.5237 656.237H85.6089V647.091H86.589ZM94.4912 654.873V649.818H95.4393V658H94.4912V656.642H94.4166C94.2248 657.061 93.9212 657.411 93.5057 657.691C93.0902 657.968 92.5824 658.107 91.9823 658.107C91.4603 658.107 90.9968 657.993 90.592 657.766C90.1872 657.535 89.8694 657.197 89.6385 656.754C89.4077 656.31 89.2923 655.765 89.2923 655.118V649.818H90.2405V655.06C90.2405 655.699 90.4287 656.214 90.8051 656.604C91.1815 656.991 91.6645 657.185 92.254 657.185C92.6233 657.185 92.9784 657.096 93.3193 656.919C93.6602 656.741 93.9407 656.482 94.1609 656.141C94.3811 655.797 94.4912 655.374 94.4912 654.873ZM97.9495 658V649.818H98.871V651.075H98.9563C99.1196 650.653 99.3913 650.321 99.7713 650.079C100.155 649.834 100.615 649.712 101.151 649.712C101.716 649.712 102.179 649.845 102.541 650.111C102.907 650.374 103.18 650.736 103.361 651.198H103.431C103.615 650.743 103.915 650.383 104.331 650.116C104.75 649.847 105.258 649.712 105.854 649.712C106.614 649.712 107.214 649.951 107.655 650.431C108.095 650.907 108.315 651.603 108.315 652.519V658H107.367V652.519C107.367 651.873 107.202 651.388 106.872 651.065C106.542 650.741 106.106 650.58 105.567 650.58C104.942 650.58 104.461 650.772 104.123 651.155C103.786 651.539 103.617 652.025 103.617 652.615V658H102.648V652.434C102.648 651.88 102.493 651.432 102.184 651.091C101.875 650.75 101.44 650.58 100.879 650.58C100.503 650.58 100.164 650.672 99.8618 650.857C99.5635 651.042 99.3274 651.299 99.1534 651.629C98.9829 651.956 98.8977 652.332 98.8977 652.759V658H97.9495Z" fill="#757575"/>
<circle cx="196" cy="189" r="90" fill="#E6E6E6"/>
<circle cx="196" cy="189" r="86.5" stroke="#FEC00A" stroke-opacity="0.65" stroke-width="7"/>
<circle cx="254.5" cy="256.5" r="22.5" fill="#FEC00A"/>
<path d="M262.375 254.812V265.5C262.375 265.798 262.256 266.085 262.045 266.295C261.835 266.506 261.548 266.625 261.25 266.625H245.5C245.202 266.625 244.915 266.506 244.705 266.295C244.494 266.085 244.375 265.798 244.375 265.5V249.75C244.375 249.452 244.494 249.165 244.705 248.955C244.915 248.744 245.202 248.625 245.5 248.625H255.83" stroke="#F8F8F8" stroke-width="4" stroke-miterlimit="10" stroke-linecap="round" stroke-linejoin="round"/>
<path d="M260.125 248.625H264.625M262.372 246.26V250.76M247.75 260.454L251.125 255.938L252.812 257.625L254.781 254.531L259 260.454H247.75Z" stroke="#F8F8F8" stroke-width="4" stroke-miterlimit="10" stroke-linecap="round" stroke-linejoin="round"/>
<rect x="18.5" y="717.5" width="355" height="39" rx="7.5" fill="#FEC00A" stroke="#FEC00A"/>
<path d="M155.889 742H153.417L157.183 731.091H160.155L163.916 742H161.444L158.712 733.584H158.626L155.889 742ZM155.734 737.712H161.572V739.512H155.734V737.712ZM167.82 742.133C167.199 742.133 166.636 741.973 166.132 741.654C165.631 741.331 165.233 740.857 164.939 740.232C164.647 739.603 164.502 738.832 164.502 737.92C164.502 736.982 164.653 736.203 164.955 735.581C165.256 734.956 165.658 734.489 166.158 734.18C166.663 733.868 167.215 733.712 167.815 733.712C168.273 733.712 168.655 733.79 168.96 733.946C169.269 734.099 169.518 734.29 169.706 734.521C169.898 734.749 170.043 734.972 170.143 735.192H170.212V731.091H172.476V742H170.239V740.69H170.143C170.036 740.917 169.885 741.142 169.69 741.366C169.498 741.586 169.248 741.769 168.939 741.915C168.634 742.06 168.261 742.133 167.82 742.133ZM168.539 740.327C168.905 740.327 169.214 740.228 169.466 740.029C169.722 739.827 169.917 739.544 170.052 739.182C170.191 738.82 170.26 738.396 170.26 737.909C170.26 737.423 170.193 737 170.058 736.641C169.923 736.283 169.727 736.006 169.472 735.81C169.216 735.615 168.905 735.517 168.539 735.517C168.167 735.517 167.852 735.619 167.597 735.821C167.341 736.023 167.147 736.304 167.016 736.663C166.885 737.021 166.819 737.437 166.819 737.909C166.819 738.385 166.885 738.806 167.016 739.172C167.151 739.534 167.345 739.818 167.597 740.024C167.852 740.226 168.167 740.327 168.539 740.327ZM177.356 742.133C176.735 742.133 176.172 741.973 175.668 741.654C175.167 741.331 174.769 740.857 174.475 740.232C174.184 739.603 174.038 738.832 174.038 737.92C174.038 736.982 174.189 736.203 174.491 735.581C174.793 734.956 175.194 734.489 175.695 734.18C176.199 733.868 176.751 733.712 177.351 733.712C177.809 733.712 178.191 733.79 178.496 733.946C178.805 734.099 179.054 734.29 179.242 734.521C179.434 734.749 179.58 734.972 179.679 735.192H179.748V731.091H182.012V742H179.775V740.69H179.679C179.572 740.917 179.421 741.142 179.226 741.366C179.034 741.586 178.784 741.769 178.475 741.915C178.17 742.06 177.797 742.133 177.356 742.133ZM178.076 740.327C178.441 740.327 178.75 740.228 179.002 740.029C179.258 739.827 179.453 739.544 179.588 739.182C179.727 738.82 179.796 738.396 179.796 737.909C179.796 737.423 179.729 737 179.594 736.641C179.459 736.283 179.263 736.006 179.008 735.81C178.752 735.615 178.441 735.517 178.076 735.517C177.703 735.517 177.388 735.619 177.133 735.821C176.877 736.023 176.684 736.304 176.552 736.663C176.421 737.021 176.355 737.437 176.355 737.909C176.355 738.385 176.421 738.806 176.552 739.172C176.687 739.534 176.881 739.818 177.133 740.024C177.388 740.226 177.703 740.327 178.076 740.327ZM189.848 742L186.726 731.091H189.246L191.051 738.671H191.142L193.134 731.091H195.292L197.278 738.687H197.374L199.18 731.091H201.7L198.578 742H196.33L194.253 734.868H194.168L192.095 742H189.848ZM205.709 742.16C204.882 742.16 204.166 741.984 203.563 741.632C202.962 741.277 202.499 740.784 202.172 740.152C201.846 739.516 201.682 738.779 201.682 737.941C201.682 737.096 201.846 736.357 202.172 735.725C202.499 735.089 202.962 734.596 203.563 734.244C204.166 733.889 204.882 733.712 205.709 733.712C206.537 733.712 207.25 733.889 207.851 734.244C208.454 734.596 208.919 735.089 209.246 735.725C209.573 736.357 209.736 737.096 209.736 737.941C209.736 738.779 209.573 739.516 209.246 740.152C208.919 740.784 208.454 741.277 207.851 741.632C207.25 741.984 206.537 742.16 205.709 742.16ZM205.72 740.402C206.096 740.402 206.411 740.295 206.663 740.082C206.915 739.866 207.105 739.571 207.233 739.198C207.364 738.825 207.43 738.401 207.43 737.925C207.43 737.449 207.364 737.025 207.233 736.652C207.105 736.279 206.915 735.984 206.663 735.768C206.411 735.551 206.096 735.443 205.72 735.443C205.34 735.443 205.02 735.551 204.761 735.768C204.505 735.984 204.312 736.279 204.18 736.652C204.053 737.025 203.989 737.449 203.989 737.925C203.989 738.401 204.053 738.825 204.18 739.198C204.312 739.571 204.505 739.866 204.761 740.082C205.02 740.295 205.34 740.402 205.72 740.402ZM211.212 742V733.818H213.412V735.246H213.497C213.646 734.738 213.896 734.354 214.248 734.095C214.599 733.832 215.004 733.701 215.462 733.701C215.576 733.701 215.699 733.708 215.83 733.722C215.961 733.737 216.077 733.756 216.176 733.781V735.794C216.07 735.762 215.922 735.734 215.734 735.709C215.546 735.684 215.374 735.672 215.217 735.672C214.884 735.672 214.585 735.745 214.322 735.89C214.063 736.032 213.857 736.231 213.705 736.487C213.555 736.743 213.481 737.037 213.481 737.371V742H211.212ZM219.405 739.646L219.411 736.924H219.741L222.362 733.818H224.967L221.446 737.93H220.908L219.405 739.646ZM217.349 742V731.091H219.619V742H217.349ZM222.463 742L220.055 738.436L221.568 736.833L225.121 742H222.463ZM229.472 742.16C228.63 742.16 227.906 741.989 227.298 741.648C226.695 741.304 226.229 740.817 225.903 740.189C225.576 739.557 225.413 738.809 225.413 737.946C225.413 737.105 225.576 736.366 225.903 735.73C226.229 735.095 226.689 734.599 227.282 734.244C227.879 733.889 228.579 733.712 229.381 733.712C229.921 733.712 230.423 733.799 230.889 733.973C231.357 734.143 231.766 734.401 232.114 734.745C232.465 735.089 232.739 735.523 232.934 736.045C233.129 736.563 233.227 737.17 233.227 737.866V738.49H226.318V737.083H231.091C231.091 736.757 231.02 736.467 230.878 736.215C230.736 735.963 230.539 735.766 230.287 735.624C230.038 735.478 229.749 735.406 229.418 735.406C229.074 735.406 228.769 735.485 228.502 735.645C228.239 735.801 228.033 736.013 227.884 736.279C227.735 736.542 227.659 736.835 227.655 737.158V738.495C227.655 738.9 227.73 739.25 227.879 739.544C228.032 739.839 228.246 740.066 228.523 740.226C228.8 740.386 229.129 740.466 229.509 740.466C229.761 740.466 229.992 740.43 230.201 740.359C230.411 740.288 230.59 740.182 230.739 740.04C230.889 739.898 231.002 739.724 231.08 739.518L233.179 739.656C233.072 740.161 232.854 740.601 232.524 740.977C232.197 741.35 231.775 741.641 231.256 741.851C230.741 742.057 230.146 742.16 229.472 742.16ZM234.708 742V733.818H236.908V735.246H236.993C237.142 734.738 237.392 734.354 237.744 734.095C238.096 733.832 238.5 733.701 238.958 733.701C239.072 733.701 239.195 733.708 239.326 733.722C239.457 733.737 239.573 733.756 239.672 733.781V735.794C239.566 735.762 239.418 735.734 239.23 735.709C239.042 735.684 238.87 735.672 238.713 735.672C238.38 735.672 238.081 735.745 237.819 735.89C237.559 736.032 237.353 736.231 237.201 736.487C237.052 736.743 236.977 737.037 236.977 737.371V742H234.708Z" fill="white"/>
</g>
<defs>
<filter id="filter0_d_72_172" x="170" y="805" width="53" height="53" filterUnits="userSpaceOnUse" color-interpolation-filters="sRGB">
<feFlood flood-opacity="0" result="BackgroundImageFix"/>
<feColorMatrix in="SourceAlpha" type="matrix" values="0 0 0 0 0 0 0 0 0 0 0 0 0 0 0 0 0 0 127 0" result="hardAlpha"/>
<feOffset dy="4"/>
<feGaussianBlur stdDeviation="2"/>
<feComposite in2="hardAlpha" operator="out"/>
<feColorMatrix type="matrix" values="0 0 0 0 0 0 0 0 0 0 0 0 0 0 0 0 0 0 0.25 0"/>
<feBlend mode="normal" in2="BackgroundImageFix" result="effect1_dropShadow_72_172"/>
<feBlend mode="normal" in="SourceGraphic" in2="effect1_dropShadow_72_172" result="shape"/>
</filter>
<clipPath id="clip0_72_172">
<rect width="393" height="852" rx="25" fill="white"/>
</clipPath>
</defs>
</svg>
