<svg width="393" height="852" viewBox="0 0 393 852" fill="none" xmlns="http://www.w3.org/2000/svg">
<rect width="393" height="852" rx="25" fill="white"/>
<path d="M20.9375 34.4375H32.1875C32.3367 34.4375 32.4798 34.4968 32.5852 34.6023C32.6907 34.7077 32.75 34.8508 32.75 35C32.75 35.1492 32.6907 35.2923 32.5852 35.3977C32.4798 35.5032 32.3367 35.5625 32.1875 35.5625H20.9375C20.7883 35.5625 20.6452 35.5032 20.5398 35.3977C20.4343 35.2923 20.375 35.1492 20.375 35C20.375 34.8508 20.4343 34.7077 20.5398 34.6023C20.6452 34.4968 20.7883 34.4375 20.9375 34.4375Z" fill="#FEC00A"/>
<path d="M21.1704 35L25.8358 39.6642C25.9414 39.7698 26.0007 39.9131 26.0007 40.0625C26.0007 40.2119 25.9414 40.3551 25.8358 40.4607C25.7302 40.5663 25.5869 40.6257 25.4375 40.6257C25.2882 40.6257 25.1449 40.5663 25.0393 40.4607L19.9768 35.3982C19.9244 35.346 19.8828 35.2839 19.8545 35.2156C19.8261 35.1472 19.8115 35.074 19.8115 35C19.8115 34.926 19.8261 34.8527 19.8545 34.7844C19.8828 34.7161 19.9244 34.654 19.9768 34.6017L25.0393 29.5392C25.1449 29.4336 25.2882 29.3743 25.4375 29.3743C25.5869 29.3743 25.7302 29.4336 25.8358 29.5392C25.9414 29.6449 26.0007 29.7881 26.0007 29.9375C26.0007 30.0869 25.9414 30.2301 25.8358 30.3357L21.1704 35Z" fill="#FEC00A"/>
<path d="M137.223 40V29.0909H141.527C142.35 29.0909 143.054 29.2383 143.636 29.533C144.222 29.8242 144.668 30.2379 144.973 30.7741C145.282 31.3068 145.436 31.9336 145.436 32.6545C145.436 33.3789 145.28 34.0021 144.968 34.5241C144.655 35.0426 144.202 35.4403 143.609 35.7173C143.02 35.9943 142.306 36.1328 141.468 36.1328H138.586V34.2791H141.095C141.535 34.2791 141.901 34.2187 142.192 34.098C142.484 33.9773 142.7 33.7962 142.842 33.5547C142.988 33.3132 143.061 33.0131 143.061 32.6545C143.061 32.2923 142.988 31.9869 142.842 31.7383C142.7 31.4897 142.482 31.3015 142.187 31.1737C141.896 31.0423 141.528 30.9766 141.084 30.9766H139.529V40H137.223ZM143.114 35.0355L145.825 40H143.279L140.626 35.0355H143.114ZM150.621 40.1598C149.779 40.1598 149.055 39.9893 148.447 39.6484C147.844 39.304 147.378 38.8175 147.052 38.1889C146.725 37.5568 146.562 36.8093 146.562 35.9464C146.562 35.1048 146.725 34.3661 147.052 33.7305C147.378 33.0948 147.838 32.5994 148.431 32.2443C149.028 31.8892 149.727 31.7116 150.53 31.7116C151.07 31.7116 151.572 31.7987 152.037 31.9727C152.506 32.1431 152.915 32.4006 153.263 32.745C153.614 33.0895 153.888 33.5227 154.083 34.0447C154.278 34.5632 154.376 35.1705 154.376 35.8665V36.4897H147.467V35.0835H152.24C152.24 34.7567 152.169 34.4673 152.027 34.2152C151.885 33.9631 151.688 33.766 151.436 33.6239C151.187 33.4783 150.898 33.4055 150.567 33.4055C150.223 33.4055 149.917 33.4854 149.651 33.6452C149.388 33.8015 149.182 34.0128 149.033 34.2791C148.884 34.5419 148.808 34.8349 148.804 35.158V36.495C148.804 36.8999 148.879 37.2496 149.028 37.5444C149.181 37.8391 149.395 38.0664 149.672 38.2262C149.949 38.386 150.278 38.4659 150.658 38.4659C150.91 38.4659 151.141 38.4304 151.35 38.3594C151.56 38.2884 151.739 38.1818 151.888 38.0398C152.037 37.8977 152.151 37.7237 152.229 37.5178L154.328 37.6562C154.221 38.1605 154.003 38.6009 153.673 38.9773C153.346 39.3501 152.923 39.6413 152.405 39.8509C151.89 40.0568 151.295 40.1598 150.621 40.1598ZM162.664 34.1513L160.587 34.2791C160.551 34.1016 160.475 33.9418 160.358 33.7997C160.241 33.6541 160.086 33.5387 159.894 33.4535C159.706 33.3647 159.481 33.3203 159.218 33.3203C158.866 33.3203 158.57 33.3949 158.328 33.544C158.087 33.6896 157.966 33.8849 157.966 34.13C157.966 34.3253 158.044 34.4904 158.2 34.6254C158.357 34.7603 158.625 34.8686 159.005 34.9503L160.486 35.2486C161.281 35.4119 161.874 35.6747 162.265 36.0369C162.655 36.3991 162.851 36.875 162.851 37.4645C162.851 38.0007 162.693 38.4712 162.377 38.8761C162.064 39.2809 161.634 39.5969 161.088 39.8242C160.544 40.0479 159.917 40.1598 159.207 40.1598C158.124 40.1598 157.261 39.9343 156.618 39.4833C155.979 39.0288 155.605 38.4109 155.494 37.6296L157.726 37.5124C157.794 37.8427 157.957 38.0948 158.216 38.2688C158.476 38.4393 158.808 38.5245 159.213 38.5245C159.61 38.5245 159.93 38.4482 160.171 38.2955C160.416 38.1392 160.541 37.9386 160.544 37.6935C160.541 37.4876 160.454 37.3189 160.283 37.1875C160.113 37.0526 159.85 36.9496 159.495 36.8786L158.078 36.5962C157.279 36.4364 156.684 36.1594 156.294 35.7653C155.906 35.3711 155.713 34.8686 155.713 34.2578C155.713 33.7322 155.855 33.2795 156.139 32.8995C156.427 32.5195 156.83 32.2266 157.348 32.0206C157.87 31.8146 158.481 31.7116 159.181 31.7116C160.214 31.7116 161.027 31.93 161.62 32.3668C162.217 32.8036 162.565 33.3984 162.664 34.1513ZM168.008 40.1598C167.167 40.1598 166.442 39.9893 165.835 39.6484C165.231 39.304 164.766 38.8175 164.439 38.1889C164.113 37.5568 163.949 36.8093 163.949 35.9464C163.949 35.1048 164.113 34.3661 164.439 33.7305C164.766 33.0948 165.226 32.5994 165.819 32.2443C166.416 31.8892 167.115 31.7116 167.918 31.7116C168.457 31.7116 168.96 31.7987 169.425 31.9727C169.894 32.1431 170.302 32.4006 170.65 32.745C171.002 33.0895 171.275 33.5227 171.471 34.0447C171.666 34.5632 171.764 35.1705 171.764 35.8665V36.4897H164.855V35.0835H169.628C169.628 34.7567 169.557 34.4673 169.415 34.2152C169.272 33.9631 169.075 33.766 168.823 33.6239C168.575 33.4783 168.285 33.4055 167.955 33.4055C167.611 33.4055 167.305 33.4854 167.039 33.6452C166.776 33.8015 166.57 34.0128 166.421 34.2791C166.272 34.5419 166.195 34.8349 166.192 35.158V36.495C166.192 36.8999 166.266 37.2496 166.416 37.5444C166.568 37.8391 166.783 38.0664 167.06 38.2262C167.337 38.386 167.666 38.4659 168.046 38.4659C168.298 38.4659 168.528 38.4304 168.738 38.3594C168.948 38.2884 169.127 38.1818 169.276 38.0398C169.425 37.8977 169.539 37.7237 169.617 37.5178L171.716 37.6562C171.609 38.1605 171.391 38.6009 171.06 38.9773C170.734 39.3501 170.311 39.6413 169.793 39.8509C169.278 40.0568 168.683 40.1598 168.008 40.1598ZM177.596 31.8182V33.5227H172.669V31.8182H177.596ZM173.788 29.858H176.057V37.4858C176.057 37.6953 176.089 37.8587 176.153 37.9759C176.217 38.0895 176.305 38.1694 176.419 38.2156C176.536 38.2617 176.671 38.2848 176.824 38.2848C176.93 38.2848 177.037 38.2759 177.144 38.2582C177.25 38.2369 177.332 38.2209 177.389 38.2102L177.745 39.8988C177.632 39.9343 177.472 39.9751 177.266 40.0213C177.06 40.071 176.81 40.1012 176.515 40.1119C175.968 40.1332 175.489 40.0604 175.077 39.8935C174.668 39.7266 174.351 39.4673 174.123 39.1158C173.896 38.7642 173.784 38.3203 173.788 37.7841V29.858ZM182.589 40V29.0909H186.893C187.72 29.0909 188.425 29.2489 189.007 29.565C189.59 29.8775 190.034 30.3125 190.339 30.87C190.648 31.424 190.803 32.0632 190.803 32.7876C190.803 33.5121 190.646 34.1513 190.334 34.7053C190.021 35.2592 189.569 35.6907 188.975 35.9996C188.386 36.3086 187.672 36.4631 186.834 36.4631H184.091V34.6147H186.461C186.905 34.6147 187.271 34.5384 187.559 34.3857C187.85 34.2294 188.066 34.0146 188.208 33.7411C188.354 33.4641 188.427 33.1463 188.427 32.7876C188.427 32.4254 188.354 32.1094 188.208 31.8395C188.066 31.5661 187.85 31.3548 187.559 31.2056C187.267 31.0529 186.898 30.9766 186.451 30.9766H184.895V40H182.589ZM194.371 40.1545C193.849 40.1545 193.384 40.0639 192.976 39.8828C192.567 39.6982 192.244 39.4265 192.006 39.0678C191.772 38.7056 191.655 38.2546 191.655 37.7148C191.655 37.2603 191.738 36.8786 191.905 36.5696C192.072 36.2607 192.299 36.0121 192.587 35.8239C192.875 35.6357 193.201 35.4936 193.567 35.3977C193.936 35.3018 194.324 35.2344 194.728 35.1953C195.204 35.1456 195.588 35.0994 195.879 35.0568C196.17 35.0107 196.381 34.9432 196.513 34.8544C196.644 34.7656 196.71 34.6342 196.71 34.4602V34.4283C196.71 34.0909 196.603 33.8299 196.39 33.6452C196.181 33.4606 195.882 33.3683 195.495 33.3683C195.087 33.3683 194.762 33.4588 194.521 33.6399C194.279 33.8175 194.119 34.0412 194.041 34.3111L191.942 34.1406C192.049 33.6435 192.259 33.2138 192.571 32.8516C192.884 32.4858 193.287 32.2053 193.78 32.0099C194.277 31.8111 194.853 31.7116 195.506 31.7116C195.961 31.7116 196.396 31.7649 196.811 31.8714C197.23 31.978 197.601 32.1431 197.924 32.3668C198.251 32.5906 198.509 32.8782 198.697 33.2298C198.885 33.5778 198.979 33.995 198.979 34.4815V40H196.827V38.8654H196.763C196.632 39.1211 196.456 39.3466 196.236 39.5419C196.016 39.7337 195.751 39.8846 195.442 39.9947C195.133 40.1012 194.776 40.1545 194.371 40.1545ZM195.021 38.5884C195.355 38.5884 195.65 38.5227 195.906 38.3913C196.161 38.2564 196.362 38.0753 196.507 37.848C196.653 37.6207 196.726 37.3633 196.726 37.0756V36.2074C196.655 36.2536 196.557 36.2962 196.433 36.3352C196.312 36.3707 196.175 36.4045 196.023 36.4364C195.87 36.4648 195.717 36.4915 195.565 36.5163C195.412 36.5376 195.273 36.5572 195.149 36.5749C194.883 36.614 194.65 36.6761 194.451 36.7614C194.252 36.8466 194.098 36.962 193.988 37.1076C193.878 37.2496 193.823 37.4272 193.823 37.6403C193.823 37.9492 193.935 38.1854 194.158 38.3487C194.386 38.5085 194.673 38.5884 195.021 38.5884ZM207.547 34.1513L205.47 34.2791C205.434 34.1016 205.358 33.9418 205.241 33.7997C205.123 33.6541 204.969 33.5387 204.777 33.4535C204.589 33.3647 204.363 33.3203 204.101 33.3203C203.749 33.3203 203.453 33.3949 203.211 33.544C202.97 33.6896 202.849 33.8849 202.849 34.13C202.849 34.3253 202.927 34.4904 203.083 34.6254C203.24 34.7603 203.508 34.8686 203.888 34.9503L205.368 35.2486C206.164 35.4119 206.757 35.6747 207.148 36.0369C207.538 36.3991 207.733 36.875 207.733 37.4645C207.733 38.0007 207.575 38.4712 207.259 38.8761C206.947 39.2809 206.517 39.5969 205.97 39.8242C205.427 40.0479 204.8 40.1598 204.09 40.1598C203.007 40.1598 202.144 39.9343 201.501 39.4833C200.862 39.0288 200.487 38.4109 200.377 37.6296L202.609 37.5124C202.677 37.8427 202.84 38.0948 203.099 38.2688C203.358 38.4393 203.691 38.5245 204.095 38.5245C204.493 38.5245 204.813 38.4482 205.054 38.2955C205.299 38.1392 205.423 37.9386 205.427 37.6935C205.423 37.4876 205.336 37.3189 205.166 37.1875C204.996 37.0526 204.733 36.9496 204.378 36.8786L202.961 36.5962C202.162 36.4364 201.567 36.1594 201.176 35.7653C200.789 35.3711 200.596 34.8686 200.596 34.2578C200.596 33.7322 200.738 33.2795 201.022 32.8995C201.309 32.5195 201.713 32.2266 202.231 32.0206C202.753 31.8146 203.364 31.7116 204.063 31.7116C205.097 31.7116 205.91 31.93 206.503 32.3668C207.1 32.8036 207.448 33.3984 207.547 34.1513ZM215.97 34.1513L213.892 34.2791C213.857 34.1016 213.781 33.9418 213.663 33.7997C213.546 33.6541 213.392 33.5387 213.2 33.4535C213.012 33.3647 212.786 33.3203 212.524 33.3203C212.172 33.3203 211.875 33.3949 211.634 33.544C211.392 33.6896 211.272 33.8849 211.272 34.13C211.272 34.3253 211.35 34.4904 211.506 34.6254C211.662 34.7603 211.93 34.8686 212.31 34.9503L213.791 35.2486C214.587 35.4119 215.18 35.6747 215.57 36.0369C215.961 36.3991 216.156 36.875 216.156 37.4645C216.156 38.0007 215.998 38.4712 215.682 38.8761C215.37 39.2809 214.94 39.5969 214.393 39.8242C213.85 40.0479 213.223 40.1598 212.513 40.1598C211.43 40.1598 210.567 39.9343 209.924 39.4833C209.285 39.0288 208.91 38.4109 208.8 37.6296L211.032 37.5124C211.1 37.8427 211.263 38.0948 211.522 38.2688C211.781 38.4393 212.113 38.5245 212.518 38.5245C212.916 38.5245 213.236 38.4482 213.477 38.2955C213.722 38.1392 213.846 37.9386 213.85 37.6935C213.846 37.4876 213.759 37.3189 213.589 37.1875C213.418 37.0526 213.156 36.9496 212.801 36.8786L211.384 36.5962C210.585 36.4364 209.99 36.1594 209.599 35.7653C209.212 35.3711 209.019 34.8686 209.019 34.2578C209.019 33.7322 209.161 33.2795 209.445 32.8995C209.732 32.5195 210.135 32.2266 210.654 32.0206C211.176 31.8146 211.787 31.7116 212.486 31.7116C213.52 31.7116 214.333 31.93 214.926 32.3668C215.522 32.8036 215.87 33.3984 215.97 34.1513ZM219.199 40L216.973 31.8182H219.268L220.536 37.3153H220.611L221.932 31.8182H224.185L225.527 37.2834H225.597L226.843 31.8182H229.134L226.912 40H224.51L223.104 34.8544H223.002L221.596 40H219.199ZM233.836 40.1598C233.008 40.1598 232.293 39.984 231.689 39.6325C231.089 39.2773 230.625 38.7837 230.299 38.1516C229.972 37.516 229.809 36.7791 229.809 35.9411C229.809 35.0959 229.972 34.3572 230.299 33.7251C230.625 33.0895 231.089 32.5959 231.689 32.2443C232.293 31.8892 233.008 31.7116 233.836 31.7116C234.663 31.7116 235.377 31.8892 235.977 32.2443C236.581 32.5959 237.046 33.0895 237.373 33.7251C237.699 34.3572 237.863 35.0959 237.863 35.9411C237.863 36.7791 237.699 37.516 237.373 38.1516C237.046 38.7837 236.581 39.2773 235.977 39.6325C235.377 39.984 234.663 40.1598 233.836 40.1598ZM233.846 38.402C234.223 38.402 234.537 38.2955 234.789 38.0824C235.041 37.8658 235.231 37.571 235.359 37.1982C235.491 36.8253 235.556 36.4009 235.556 35.9251C235.556 35.4492 235.491 35.0249 235.359 34.652C235.231 34.2791 235.041 33.9844 234.789 33.7678C234.537 33.5511 234.223 33.4428 233.846 33.4428C233.466 33.4428 233.147 33.5511 232.888 33.7678C232.632 33.9844 232.438 34.2791 232.307 34.652C232.179 35.0249 232.115 35.4492 232.115 35.9251C232.115 36.4009 232.179 36.8253 232.307 37.1982C232.438 37.571 232.632 37.8658 232.888 38.0824C233.147 38.2955 233.466 38.402 233.846 38.402ZM239.338 40V31.8182H241.538V33.2457H241.623C241.772 32.7379 242.023 32.3544 242.374 32.0952C242.726 31.8324 243.131 31.701 243.589 31.701C243.703 31.701 243.825 31.7081 243.956 31.7223C244.088 31.7365 244.203 31.756 244.303 31.7809V33.7944C244.196 33.7624 244.049 33.734 243.861 33.7092C243.672 33.6843 243.5 33.6719 243.344 33.6719C243.01 33.6719 242.712 33.7447 242.449 33.8903C242.19 34.0323 241.984 34.2312 241.831 34.4869C241.682 34.7425 241.607 35.0373 241.607 35.3711V40H239.338ZM248.11 40.1332C247.488 40.1332 246.926 39.9734 246.421 39.6538C245.921 39.3306 245.523 38.8565 245.228 38.2315C244.937 37.603 244.791 36.8324 244.791 35.9197C244.791 34.9822 244.942 34.2028 245.244 33.5813C245.546 32.9563 245.947 32.4893 246.448 32.1804C246.952 31.8679 247.504 31.7116 248.105 31.7116C248.563 31.7116 248.944 31.7898 249.25 31.946C249.559 32.0987 249.807 32.2905 249.996 32.5213C250.187 32.7486 250.333 32.9723 250.432 33.1925H250.502V29.0909H252.765V40H250.528V38.6896H250.432C250.326 38.9169 250.175 39.1424 249.98 39.3661C249.788 39.5863 249.537 39.7692 249.229 39.9148C248.923 40.0604 248.55 40.1332 248.11 40.1332ZM248.829 38.3274C249.195 38.3274 249.504 38.228 249.756 38.0291C250.012 37.8267 250.207 37.5444 250.342 37.1822C250.48 36.82 250.55 36.3956 250.55 35.9091C250.55 35.4226 250.482 35 250.347 34.6413C250.212 34.2827 250.017 34.0057 249.761 33.8104C249.506 33.6151 249.195 33.5174 248.829 33.5174C248.456 33.5174 248.142 33.6186 247.886 33.821C247.631 34.0234 247.437 34.304 247.306 34.6626C247.174 35.0213 247.108 35.4368 247.108 35.9091C247.108 36.3849 247.174 36.8058 247.306 37.1715C247.441 37.5337 247.634 37.8178 247.886 38.0238C248.142 38.2262 248.456 38.3274 248.829 38.3274Z" fill="#FEC00A"/>
<path d="M136.274 42.983H253.719V44.0057H136.274V42.983Z" fill="#FEC00A"/>
<rect x="18.5" y="392.5" width="355" height="45" rx="6.5" fill="white" stroke="#8D8D8D"/>
<path d="M33.838 420V409.091H40.1661V409.986H34.8341V414.093H39.8306V414.988H34.8341V419.105H40.2727V420H33.838ZM42.5472 420V411.818H43.4687V413.075H43.5539C43.7173 412.653 43.9889 412.321 44.3689 412.079C44.7524 411.834 45.2123 411.712 45.7485 411.712C46.3132 411.712 46.7766 411.845 47.1388 412.111C47.5046 412.374 47.778 412.736 47.9591 413.198H48.0284C48.213 412.743 48.5131 412.383 48.9286 412.116C49.3476 411.847 49.8554 411.712 50.452 411.712C51.212 411.712 51.8121 411.951 52.2524 412.431C52.6928 412.907 52.913 413.603 52.913 414.519V420H51.9648V414.519C51.9648 413.873 51.7997 413.388 51.4694 413.065C51.1392 412.741 50.7041 412.58 50.1644 412.58C49.5394 412.58 49.0582 412.772 48.7208 413.155C48.3835 413.539 48.2148 414.025 48.2148 414.615V420H47.2453V414.434C47.2453 413.88 47.0909 413.432 46.7819 413.091C46.473 412.75 46.038 412.58 45.4769 412.58C45.1005 412.58 44.7613 412.672 44.4595 412.857C44.1612 413.042 43.925 413.299 43.751 413.629C43.5806 413.956 43.4953 414.332 43.4953 414.759V420H42.5472ZM57.7083 420.186C57.2147 420.186 56.7637 420.091 56.3553 419.899C55.947 419.703 55.622 419.423 55.3805 419.057C55.1391 418.688 55.0183 418.24 55.0183 417.715C55.0183 417.31 55.0947 416.969 55.2474 416.692C55.4001 416.415 55.6167 416.188 55.8972 416.01C56.1778 415.833 56.5098 415.692 56.8933 415.589C57.2769 415.487 57.6994 415.407 58.1611 415.35C58.6192 415.293 59.0063 415.243 59.3223 415.201C59.6419 415.158 59.8852 415.091 60.0521 414.998C60.219 414.906 60.3024 414.757 60.3024 414.551V414.359C60.3024 413.801 60.1355 413.363 59.8017 413.043C59.4715 412.72 58.9956 412.559 58.3742 412.559C57.7847 412.559 57.3035 412.688 56.9306 412.947C56.5613 413.207 56.3021 413.512 56.1529 413.864L55.2527 413.539C55.4374 413.091 55.693 412.734 56.0198 412.468C56.3465 412.198 56.7122 412.005 57.1171 411.887C57.5219 411.767 57.932 411.706 58.3475 411.706C58.66 411.706 58.985 411.747 59.3223 411.829C59.6632 411.911 59.9793 412.053 60.2705 412.255C60.5617 412.454 60.7978 412.733 60.9789 413.091C61.16 413.446 61.2506 413.897 61.2506 414.444V420H60.3024V418.706H60.2438C60.1302 418.947 59.9615 419.181 59.7378 419.409C59.5141 419.636 59.2335 419.822 58.8962 419.968C58.5588 420.114 58.1629 420.186 57.7083 420.186ZM57.8362 419.318C58.3404 419.318 58.7772 419.206 59.1465 418.983C59.5158 418.759 59.7999 418.462 59.9988 418.093C60.2012 417.72 60.3024 417.31 60.3024 416.863V415.68C60.2314 415.748 60.1124 415.808 59.9455 415.861C59.7822 415.914 59.5922 415.962 59.3756 416.005C59.1625 416.044 58.9494 416.078 58.7364 416.106C58.5233 416.135 58.3315 416.159 58.1611 416.181C57.6994 416.238 57.3053 416.326 56.9786 416.447C56.6519 416.568 56.4015 416.735 56.2275 416.948C56.0535 417.157 55.9665 417.427 55.9665 417.757C55.9665 418.255 56.144 418.64 56.4992 418.913C56.8543 419.183 57.2999 419.318 57.8362 419.318ZM63.7834 420V411.818H64.7369V420H63.7834ZM64.2682 410.412C64.0728 410.412 63.9059 410.346 63.7674 410.215C63.629 410.08 63.5597 409.918 63.5597 409.73C63.5597 409.542 63.629 409.382 63.7674 409.251C63.9059 409.116 64.0728 409.048 64.2682 409.048C64.4635 409.048 64.6304 409.116 64.7689 409.251C64.9074 409.382 64.9766 409.542 64.9766 409.73C64.9766 409.918 64.9074 410.08 64.7689 410.215C64.6304 410.346 64.4635 410.412 64.2682 410.412ZM68.1926 409.091V420H67.2445V409.091H68.1926ZM77.2054 420.186C76.7118 420.186 76.2608 420.091 75.8524 419.899C75.444 419.703 75.1191 419.423 74.8776 419.057C74.6361 418.688 74.5154 418.24 74.5154 417.715C74.5154 417.31 74.5918 416.969 74.7445 416.692C74.8972 416.415 75.1138 416.188 75.3943 416.01C75.6748 415.833 76.0069 415.692 76.3904 415.589C76.7739 415.487 77.1965 415.407 77.6582 415.35C78.1163 415.293 78.5033 415.243 78.8194 415.201C79.139 415.158 79.3822 415.091 79.5491 414.998C79.716 414.906 79.7995 414.757 79.7995 414.551V414.359C79.7995 413.801 79.6326 413.363 79.2988 413.043C78.9685 412.72 78.4927 412.559 77.8712 412.559C77.2817 412.559 76.8006 412.688 76.4277 412.947C76.0584 413.207 75.7991 413.512 75.65 413.864L74.7498 413.539C74.9344 413.091 75.1901 412.734 75.5168 412.468C75.8435 412.198 76.2093 412.005 76.6141 411.887C77.019 411.767 77.4291 411.706 77.8446 411.706C78.1571 411.706 78.482 411.747 78.8194 411.829C79.1603 411.911 79.4763 412.053 79.7675 412.255C80.0587 412.454 80.2949 412.733 80.476 413.091C80.6571 413.446 80.7476 413.897 80.7476 414.444V420H79.7995V418.706H79.7409C79.6273 418.947 79.4586 419.181 79.2349 419.409C79.0111 419.636 78.7306 419.822 78.3932 419.968C78.0559 420.114 77.6599 420.186 77.2054 420.186ZM77.3332 419.318C77.8375 419.318 78.2743 419.206 78.6436 418.983C79.0129 418.759 79.297 418.462 79.4959 418.093C79.6983 417.72 79.7995 417.31 79.7995 416.863V415.68C79.7285 415.748 79.6095 415.808 79.4426 415.861C79.2793 415.914 79.0893 415.962 78.8726 416.005C78.6596 416.044 78.4465 416.078 78.2334 416.106C78.0204 416.135 77.8286 416.159 77.6582 416.181C77.1965 416.238 76.8023 416.326 76.4756 416.447C76.1489 416.568 75.8986 416.735 75.7246 416.948C75.5506 417.157 75.4636 417.427 75.4636 417.757C75.4636 418.255 75.6411 418.64 75.9962 418.913C76.3513 419.183 76.797 419.318 77.3332 419.318ZM86.2155 420.17C85.5443 420.17 84.9566 419.993 84.4524 419.638C83.9481 419.283 83.5539 418.787 83.2698 418.152C82.9893 417.516 82.849 416.776 82.849 415.93C82.849 415.089 82.9893 414.352 83.2698 413.72C83.5539 413.084 83.9499 412.591 84.4577 412.239C84.9655 411.884 85.5568 411.706 86.2315 411.706C86.7286 411.706 87.1424 411.795 87.4726 411.973C87.8029 412.147 88.0674 412.363 88.2663 412.623C88.4652 412.882 88.6196 413.134 88.7297 413.379H88.8149V409.091H89.7684V420H88.8416V418.482H88.7297C88.6196 418.73 88.4634 418.986 88.261 419.249C88.0585 419.508 87.7904 419.727 87.4566 419.904C87.1264 420.082 86.7127 420.17 86.2155 420.17ZM86.3274 419.302C86.8565 419.302 87.3075 419.158 87.6804 418.871C88.0532 418.58 88.3373 418.18 88.5326 417.672C88.7315 417.161 88.8309 416.575 88.8309 415.914C88.8309 415.261 88.7333 414.684 88.538 414.183C88.3426 413.679 88.0585 413.285 87.6857 413.001C87.3128 412.713 86.86 412.569 86.3274 412.569C85.7805 412.569 85.3188 412.718 84.9424 413.017C84.5696 413.311 84.2855 413.711 84.0902 414.215C83.8984 414.719 83.8025 415.286 83.8025 415.914C83.8025 416.55 83.9002 417.124 84.0955 417.635C84.2908 418.146 84.5749 418.553 84.9478 418.855C85.3242 419.153 85.784 419.302 86.3274 419.302ZM95.4147 420.17C94.7436 420.17 94.1559 419.993 93.6516 419.638C93.1473 419.283 92.7532 418.787 92.4691 418.152C92.1885 417.516 92.0483 416.776 92.0483 415.93C92.0483 415.089 92.1885 414.352 92.4691 413.72C92.7532 413.084 93.1491 412.591 93.6569 412.239C94.1647 411.884 94.756 411.706 95.4307 411.706C95.9279 411.706 96.3416 411.795 96.6718 411.973C97.0021 412.147 97.2666 412.363 97.4655 412.623C97.6644 412.882 97.8188 413.134 97.9289 413.379H98.0142V409.091H98.9676V420H98.0408V418.482H97.9289C97.8188 418.73 97.6626 418.986 97.4602 419.249C97.2578 419.508 96.9897 419.727 96.6559 419.904C96.3256 420.082 95.9119 420.17 95.4147 420.17ZM95.5266 419.302C96.0557 419.302 96.5067 419.158 96.8796 418.871C97.2524 418.58 97.5365 418.18 97.7318 417.672C97.9307 417.161 98.0301 416.575 98.0301 415.914C98.0301 415.261 97.9325 414.684 97.7372 414.183C97.5419 413.679 97.2578 413.285 96.8849 413.001C96.512 412.713 96.0593 412.569 95.5266 412.569C94.9797 412.569 94.5181 412.718 94.1416 413.017C93.7688 413.311 93.4847 413.711 93.2894 414.215C93.0976 414.719 93.0017 415.286 93.0017 415.914C93.0017 416.55 93.0994 417.124 93.2947 417.635C93.49 418.146 93.7741 418.553 94.147 418.855C94.5234 419.153 94.9833 419.302 95.5266 419.302ZM101.668 420V411.818H102.59V413.075H102.659C102.822 412.663 103.106 412.331 103.511 412.079C103.92 411.824 104.381 411.696 104.896 411.696C104.974 411.696 105.061 411.697 105.157 411.701C105.253 411.705 105.333 411.708 105.397 411.712V412.676C105.354 412.669 105.28 412.658 105.173 412.644C105.067 412.63 104.951 412.623 104.827 412.623C104.401 412.623 104.021 412.713 103.687 412.894C103.357 413.072 103.096 413.319 102.904 413.635C102.712 413.951 102.616 414.311 102.616 414.716V420H101.668ZM110.074 420.17C109.31 420.17 108.65 419.993 108.092 419.638C107.535 419.279 107.103 418.784 106.798 418.152C106.496 417.516 106.345 416.784 106.345 415.957C106.345 415.133 106.496 414.402 106.798 413.762C107.103 413.12 107.524 412.617 108.06 412.255C108.6 411.889 109.223 411.706 109.93 411.706C110.374 411.706 110.802 411.788 111.214 411.951C111.626 412.111 111.995 412.358 112.322 412.692C112.652 413.022 112.913 413.439 113.105 413.944C113.296 414.444 113.392 415.037 113.392 415.723V416.191H107V415.355H112.423C112.423 414.83 112.316 414.357 112.103 413.938C111.894 413.516 111.601 413.182 111.224 412.937C110.852 412.692 110.42 412.569 109.93 412.569C109.412 412.569 108.955 412.708 108.561 412.985C108.167 413.262 107.858 413.627 107.634 414.082C107.414 414.537 107.302 415.034 107.299 415.574V416.074C107.299 416.724 107.41 417.292 107.634 417.779C107.861 418.262 108.183 418.636 108.598 418.903C109.014 419.169 109.506 419.302 110.074 419.302C110.461 419.302 110.8 419.242 111.091 419.121C111.386 419 111.633 418.839 111.832 418.636C112.034 418.43 112.187 418.205 112.29 417.96L113.19 418.253C113.066 418.597 112.861 418.915 112.577 419.206C112.297 419.498 111.945 419.732 111.523 419.909C111.104 420.083 110.621 420.17 110.074 420.17ZM120.979 413.613L120.111 413.858C120.025 413.613 119.905 413.391 119.748 413.192C119.592 412.994 119.388 412.836 119.136 412.718C118.887 412.601 118.578 412.543 118.209 412.543C117.655 412.543 117.201 412.674 116.845 412.937C116.49 413.2 116.313 413.539 116.313 413.954C116.313 414.306 116.433 414.592 116.675 414.812C116.92 415.028 117.296 415.201 117.804 415.328L119.04 415.632C119.725 415.799 120.239 416.064 120.579 416.426C120.924 416.788 121.096 417.243 121.096 417.789C121.096 418.251 120.968 418.661 120.713 419.02C120.457 419.379 120.1 419.661 119.642 419.867C119.187 420.069 118.66 420.17 118.06 420.17C117.261 420.17 116.602 419.991 116.084 419.632C115.565 419.27 115.233 418.748 115.088 418.066L115.998 417.843C116.116 418.329 116.345 418.697 116.686 418.945C117.03 419.194 117.483 419.318 118.044 419.318C118.672 419.318 119.175 419.178 119.551 418.897C119.928 418.613 120.116 418.258 120.116 417.832C120.116 417.502 120.006 417.225 119.786 417.001C119.566 416.774 119.232 416.607 118.784 416.5L117.447 416.181C116.737 416.01 116.212 415.74 115.871 415.371C115.53 415.002 115.359 414.544 115.359 413.997C115.359 413.546 115.482 413.15 115.727 412.809C115.972 412.464 116.309 412.195 116.739 411.999C117.169 411.804 117.659 411.706 118.209 411.706C118.958 411.706 119.557 411.877 120.004 412.218C120.455 412.555 120.78 413.02 120.979 413.613ZM128.669 413.613L127.801 413.858C127.716 413.613 127.595 413.391 127.439 413.192C127.283 412.994 127.078 412.836 126.826 412.718C126.578 412.601 126.269 412.543 125.899 412.543C125.345 412.543 124.891 412.674 124.536 412.937C124.181 413.2 124.003 413.539 124.003 413.954C124.003 414.306 124.124 414.592 124.365 414.812C124.61 415.028 124.987 415.201 125.495 415.328L126.73 415.632C127.416 415.799 127.929 416.064 128.27 416.426C128.614 416.788 128.787 417.243 128.787 417.789C128.787 418.251 128.659 418.661 128.403 419.02C128.147 419.379 127.79 419.661 127.332 419.867C126.878 420.069 126.35 420.17 125.75 420.17C124.951 420.17 124.293 419.991 123.774 419.632C123.256 419.27 122.924 418.748 122.778 418.066L123.689 417.843C123.806 418.329 124.035 418.697 124.376 418.945C124.72 419.194 125.173 419.318 125.734 419.318C126.363 419.318 126.865 419.178 127.242 418.897C127.618 418.613 127.806 418.258 127.806 417.832C127.806 417.502 127.696 417.225 127.476 417.001C127.256 416.774 126.922 416.607 126.475 416.5L125.138 416.181C124.428 416.01 123.902 415.74 123.561 415.371C123.22 415.002 123.05 414.544 123.05 413.997C123.05 413.546 123.172 413.15 123.417 412.809C123.662 412.464 124 412.195 124.429 411.999C124.859 411.804 125.349 411.706 125.899 411.706C126.649 411.706 127.247 411.877 127.695 412.218C128.146 412.555 128.47 413.02 128.669 413.613Z" fill="#757575"/>
<path d="M342.616 422C342.155 422 341.771 421.846 341.463 421.538C341.155 421.23 341.001 420.845 341 420.384V409.616C341 409.155 341.154 408.771 341.463 408.463C341.772 408.155 342.156 408.001 342.615 408H357.385C357.845 408 358.229 408.154 358.537 408.463C358.845 408.772 358.999 409.156 359 409.616V420.385C359 420.845 358.846 421.229 358.537 421.538C358.228 421.847 357.844 422.001 357.385 422H342.616ZM350 415.116L358 409.885L357.692 409L350 414L342.308 409L342 409.885L350 415.116Z" fill="#757575"/>
<path d="M139.575 367V356.091H146.159V357.263H140.896V360.949H145.818V362.121H140.896V365.828H146.244V367H139.575ZM149.626 362.078V367H148.369V358.818H149.584V360.097H149.69C149.882 359.681 150.173 359.347 150.564 359.095C150.955 358.839 151.459 358.712 152.077 358.712C152.631 358.712 153.115 358.825 153.531 359.053C153.946 359.276 154.27 359.617 154.5 360.075C154.731 360.53 154.847 361.105 154.847 361.801V367H153.589V361.886C153.589 361.244 153.423 360.743 153.089 360.384C152.755 360.022 152.297 359.841 151.714 359.841C151.313 359.841 150.955 359.928 150.638 360.102C150.326 360.276 150.079 360.53 149.898 360.864C149.717 361.197 149.626 361.602 149.626 362.078ZM160.702 358.818V359.884H156.462V358.818H160.702ZM157.698 356.858H158.955V364.656C158.955 365.011 159.006 365.278 159.109 365.455C159.216 365.629 159.351 365.746 159.514 365.807C159.681 365.864 159.857 365.892 160.041 365.892C160.18 365.892 160.294 365.885 160.382 365.871C160.471 365.853 160.542 365.839 160.595 365.828L160.851 366.957C160.766 366.989 160.647 367.021 160.494 367.053C160.342 367.089 160.148 367.107 159.914 367.107C159.559 367.107 159.21 367.03 158.87 366.877C158.532 366.725 158.252 366.492 158.028 366.18C157.808 365.867 157.698 365.473 157.698 364.997V356.858ZM165.935 367.17C165.147 367.17 164.467 366.996 163.895 366.648C163.327 366.297 162.889 365.807 162.58 365.178C162.274 364.546 162.122 363.811 162.122 362.973C162.122 362.135 162.274 361.396 162.58 360.757C162.889 360.114 163.318 359.614 163.869 359.255C164.423 358.893 165.069 358.712 165.808 358.712C166.234 358.712 166.655 358.783 167.07 358.925C167.486 359.067 167.864 359.298 168.205 359.617C168.546 359.933 168.817 360.352 169.02 360.874C169.222 361.396 169.323 362.039 169.323 362.803V363.335H163.016V362.249H168.045C168.045 361.787 167.953 361.375 167.768 361.013C167.587 360.651 167.328 360.365 166.99 360.155C166.656 359.946 166.262 359.841 165.808 359.841C165.307 359.841 164.874 359.965 164.508 360.214C164.146 360.459 163.867 360.778 163.672 361.173C163.476 361.567 163.379 361.989 163.379 362.44V363.165C163.379 363.783 163.485 364.306 163.698 364.736C163.915 365.162 164.215 365.487 164.598 365.711C164.982 365.931 165.428 366.041 165.935 366.041C166.266 366.041 166.564 365.995 166.83 365.903C167.1 365.807 167.333 365.665 167.528 365.477C167.723 365.285 167.874 365.047 167.981 364.763L169.195 365.104C169.068 365.516 168.853 365.878 168.551 366.19C168.249 366.499 167.876 366.741 167.432 366.915C166.988 367.085 166.489 367.17 165.935 367.17ZM171.236 367V358.818H172.45V360.054H172.535C172.684 359.649 172.954 359.321 173.345 359.069C173.736 358.816 174.176 358.69 174.666 358.69C174.758 358.69 174.874 358.692 175.012 358.696C175.151 358.699 175.255 358.705 175.326 358.712V359.99C175.284 359.979 175.186 359.963 175.033 359.942C174.884 359.917 174.726 359.905 174.559 359.905C174.162 359.905 173.807 359.988 173.494 360.155C173.185 360.319 172.94 360.546 172.759 360.837C172.581 361.125 172.493 361.453 172.493 361.822V367H171.236ZM181.845 370.068C181.632 370.068 181.442 370.05 181.275 370.015C181.108 369.983 180.993 369.951 180.929 369.919L181.248 368.811C181.554 368.889 181.824 368.918 182.058 368.896C182.292 368.875 182.5 368.77 182.681 368.582C182.866 368.397 183.035 368.097 183.187 367.682L183.422 367.043L180.396 358.818H181.76L184.018 365.338H184.104L186.362 358.818H187.726L184.253 368.193C184.096 368.616 183.903 368.966 183.672 369.243C183.441 369.523 183.173 369.731 182.868 369.866C182.566 370.001 182.225 370.068 181.845 370.068ZM192.416 367.17C191.677 367.17 191.029 366.995 190.472 366.643C189.918 366.292 189.484 365.8 189.172 365.168C188.863 364.536 188.708 363.797 188.708 362.952C188.708 362.099 188.863 361.355 189.172 360.72C189.484 360.084 189.918 359.591 190.472 359.239C191.029 358.887 191.677 358.712 192.416 358.712C193.154 358.712 193.801 358.887 194.355 359.239C194.912 359.591 195.346 360.084 195.654 360.72C195.967 361.355 196.123 362.099 196.123 362.952C196.123 363.797 195.967 364.536 195.654 365.168C195.346 365.8 194.912 366.292 194.355 366.643C193.801 366.995 193.154 367.17 192.416 367.17ZM192.416 366.041C192.977 366.041 193.439 365.897 193.801 365.61C194.163 365.322 194.431 364.944 194.605 364.475C194.779 364.006 194.866 363.499 194.866 362.952C194.866 362.405 194.779 361.895 194.605 361.423C194.431 360.951 194.163 360.569 193.801 360.278C193.439 359.987 192.977 359.841 192.416 359.841C191.855 359.841 191.393 359.987 191.031 360.278C190.669 360.569 190.401 360.951 190.227 361.423C190.053 361.895 189.966 362.405 189.966 362.952C189.966 363.499 190.053 364.006 190.227 364.475C190.401 364.944 190.669 365.322 191.031 365.61C191.393 365.897 191.855 366.041 192.416 366.041ZM203.198 363.655V358.818H204.456V367H203.198V365.615H203.113C202.921 366.031 202.623 366.384 202.218 366.675C201.813 366.963 201.302 367.107 200.684 367.107C200.173 367.107 199.718 366.995 199.321 366.771C198.923 366.544 198.61 366.203 198.383 365.748C198.156 365.29 198.042 364.713 198.042 364.017V358.818H199.299V363.932C199.299 364.528 199.466 365.004 199.8 365.359C200.137 365.714 200.567 365.892 201.089 365.892C201.402 365.892 201.719 365.812 202.043 365.652C202.369 365.493 202.643 365.248 202.863 364.917C203.087 364.587 203.198 364.166 203.198 363.655ZM206.758 367V358.818H207.972V360.054H208.058C208.207 359.649 208.477 359.321 208.867 359.069C209.258 358.816 209.698 358.69 210.188 358.69C210.281 358.69 210.396 358.692 210.535 358.696C210.673 358.699 210.778 358.705 210.849 358.712V359.99C210.806 359.979 210.709 359.963 210.556 359.942C210.407 359.917 210.249 359.905 210.082 359.905C209.684 359.905 209.329 359.988 209.017 360.155C208.708 360.319 208.463 360.546 208.281 360.837C208.104 361.125 208.015 361.453 208.015 361.822V367H206.758ZM219.988 367.17C219.2 367.17 218.52 366.996 217.948 366.648C217.38 366.297 216.941 365.807 216.632 365.178C216.327 364.546 216.174 363.811 216.174 362.973C216.174 362.135 216.327 361.396 216.632 360.757C216.941 360.114 217.371 359.614 217.921 359.255C218.475 358.893 219.122 358.712 219.86 358.712C220.286 358.712 220.707 358.783 221.123 358.925C221.538 359.067 221.916 359.298 222.257 359.617C222.598 359.933 222.87 360.352 223.072 360.874C223.275 361.396 223.376 362.039 223.376 362.803V363.335H217.069V362.249H222.098C222.098 361.787 222.005 361.375 221.821 361.013C221.639 360.651 221.38 360.365 221.043 360.155C220.709 359.946 220.315 359.841 219.86 359.841C219.36 359.841 218.926 359.965 218.561 360.214C218.198 360.459 217.92 360.778 217.724 361.173C217.529 361.567 217.431 361.989 217.431 362.44V363.165C217.431 363.783 217.538 364.306 217.751 364.736C217.968 365.162 218.268 365.487 218.651 365.711C219.035 365.931 219.48 366.041 219.988 366.041C220.318 366.041 220.617 365.995 220.883 365.903C221.153 365.807 221.386 365.665 221.581 365.477C221.776 365.285 221.927 365.047 222.034 364.763L223.248 365.104C223.12 365.516 222.905 365.878 222.604 366.19C222.302 366.499 221.929 366.741 221.485 366.915C221.041 367.085 220.542 367.17 219.988 367.17ZM225.288 367V358.818H226.503V360.097H226.609C226.78 359.66 227.055 359.321 227.435 359.079C227.815 358.834 228.271 358.712 228.804 358.712C229.344 358.712 229.793 358.834 230.152 359.079C230.514 359.321 230.796 359.66 230.998 360.097H231.084C231.293 359.674 231.608 359.338 232.027 359.09C232.446 358.838 232.948 358.712 233.534 358.712C234.266 358.712 234.864 358.941 235.329 359.399C235.794 359.853 236.027 360.562 236.027 361.524V367H234.77V361.524C234.77 360.92 234.605 360.489 234.274 360.23C233.944 359.971 233.555 359.841 233.108 359.841C232.533 359.841 232.087 360.015 231.771 360.363C231.455 360.707 231.297 361.144 231.297 361.673V367H230.018V361.396C230.018 360.931 229.867 360.556 229.566 360.272C229.264 359.985 228.875 359.841 228.399 359.841C228.072 359.841 227.767 359.928 227.483 360.102C227.202 360.276 226.975 360.517 226.801 360.826C226.631 361.132 226.545 361.485 226.545 361.886V367H225.288ZM240.733 367.192C240.215 367.192 239.744 367.094 239.321 366.899C238.899 366.7 238.563 366.414 238.315 366.041C238.066 365.665 237.942 365.21 237.942 364.678C237.942 364.209 238.034 363.829 238.219 363.538C238.403 363.243 238.65 363.012 238.959 362.845C239.268 362.678 239.609 362.554 239.982 362.472C240.358 362.387 240.737 362.32 241.117 362.27C241.614 362.206 242.017 362.158 242.326 362.126C242.638 362.091 242.866 362.032 243.008 361.95C243.153 361.869 243.226 361.727 243.226 361.524V361.482C243.226 360.956 243.082 360.548 242.794 360.256C242.51 359.965 242.079 359.82 241.5 359.82C240.9 359.82 240.429 359.951 240.089 360.214C239.748 360.477 239.508 360.757 239.369 361.055L238.176 360.629C238.389 360.132 238.673 359.745 239.028 359.468C239.387 359.187 239.778 358.992 240.2 358.882C240.627 358.768 241.046 358.712 241.457 358.712C241.72 358.712 242.022 358.744 242.363 358.808C242.707 358.868 243.04 358.994 243.359 359.186C243.682 359.377 243.95 359.667 244.163 360.054C244.377 360.441 244.483 360.96 244.483 361.609V367H243.226V365.892H243.162C243.077 366.07 242.935 366.26 242.736 366.462C242.537 366.664 242.272 366.837 241.942 366.979C241.612 367.121 241.209 367.192 240.733 367.192ZM240.925 366.062C241.422 366.062 241.841 365.965 242.182 365.77C242.526 365.574 242.786 365.322 242.96 365.013C243.137 364.704 243.226 364.379 243.226 364.038V362.888C243.173 362.952 243.055 363.01 242.874 363.064C242.697 363.113 242.491 363.158 242.256 363.197C242.026 363.232 241.8 363.264 241.58 363.293C241.363 363.317 241.188 363.339 241.053 363.357C240.726 363.399 240.421 363.468 240.136 363.564C239.856 363.657 239.629 363.797 239.455 363.985C239.284 364.17 239.199 364.422 239.199 364.741C239.199 365.178 239.361 365.509 239.684 365.732C240.01 365.952 240.424 366.062 240.925 366.062ZM246.778 367V358.818H248.035V367H246.778ZM247.417 357.455C247.172 357.455 246.96 357.371 246.783 357.204C246.609 357.037 246.522 356.837 246.522 356.602C246.522 356.368 246.609 356.167 246.783 356C246.96 355.833 247.172 355.75 247.417 355.75C247.662 355.75 247.871 355.833 248.045 356C248.223 356.167 248.312 356.368 248.312 356.602C248.312 356.837 248.223 357.037 248.045 357.204C247.871 357.371 247.662 357.455 247.417 357.455ZM251.594 356.091V367H250.337V356.091H251.594Z" fill="black"/>
<rect x="17.5" y="459.5" width="355" height="39" rx="7.5" fill="#FEC00A" stroke="#FEC00A"/>
<path d="M138.495 484V473.091H142.586C143.424 473.091 144.127 473.237 144.695 473.528C145.267 473.819 145.698 474.227 145.99 474.753C146.284 475.275 146.432 475.884 146.432 476.58C146.432 477.279 146.283 477.887 145.984 478.402C145.69 478.913 145.255 479.309 144.679 479.589C144.104 479.866 143.397 480.005 142.559 480.005H139.646V478.364H142.293C142.783 478.364 143.184 478.297 143.497 478.162C143.809 478.023 144.04 477.823 144.189 477.56C144.342 477.294 144.418 476.967 144.418 476.58C144.418 476.193 144.342 475.863 144.189 475.589C144.036 475.312 143.804 475.103 143.491 474.961C143.179 474.815 142.776 474.742 142.282 474.742H140.471V484H138.495ZM144.131 479.057L146.831 484H144.626L141.973 479.057H144.131ZM151.671 484.16C150.85 484.16 150.142 483.989 149.545 483.648C148.952 483.304 148.496 482.817 148.176 482.189C147.857 481.557 147.697 480.813 147.697 479.957C147.697 479.115 147.857 478.377 148.176 477.741C148.499 477.102 148.95 476.605 149.529 476.25C150.108 475.891 150.788 475.712 151.569 475.712C152.074 475.712 152.549 475.793 152.997 475.957C153.448 476.116 153.846 476.365 154.19 476.702C154.538 477.04 154.812 477.469 155.01 477.991C155.209 478.51 155.309 479.128 155.309 479.845V480.436H148.602V479.137H153.46C153.457 478.767 153.377 478.439 153.221 478.151C153.064 477.86 152.846 477.631 152.565 477.464C152.288 477.297 151.965 477.214 151.596 477.214C151.202 477.214 150.856 477.31 150.557 477.501C150.259 477.69 150.026 477.938 149.859 478.247C149.696 478.553 149.613 478.888 149.609 479.254V480.388C149.609 480.864 149.696 481.273 149.87 481.614C150.044 481.951 150.287 482.21 150.6 482.391C150.912 482.569 151.278 482.658 151.697 482.658C151.978 482.658 152.232 482.619 152.459 482.54C152.686 482.459 152.883 482.34 153.05 482.184C153.217 482.027 153.343 481.834 153.428 481.603L155.229 481.805C155.115 482.281 154.899 482.697 154.579 483.052C154.263 483.403 153.858 483.677 153.364 483.872C152.871 484.064 152.306 484.16 151.671 484.16ZM163.407 477.981L161.649 478.173C161.599 477.995 161.512 477.828 161.388 477.672C161.267 477.516 161.104 477.39 160.898 477.294C160.692 477.198 160.44 477.15 160.141 477.15C159.74 477.15 159.403 477.237 159.129 477.411C158.859 477.585 158.726 477.81 158.73 478.087C158.726 478.325 158.813 478.519 158.991 478.668C159.172 478.817 159.47 478.94 159.886 479.036L161.281 479.334C162.055 479.501 162.631 479.765 163.007 480.127C163.387 480.49 163.579 480.964 163.582 481.55C163.579 482.065 163.428 482.519 163.13 482.913C162.835 483.304 162.425 483.609 161.899 483.83C161.374 484.05 160.77 484.16 160.088 484.16C159.087 484.16 158.281 483.95 157.67 483.531C157.059 483.109 156.695 482.521 156.578 481.768L158.458 481.587C158.543 481.956 158.724 482.235 159.001 482.423C159.278 482.612 159.639 482.706 160.083 482.706C160.541 482.706 160.908 482.612 161.185 482.423C161.466 482.235 161.606 482.002 161.606 481.725C161.606 481.491 161.516 481.298 161.335 481.145C161.157 480.992 160.88 480.875 160.504 480.793L159.108 480.5C158.323 480.337 157.743 480.062 157.366 479.675C156.99 479.284 156.803 478.79 156.807 478.194C156.803 477.69 156.94 477.253 157.217 476.884C157.498 476.511 157.886 476.223 158.384 476.021C158.884 475.815 159.461 475.712 160.115 475.712C161.074 475.712 161.828 475.916 162.379 476.324C162.933 476.733 163.275 477.285 163.407 477.981ZM168.795 484.16C167.974 484.16 167.266 483.989 166.669 483.648C166.076 483.304 165.62 482.817 165.3 482.189C164.981 481.557 164.821 480.813 164.821 479.957C164.821 479.115 164.981 478.377 165.3 477.741C165.623 477.102 166.074 476.605 166.653 476.25C167.232 475.891 167.912 475.712 168.693 475.712C169.198 475.712 169.673 475.793 170.121 475.957C170.572 476.116 170.97 476.365 171.314 476.702C171.662 477.04 171.936 477.469 172.134 477.991C172.333 478.51 172.433 479.128 172.433 479.845V480.436H165.726V479.137H170.584C170.581 478.767 170.501 478.439 170.345 478.151C170.188 477.86 169.97 477.631 169.689 477.464C169.412 477.297 169.089 477.214 168.72 477.214C168.326 477.214 167.98 477.31 167.681 477.501C167.383 477.69 167.15 477.938 166.983 478.247C166.82 478.553 166.737 478.888 166.733 479.254V480.388C166.733 480.864 166.82 481.273 166.994 481.614C167.168 481.951 167.411 482.21 167.724 482.391C168.036 482.569 168.402 482.658 168.821 482.658C169.102 482.658 169.356 482.619 169.583 482.54C169.81 482.459 170.007 482.34 170.174 482.184C170.341 482.027 170.467 481.834 170.552 481.603L172.353 481.805C172.239 482.281 172.023 482.697 171.703 483.052C171.387 483.403 170.982 483.677 170.488 483.872C169.995 484.064 169.43 484.16 168.795 484.16ZM178.15 475.818V477.31H173.446V475.818H178.15ZM174.607 473.858H176.536V481.539C176.536 481.798 176.575 481.997 176.653 482.136C176.734 482.271 176.841 482.363 176.972 482.413C177.104 482.462 177.249 482.487 177.409 482.487C177.53 482.487 177.64 482.478 177.739 482.461C177.842 482.443 177.921 482.427 177.974 482.413L178.299 483.92C178.196 483.956 178.048 483.995 177.857 484.037C177.668 484.08 177.438 484.105 177.164 484.112C176.681 484.126 176.246 484.053 175.859 483.893C175.472 483.73 175.165 483.478 174.938 483.137C174.714 482.796 174.604 482.37 174.607 481.859V473.858ZM183.568 484V473.091H187.659C188.497 473.091 189.2 473.247 189.768 473.56C190.34 473.872 190.772 474.302 191.063 474.849C191.358 475.392 191.505 476.01 191.505 476.702C191.505 477.402 191.358 478.023 191.063 478.567C190.768 479.11 190.333 479.538 189.758 479.85C189.183 480.159 188.474 480.314 187.632 480.314H184.921V478.689H187.366C187.856 478.689 188.257 478.604 188.57 478.434C188.882 478.263 189.113 478.029 189.262 477.73C189.415 477.432 189.491 477.089 189.491 476.702C189.491 476.315 189.415 475.974 189.262 475.68C189.113 475.385 188.881 475.156 188.565 474.993C188.252 474.826 187.849 474.742 187.355 474.742H185.544V484H183.568ZM195.344 484.165C194.826 484.165 194.359 484.073 193.943 483.888C193.531 483.7 193.205 483.423 192.963 483.057C192.725 482.691 192.606 482.24 192.606 481.704C192.606 481.243 192.691 480.861 192.862 480.559C193.032 480.257 193.265 480.016 193.56 479.835C193.854 479.653 194.187 479.517 194.556 479.424C194.929 479.328 195.314 479.259 195.712 479.217C196.191 479.167 196.58 479.123 196.878 479.083C197.177 479.041 197.393 478.977 197.528 478.892C197.667 478.803 197.736 478.666 197.736 478.482V478.45C197.736 478.048 197.617 477.738 197.379 477.517C197.141 477.297 196.798 477.187 196.351 477.187C195.879 477.187 195.504 477.29 195.227 477.496C194.954 477.702 194.769 477.945 194.673 478.226L192.873 477.97C193.015 477.473 193.249 477.058 193.576 476.724C193.902 476.386 194.302 476.134 194.774 475.967C195.247 475.797 195.769 475.712 196.34 475.712C196.734 475.712 197.127 475.758 197.517 475.85C197.908 475.942 198.265 476.095 198.588 476.308C198.911 476.518 199.171 476.804 199.366 477.166C199.565 477.528 199.664 477.981 199.664 478.524V484H197.81V482.876H197.747C197.629 483.103 197.464 483.316 197.251 483.515C197.042 483.711 196.777 483.869 196.457 483.989C196.141 484.107 195.77 484.165 195.344 484.165ZM195.845 482.748C196.232 482.748 196.568 482.672 196.852 482.519C197.136 482.363 197.354 482.157 197.507 481.901C197.663 481.646 197.741 481.367 197.741 481.065V480.101C197.681 480.151 197.578 480.197 197.432 480.239C197.29 480.282 197.13 480.319 196.953 480.351C196.775 480.383 196.6 480.412 196.426 480.436C196.252 480.461 196.101 480.483 195.973 480.5C195.685 480.539 195.428 480.603 195.2 480.692C194.973 480.781 194.794 480.905 194.662 481.065C194.531 481.221 194.465 481.424 194.465 481.672C194.465 482.027 194.595 482.295 194.854 482.477C195.113 482.658 195.444 482.748 195.845 482.748ZM208.07 477.981L206.312 478.173C206.262 477.995 206.175 477.828 206.051 477.672C205.93 477.516 205.767 477.39 205.561 477.294C205.355 477.198 205.103 477.15 204.804 477.15C204.403 477.15 204.066 477.237 203.792 477.411C203.522 477.585 203.389 477.81 203.393 478.087C203.389 478.325 203.476 478.519 203.654 478.668C203.835 478.817 204.133 478.94 204.549 479.036L205.944 479.334C206.718 479.501 207.294 479.765 207.67 480.127C208.05 480.49 208.242 480.964 208.245 481.55C208.242 482.065 208.091 482.519 207.793 482.913C207.498 483.304 207.088 483.609 206.562 483.83C206.037 484.05 205.433 484.16 204.751 484.16C203.75 484.16 202.944 483.95 202.333 483.531C201.722 483.109 201.358 482.521 201.241 481.768L203.121 481.587C203.206 481.956 203.388 482.235 203.665 482.423C203.941 482.612 204.302 482.706 204.746 482.706C205.204 482.706 205.571 482.612 205.848 482.423C206.129 482.235 206.269 482.002 206.269 481.725C206.269 481.491 206.179 481.298 205.998 481.145C205.82 480.992 205.543 480.875 205.167 480.793L203.771 480.5C202.986 480.337 202.406 480.062 202.029 479.675C201.653 479.284 201.466 478.79 201.47 478.194C201.466 477.69 201.603 477.253 201.88 476.884C202.161 476.511 202.549 476.223 203.047 476.021C203.547 475.815 204.124 475.712 204.778 475.712C205.737 475.712 206.491 475.916 207.042 476.324C207.596 476.733 207.938 477.285 208.07 477.981ZM216.302 477.981L214.544 478.173C214.495 477.995 214.408 477.828 214.283 477.672C214.163 477.516 213.999 477.39 213.793 477.294C213.587 477.198 213.335 477.15 213.037 477.15C212.636 477.15 212.298 477.237 212.025 477.411C211.755 477.585 211.622 477.81 211.625 478.087C211.622 478.325 211.709 478.519 211.886 478.668C212.067 478.817 212.366 478.94 212.781 479.036L214.177 479.334C214.951 479.501 215.526 479.765 215.903 480.127C216.283 480.49 216.474 480.964 216.478 481.55C216.474 482.065 216.323 482.519 216.025 482.913C215.73 483.304 215.32 483.609 214.795 483.83C214.269 484.05 213.665 484.16 212.984 484.16C211.982 484.16 211.176 483.95 210.565 483.531C209.954 483.109 209.59 482.521 209.473 481.768L211.354 481.587C211.439 481.956 211.62 482.235 211.897 482.423C212.174 482.612 212.534 482.706 212.978 482.706C213.436 482.706 213.804 482.612 214.081 482.423C214.361 482.235 214.502 482.002 214.502 481.725C214.502 481.491 214.411 481.298 214.23 481.145C214.052 480.992 213.775 480.875 213.399 480.793L212.003 480.5C211.219 480.337 210.638 480.062 210.262 479.675C209.885 479.284 209.699 478.79 209.702 478.194C209.699 477.69 209.835 477.253 210.112 476.884C210.393 476.511 210.782 476.223 211.279 476.021C211.78 475.815 212.357 475.712 213.01 475.712C213.969 475.712 214.724 475.916 215.274 476.324C215.828 476.733 216.171 477.285 216.302 477.981ZM219.756 484L217.445 475.818H219.41L220.848 481.571H220.923L222.393 475.818H224.337L225.808 481.539H225.888L227.304 475.818H229.275L226.958 484H224.95L223.416 478.471H223.304L221.77 484H219.756ZM233.956 484.16C233.157 484.16 232.465 483.984 231.879 483.632C231.293 483.281 230.838 482.789 230.515 482.157C230.195 481.525 230.036 480.786 230.036 479.941C230.036 479.096 230.195 478.355 230.515 477.72C230.838 477.084 231.293 476.591 231.879 476.239C232.465 475.887 233.157 475.712 233.956 475.712C234.755 475.712 235.448 475.887 236.034 476.239C236.619 476.591 237.072 477.084 237.392 477.72C237.715 478.355 237.877 479.096 237.877 479.941C237.877 480.786 237.715 481.525 237.392 482.157C237.072 482.789 236.619 483.281 236.034 483.632C235.448 483.984 234.755 484.16 233.956 484.16ZM233.967 482.615C234.4 482.615 234.762 482.496 235.053 482.258C235.345 482.017 235.561 481.694 235.703 481.289C235.849 480.884 235.922 480.433 235.922 479.936C235.922 479.435 235.849 478.982 235.703 478.577C235.561 478.169 235.345 477.844 235.053 477.603C234.762 477.361 234.4 477.24 233.967 477.24C233.523 477.24 233.154 477.361 232.859 477.603C232.568 477.844 232.349 478.169 232.204 478.577C232.062 478.982 231.991 479.435 231.991 479.936C231.991 480.433 232.062 480.884 232.204 481.289C232.349 481.694 232.568 482.017 232.859 482.258C233.154 482.496 233.523 482.615 233.967 482.615ZM239.513 484V475.818H241.383V477.182H241.468C241.617 476.71 241.873 476.346 242.235 476.09C242.601 475.831 243.018 475.701 243.487 475.701C243.593 475.701 243.712 475.706 243.844 475.717C243.979 475.724 244.091 475.737 244.179 475.754V477.528C244.098 477.5 243.968 477.475 243.791 477.453C243.617 477.429 243.448 477.416 243.285 477.416C242.933 477.416 242.617 477.493 242.336 477.645C242.059 477.794 241.841 478.002 241.681 478.268C241.521 478.535 241.441 478.842 241.441 479.19V484H239.513ZM248.16 484.144C247.517 484.144 246.942 483.979 246.434 483.648C245.926 483.318 245.525 482.839 245.23 482.21C244.935 481.582 244.788 480.818 244.788 479.92C244.788 479.011 244.937 478.244 245.235 477.619C245.537 476.99 245.944 476.516 246.455 476.196C246.967 475.873 247.537 475.712 248.165 475.712C248.645 475.712 249.039 475.793 249.348 475.957C249.657 476.116 249.902 476.31 250.083 476.537C250.264 476.761 250.404 476.972 250.504 477.171H250.583V473.091H252.517V484H250.621V482.711H250.504C250.404 482.91 250.26 483.121 250.072 483.345C249.884 483.565 249.635 483.753 249.326 483.909C249.017 484.066 248.629 484.144 248.16 484.144ZM248.698 482.562C249.106 482.562 249.454 482.452 249.742 482.232C250.029 482.008 250.248 481.697 250.397 481.299C250.546 480.902 250.621 480.438 250.621 479.909C250.621 479.38 250.546 478.92 250.397 478.529C250.251 478.139 250.035 477.835 249.747 477.619C249.463 477.402 249.113 477.294 248.698 477.294C248.268 477.294 247.909 477.406 247.622 477.629C247.334 477.853 247.118 478.162 246.972 478.556C246.826 478.95 246.754 479.401 246.754 479.909C246.754 480.42 246.826 480.877 246.972 481.278C247.121 481.676 247.339 481.99 247.627 482.221C247.918 482.448 248.275 482.562 248.698 482.562Z" fill="white"/>
</svg>
