<svg width="1363" height="163" viewBox="0 0 1363 163" fill="none" xmlns="http://www.w3.org/2000/svg">
<path d="M0 15C0 6.71573 6.71573 0 15 0H37V163H15C6.71573 163 0 156.284 0 148V15Z" fill="#424242"/>
<rect width="1097" height="163" transform="translate(37)" fill="#F0F0F0"/>
<path d="M101.906 53.9219L94.3945 51.2383V48.0859L104.602 52.375V54.6367L101.906 53.9219ZM94.3945 56.1719L101.918 53.4297L104.602 52.7852V55.0352L94.3945 59.3242V56.1719ZM119.543 54.918H115.195V52.1758H119.543C120.215 52.1758 120.762 52.0664 121.184 51.8477C121.605 51.6211 121.914 51.3086 122.109 50.9102C122.305 50.5117 122.402 50.0625 122.402 49.5625C122.402 49.0547 122.305 48.582 122.109 48.1445C121.914 47.707 121.605 47.3555 121.184 47.0898C120.762 46.8242 120.215 46.6914 119.543 46.6914H116.414V61H112.898V43.9375H119.543C120.879 43.9375 122.023 44.1797 122.977 44.6641C123.938 45.1406 124.672 45.8008 125.18 46.6445C125.688 47.4883 125.941 48.4531 125.941 49.5391C125.941 50.6406 125.688 51.5938 125.18 52.3984C124.672 53.2031 123.938 53.8242 122.977 54.2617C122.023 54.6992 120.879 54.918 119.543 54.918ZM131.531 51.0859V61H128.156V48.3203H131.332L131.531 51.0859ZM135.352 48.2383L135.293 51.3672C135.129 51.3438 134.93 51.3242 134.695 51.3086C134.469 51.2852 134.262 51.2734 134.074 51.2734C133.598 51.2734 133.184 51.3359 132.832 51.4609C132.488 51.5781 132.199 51.7539 131.965 51.9883C131.738 52.2227 131.566 52.5078 131.449 52.8438C131.34 53.1797 131.277 53.5625 131.262 53.9922L130.582 53.7812C130.582 52.9609 130.664 52.207 130.828 51.5195C130.992 50.8242 131.23 50.2188 131.543 49.7031C131.863 49.1875 132.254 48.7891 132.715 48.5078C133.176 48.2266 133.703 48.0859 134.297 48.0859C134.484 48.0859 134.676 48.1016 134.871 48.1328C135.066 48.1562 135.227 48.1914 135.352 48.2383ZM136.055 54.7891V54.543C136.055 53.6133 136.188 52.7578 136.453 51.9766C136.719 51.1875 137.105 50.5039 137.613 49.9258C138.121 49.3477 138.746 48.8984 139.488 48.5781C140.23 48.25 141.082 48.0859 142.043 48.0859C143.004 48.0859 143.859 48.25 144.609 48.5781C145.359 48.8984 145.988 49.3477 146.496 49.9258C147.012 50.5039 147.402 51.1875 147.668 51.9766C147.934 52.7578 148.066 53.6133 148.066 54.543V54.7891C148.066 55.7109 147.934 56.5664 147.668 57.3555C147.402 58.1367 147.012 58.8203 146.496 59.4062C145.988 59.9844 145.363 60.4336 144.621 60.7539C143.879 61.0742 143.027 61.2344 142.066 61.2344C141.105 61.2344 140.25 61.0742 139.5 60.7539C138.758 60.4336 138.129 59.9844 137.613 59.4062C137.105 58.8203 136.719 58.1367 136.453 57.3555C136.188 56.5664 136.055 55.7109 136.055 54.7891ZM139.43 54.543V54.7891C139.43 55.3203 139.477 55.8164 139.57 56.2773C139.664 56.7383 139.812 57.1445 140.016 57.4961C140.227 57.8398 140.5 58.1094 140.836 58.3047C141.172 58.5 141.582 58.5977 142.066 58.5977C142.535 58.5977 142.938 58.5 143.273 58.3047C143.609 58.1094 143.879 57.8398 144.082 57.4961C144.285 57.1445 144.434 56.7383 144.527 56.2773C144.629 55.8164 144.68 55.3203 144.68 54.7891V54.543C144.68 54.0273 144.629 53.543 144.527 53.0898C144.434 52.6289 144.281 52.2227 144.07 51.8711C143.867 51.5117 143.598 51.2305 143.262 51.0273C142.926 50.8242 142.52 50.7227 142.043 50.7227C141.566 50.7227 141.16 50.8242 140.824 51.0273C140.496 51.2305 140.227 51.5117 140.016 51.8711C139.812 52.2227 139.664 52.6289 139.57 53.0898C139.477 53.543 139.43 54.0273 139.43 54.543ZM150.328 48.3203H153.715V61.7617C153.715 62.6992 153.543 63.4922 153.199 64.1406C152.855 64.7891 152.359 65.2812 151.711 65.6172C151.062 65.9531 150.277 66.1211 149.355 66.1211C149.066 66.1211 148.785 66.1055 148.512 66.0742C148.23 66.043 147.941 65.9922 147.645 65.9219L147.656 63.332C147.844 63.3633 148.027 63.3867 148.207 63.4023C148.379 63.4258 148.555 63.4375 148.734 63.4375C149.086 63.4375 149.379 63.3789 149.613 63.2617C149.848 63.1445 150.023 62.9609 150.141 62.7109C150.266 62.4688 150.328 62.1523 150.328 61.7617V48.3203ZM150.059 45.0156C150.059 44.5234 150.23 44.1172 150.574 43.7969C150.926 43.4766 151.387 43.3164 151.957 43.3164C152.535 43.3164 152.996 43.4766 153.34 43.7969C153.684 44.1172 153.855 44.5234 153.855 45.0156C153.855 45.5078 153.684 45.9141 153.34 46.2344C152.996 46.5547 152.535 46.7148 151.957 46.7148C151.387 46.7148 150.926 46.5547 150.574 46.2344C150.23 45.9141 150.059 45.5078 150.059 45.0156ZM162.234 61.2344C161.25 61.2344 160.367 61.0781 159.586 60.7656C158.805 60.4453 158.141 60.0039 157.594 59.4414C157.055 58.8789 156.641 58.2266 156.352 57.4844C156.062 56.7344 155.918 55.9375 155.918 55.0938V54.625C155.918 53.6641 156.055 52.7852 156.328 51.9883C156.602 51.1914 156.992 50.5 157.5 49.9141C158.016 49.3281 158.641 48.8789 159.375 48.5664C160.109 48.2461 160.938 48.0859 161.859 48.0859C162.758 48.0859 163.555 48.2344 164.25 48.5312C164.945 48.8281 165.527 49.25 165.996 49.7969C166.473 50.3438 166.832 51 167.074 51.7656C167.316 52.5234 167.438 53.3672 167.438 54.2969V55.7031H157.359V53.4531H164.121V53.1953C164.121 52.7266 164.035 52.3086 163.863 51.9414C163.699 51.5664 163.449 51.2695 163.113 51.0508C162.777 50.832 162.348 50.7227 161.824 50.7227C161.379 50.7227 160.996 50.8203 160.676 51.0156C160.355 51.2109 160.094 51.4844 159.891 51.8359C159.695 52.1875 159.547 52.6016 159.445 53.0781C159.352 53.5469 159.305 54.0625 159.305 54.625V55.0938C159.305 55.6016 159.375 56.0703 159.516 56.5C159.664 56.9297 159.871 57.3008 160.137 57.6133C160.41 57.9258 160.738 58.168 161.121 58.3398C161.512 58.5117 161.953 58.5977 162.445 58.5977C163.055 58.5977 163.621 58.4805 164.145 58.2461C164.676 58.0039 165.133 57.6406 165.516 57.1562L167.156 58.9375C166.891 59.3203 166.527 59.6875 166.066 60.0391C165.613 60.3906 165.066 60.6797 164.426 60.9062C163.785 61.125 163.055 61.2344 162.234 61.2344ZM174.598 58.5977C175.012 58.5977 175.379 58.5195 175.699 58.3633C176.02 58.1992 176.27 57.9727 176.449 57.6836C176.637 57.3867 176.734 57.0391 176.742 56.6406H179.918C179.91 57.5312 179.672 58.3242 179.203 59.0195C178.734 59.707 178.105 60.25 177.316 60.6484C176.527 61.0391 175.645 61.2344 174.668 61.2344C173.684 61.2344 172.824 61.0703 172.09 60.7422C171.363 60.4141 170.758 59.9609 170.273 59.3828C169.789 58.7969 169.426 58.1172 169.184 57.3438C168.941 56.5625 168.82 55.7266 168.82 54.8359V54.4961C168.82 53.5977 168.941 52.7617 169.184 51.9883C169.426 51.207 169.789 50.5273 170.273 49.9492C170.758 49.3633 171.363 48.9062 172.09 48.5781C172.816 48.25 173.668 48.0859 174.645 48.0859C175.684 48.0859 176.594 48.2852 177.375 48.6836C178.164 49.082 178.781 49.6523 179.227 50.3945C179.68 51.1289 179.91 52 179.918 53.0078H176.742C176.734 52.5859 176.645 52.2031 176.473 51.8594C176.309 51.5156 176.066 51.2422 175.746 51.0391C175.434 50.8281 175.047 50.7227 174.586 50.7227C174.094 50.7227 173.691 50.8281 173.379 51.0391C173.066 51.2422 172.824 51.5234 172.652 51.8828C172.48 52.2344 172.359 52.6367 172.289 53.0898C172.227 53.5352 172.195 54.0039 172.195 54.4961V54.8359C172.195 55.3281 172.227 55.8008 172.289 56.2539C172.352 56.707 172.469 57.1094 172.641 57.4609C172.82 57.8125 173.066 58.0898 173.379 58.293C173.691 58.4961 174.098 58.5977 174.598 58.5977ZM188.086 48.3203V50.7109H180.703V48.3203H188.086ZM182.531 45.1914H185.906V57.1797C185.906 57.5469 185.953 57.8281 186.047 58.0234C186.148 58.2188 186.297 58.3555 186.492 58.4336C186.688 58.5039 186.934 58.5391 187.23 58.5391C187.441 58.5391 187.629 58.5312 187.793 58.5156C187.965 58.4922 188.109 58.4688 188.227 58.4453L188.238 60.9297C187.949 61.0234 187.637 61.0977 187.301 61.1523C186.965 61.207 186.594 61.2344 186.188 61.2344C185.445 61.2344 184.797 61.1133 184.242 60.8711C183.695 60.6211 183.273 60.2227 182.977 59.6758C182.68 59.1289 182.531 58.4102 182.531 57.5195V45.1914ZM203.191 43.9375V61H199.688V43.9375H203.191ZM208.441 43.9375V46.6914H194.52V43.9375H208.441ZM213.797 48.3203V61H210.41V48.3203H213.797ZM210.199 45.0156C210.199 44.5234 210.371 44.1172 210.715 43.7969C211.059 43.4766 211.52 43.3164 212.098 43.3164C212.668 43.3164 213.125 43.4766 213.469 43.7969C213.82 44.1172 213.996 44.5234 213.996 45.0156C213.996 45.5078 213.82 45.9141 213.469 46.2344C213.125 46.5547 212.668 46.7148 212.098 46.7148C211.52 46.7148 211.059 46.5547 210.715 46.2344C210.371 45.9141 210.199 45.5078 210.199 45.0156ZM222.797 48.3203V50.7109H215.414V48.3203H222.797ZM217.242 45.1914H220.617V57.1797C220.617 57.5469 220.664 57.8281 220.758 58.0234C220.859 58.2188 221.008 58.3555 221.203 58.4336C221.398 58.5039 221.645 58.5391 221.941 58.5391C222.152 58.5391 222.34 58.5312 222.504 58.5156C222.676 58.4922 222.82 58.4688 222.938 58.4453L222.949 60.9297C222.66 61.0234 222.348 61.0977 222.012 61.1523C221.676 61.207 221.305 61.2344 220.898 61.2344C220.156 61.2344 219.508 61.1133 218.953 60.8711C218.406 60.6211 217.984 60.2227 217.688 59.6758C217.391 59.1289 217.242 58.4102 217.242 57.5195V45.1914ZM228.281 43V61H224.895V43H228.281ZM236.906 61.2344C235.922 61.2344 235.039 61.0781 234.258 60.7656C233.477 60.4453 232.812 60.0039 232.266 59.4414C231.727 58.8789 231.312 58.2266 231.023 57.4844C230.734 56.7344 230.59 55.9375 230.59 55.0938V54.625C230.59 53.6641 230.727 52.7852 231 51.9883C231.273 51.1914 231.664 50.5 232.172 49.9141C232.688 49.3281 233.312 48.8789 234.047 48.5664C234.781 48.2461 235.609 48.0859 236.531 48.0859C237.43 48.0859 238.227 48.2344 238.922 48.5312C239.617 48.8281 240.199 49.25 240.668 49.7969C241.145 50.3438 241.504 51 241.746 51.7656C241.988 52.5234 242.109 53.3672 242.109 54.2969V55.7031H232.031V53.4531H238.793V53.1953C238.793 52.7266 238.707 52.3086 238.535 51.9414C238.371 51.5664 238.121 51.2695 237.785 51.0508C237.449 50.832 237.02 50.7227 236.496 50.7227C236.051 50.7227 235.668 50.8203 235.348 51.0156C235.027 51.2109 234.766 51.4844 234.562 51.8359C234.367 52.1875 234.219 52.6016 234.117 53.0781C234.023 53.5469 233.977 54.0625 233.977 54.625V55.0938C233.977 55.6016 234.047 56.0703 234.188 56.5C234.336 56.9297 234.543 57.3008 234.809 57.6133C235.082 57.9258 235.41 58.168 235.793 58.3398C236.184 58.5117 236.625 58.5977 237.117 58.5977C237.727 58.5977 238.293 58.4805 238.816 58.2461C239.348 58.0039 239.805 57.6406 240.188 57.1562L241.828 58.9375C241.562 59.3203 241.199 59.6875 240.738 60.0391C240.285 60.3906 239.738 60.6797 239.098 60.9062C238.457 61.125 237.727 61.2344 236.906 61.2344Z" fill="#888888"/>
<path d="M103.828 84.875V119H95.6016V84.875H103.828ZM117.094 99.0781V105.406H101.484V99.0781H117.094ZM118.43 84.875V91.2266H101.484V84.875H118.43ZM135.773 112.836V93.6406H143.695V119H136.289L135.773 112.836ZM136.523 107.68L138.586 107.633C138.586 109.336 138.383 110.914 137.977 112.367C137.57 113.805 136.969 115.055 136.172 116.117C135.391 117.18 134.422 118.008 133.266 118.602C132.125 119.18 130.805 119.469 129.305 119.469C128.055 119.469 126.906 119.297 125.859 118.953C124.828 118.594 123.938 118.039 123.188 117.289C122.438 116.523 121.852 115.547 121.43 114.359C121.023 113.156 120.82 111.719 120.82 110.047V93.6406H128.719V110.094C128.719 110.656 128.789 111.141 128.93 111.547C129.07 111.953 129.273 112.297 129.539 112.578C129.805 112.844 130.133 113.047 130.523 113.188C130.93 113.312 131.391 113.375 131.906 113.375C133.094 113.375 134.023 113.125 134.695 112.625C135.367 112.125 135.836 111.445 136.102 110.586C136.383 109.727 136.523 108.758 136.523 107.68ZM161.414 93.6406V99.125H146.133V93.6406H161.414ZM149.344 87.3359H157.242V110.727C157.242 111.398 157.32 111.922 157.477 112.297C157.633 112.656 157.898 112.914 158.273 113.07C158.664 113.211 159.18 113.281 159.82 113.281C160.273 113.281 160.648 113.273 160.945 113.258C161.242 113.227 161.523 113.188 161.789 113.141V118.789C161.117 119.008 160.414 119.172 159.68 119.281C158.945 119.406 158.164 119.469 157.336 119.469C155.648 119.469 154.203 119.203 153 118.672C151.812 118.141 150.906 117.305 150.281 116.164C149.656 115.023 149.344 113.539 149.344 111.711V87.3359ZM179.367 112.836V93.6406H187.289V119H179.883L179.367 112.836ZM180.117 107.68L182.18 107.633C182.18 109.336 181.977 110.914 181.57 112.367C181.164 113.805 180.562 115.055 179.766 116.117C178.984 117.18 178.016 118.008 176.859 118.602C175.719 119.18 174.398 119.469 172.898 119.469C171.648 119.469 170.5 119.297 169.453 118.953C168.422 118.594 167.531 118.039 166.781 117.289C166.031 116.523 165.445 115.547 165.023 114.359C164.617 113.156 164.414 111.719 164.414 110.047V93.6406H172.312V110.094C172.312 110.656 172.383 111.141 172.523 111.547C172.664 111.953 172.867 112.297 173.133 112.578C173.398 112.844 173.727 113.047 174.117 113.188C174.523 113.312 174.984 113.375 175.5 113.375C176.688 113.375 177.617 113.125 178.289 112.625C178.961 112.125 179.43 111.445 179.695 110.586C179.977 109.727 180.117 108.758 180.117 107.68ZM199.617 99.9219V119H191.719V93.6406H199.102L199.617 99.9219ZM207.117 93.4531L206.977 100.789C206.664 100.758 206.242 100.719 205.711 100.672C205.18 100.625 204.734 100.602 204.375 100.602C203.453 100.602 202.656 100.711 201.984 100.93C201.328 101.133 200.781 101.445 200.344 101.867C199.922 102.273 199.609 102.789 199.406 103.414C199.219 104.039 199.133 104.766 199.148 105.594L197.719 104.656C197.719 102.953 197.883 101.406 198.211 100.016C198.555 98.6094 199.039 97.3984 199.664 96.3828C200.289 95.3516 201.047 94.5625 201.938 94.0156C202.828 93.4531 203.828 93.1719 204.938 93.1719C205.328 93.1719 205.711 93.1953 206.086 93.2422C206.477 93.2891 206.82 93.3594 207.117 93.4531ZM221.648 119.469C219.586 119.469 217.742 119.148 216.117 118.508C214.492 117.852 213.117 116.953 211.992 115.812C210.883 114.672 210.031 113.359 209.438 111.875C208.859 110.391 208.57 108.82 208.57 107.164V106.273C208.57 104.414 208.828 102.695 209.344 101.117C209.859 99.5234 210.625 98.1328 211.641 96.9453C212.656 95.7578 213.93 94.8359 215.461 94.1797C216.992 93.5078 218.773 93.1719 220.805 93.1719C222.602 93.1719 224.211 93.4609 225.633 94.0391C227.055 94.6172 228.258 95.4453 229.242 96.5234C230.242 97.6016 231 98.9062 231.516 100.438C232.047 101.969 232.312 103.688 232.312 105.594V108.805H211.594V103.859H224.602V103.25C224.617 102.406 224.469 101.688 224.156 101.094C223.859 100.5 223.422 100.047 222.844 99.7344C222.266 99.4219 221.562 99.2656 220.734 99.2656C219.875 99.2656 219.164 99.4531 218.602 99.8281C218.055 100.203 217.625 100.719 217.312 101.375C217.016 102.016 216.805 102.758 216.68 103.602C216.555 104.445 216.492 105.336 216.492 106.273V107.164C216.492 108.102 216.617 108.953 216.867 109.719C217.133 110.484 217.508 111.141 217.992 111.688C218.492 112.219 219.086 112.633 219.773 112.93C220.477 113.227 221.273 113.375 222.164 113.375C223.242 113.375 224.305 113.172 225.352 112.766C226.398 112.359 227.297 111.688 228.047 110.75L231.633 115.016C231.117 115.75 230.383 116.461 229.43 117.148C228.492 117.836 227.367 118.398 226.055 118.836C224.742 119.258 223.273 119.469 221.648 119.469ZM255.727 115.906L262.523 84.875H266.578L268.781 87.5234L261.539 119H257.062L255.727 115.906ZM253.922 84.875L259.664 116.141L258.188 119H253.008L245.766 84.875H253.922ZM272.508 115.977L278.203 84.875H286.336L279.094 119H273.938L272.508 115.977ZM269.508 84.875L276.469 116.094L275.062 119H270.586L263.18 87.4766L265.477 84.875H269.508ZM287.461 106.578V106.086C287.461 104.227 287.727 102.516 288.258 100.953C288.789 99.375 289.57 98.0078 290.602 96.8516C291.633 95.6953 292.906 94.7969 294.422 94.1562C295.938 93.5 297.688 93.1719 299.672 93.1719C301.672 93.1719 303.43 93.5 304.945 94.1562C306.477 94.7969 307.758 95.6953 308.789 96.8516C309.82 98.0078 310.602 99.375 311.133 100.953C311.664 102.516 311.93 104.227 311.93 106.086V106.578C311.93 108.422 311.664 110.133 311.133 111.711C310.602 113.273 309.82 114.641 308.789 115.812C307.758 116.969 306.484 117.867 304.969 118.508C303.453 119.148 301.703 119.469 299.719 119.469C297.734 119.469 295.977 119.148 294.445 118.508C292.914 117.867 291.633 116.969 290.602 115.812C289.57 114.641 288.789 113.273 288.258 111.711C287.727 110.133 287.461 108.422 287.461 106.578ZM295.359 106.086V106.578C295.359 107.531 295.43 108.422 295.57 109.25C295.711 110.078 295.945 110.805 296.273 111.43C296.602 112.039 297.047 112.516 297.609 112.859C298.172 113.203 298.875 113.375 299.719 113.375C300.547 113.375 301.234 113.203 301.781 112.859C302.344 112.516 302.789 112.039 303.117 111.43C303.445 110.805 303.68 110.078 303.82 109.25C303.961 108.422 304.031 107.531 304.031 106.578V106.086C304.031 105.164 303.961 104.297 303.82 103.484C303.68 102.656 303.445 101.93 303.117 101.305C302.789 100.664 302.344 100.164 301.781 99.8047C301.219 99.4453 300.516 99.2656 299.672 99.2656C298.844 99.2656 298.148 99.4453 297.586 99.8047C297.039 100.164 296.602 100.664 296.273 101.305C295.945 101.93 295.711 102.656 295.57 103.484C295.43 104.297 295.359 105.164 295.359 106.086ZM323.414 99.9219V119H315.516V93.6406H322.898L323.414 99.9219ZM330.914 93.4531L330.773 100.789C330.461 100.758 330.039 100.719 329.508 100.672C328.977 100.625 328.531 100.602 328.172 100.602C327.25 100.602 326.453 100.711 325.781 100.93C325.125 101.133 324.578 101.445 324.141 101.867C323.719 102.273 323.406 102.789 323.203 103.414C323.016 104.039 322.93 104.766 322.945 105.594L321.516 104.656C321.516 102.953 321.68 101.406 322.008 100.016C322.352 98.6094 322.836 97.3984 323.461 96.3828C324.086 95.3516 324.844 94.5625 325.734 94.0156C326.625 93.4531 327.625 93.1719 328.734 93.1719C329.125 93.1719 329.508 93.1953 329.883 93.2422C330.273 93.2891 330.617 93.3594 330.914 93.4531ZM341.602 82.9766V119H333.703V82.9766H341.602ZM357.82 93.6406L346.805 106.555L341.039 112.32L337.594 107.305L342.398 101.047L348.352 93.6406H357.82ZM349.359 119L342.586 107.445L348.422 103.297L358.406 119H349.359Z" fill="black"/>
<path d="M1134 0H1348C1356.28 0 1363 6.71573 1363 15V148C1363 156.284 1356.28 163 1348 163H1134V0Z" fill="#FDD100"/>
<path d="M1279.16 46.8539V69.8671H1257.19V90.1277H1235.01V110.306H1212V116.146H1240.81V95.9221H1263.03V75.6646H1285V46.8539H1279.16Z" fill="white"/>
</svg>
