<svg width="1363" height="163" viewBox="0 0 1363 163" fill="none" xmlns="http://www.w3.org/2000/svg">
<path d="M0 15C0 6.71573 6.71573 0 15 0H37V163H15C6.71573 163 0 156.284 0 148V15Z" fill="#424242"/>
<rect width="1097" height="163" transform="translate(37)" fill="#F0F0F0"/>
<path d="M101.906 53.9219L94.3945 51.2383V48.0859L104.602 52.375V54.6367L101.906 53.9219ZM94.3945 56.1719L101.918 53.4297L104.602 52.7852V55.0352L94.3945 59.3242V56.1719ZM119.543 54.918H115.195V52.1758H119.543C120.215 52.1758 120.762 52.0664 121.184 51.8477C121.605 51.6211 121.914 51.3086 122.109 50.9102C122.305 50.5117 122.402 50.0625 122.402 49.5625C122.402 49.0547 122.305 48.582 122.109 48.1445C121.914 47.707 121.605 47.3555 121.184 47.0898C120.762 46.8242 120.215 46.6914 119.543 46.6914H116.414V61H112.898V43.9375H119.543C120.879 43.9375 122.023 44.1797 122.977 44.6641C123.938 45.1406 124.672 45.8008 125.18 46.6445C125.688 47.4883 125.941 48.4531 125.941 49.5391C125.941 50.6406 125.688 51.5938 125.18 52.3984C124.672 53.2031 123.938 53.8242 122.977 54.2617C122.023 54.6992 120.879 54.918 119.543 54.918ZM131.531 51.0859V61H128.156V48.3203H131.332L131.531 51.0859ZM135.352 48.2383L135.293 51.3672C135.129 51.3438 134.93 51.3242 134.695 51.3086C134.469 51.2852 134.262 51.2734 134.074 51.2734C133.598 51.2734 133.184 51.3359 132.832 51.4609C132.488 51.5781 132.199 51.7539 131.965 51.9883C131.738 52.2227 131.566 52.5078 131.449 52.8438C131.34 53.1797 131.277 53.5625 131.262 53.9922L130.582 53.7812C130.582 52.9609 130.664 52.207 130.828 51.5195C130.992 50.8242 131.23 50.2188 131.543 49.7031C131.863 49.1875 132.254 48.7891 132.715 48.5078C133.176 48.2266 133.703 48.0859 134.297 48.0859C134.484 48.0859 134.676 48.1016 134.871 48.1328C135.066 48.1562 135.227 48.1914 135.352 48.2383ZM136.055 54.7891V54.543C136.055 53.6133 136.188 52.7578 136.453 51.9766C136.719 51.1875 137.105 50.5039 137.613 49.9258C138.121 49.3477 138.746 48.8984 139.488 48.5781C140.23 48.25 141.082 48.0859 142.043 48.0859C143.004 48.0859 143.859 48.25 144.609 48.5781C145.359 48.8984 145.988 49.3477 146.496 49.9258C147.012 50.5039 147.402 51.1875 147.668 51.9766C147.934 52.7578 148.066 53.6133 148.066 54.543V54.7891C148.066 55.7109 147.934 56.5664 147.668 57.3555C147.402 58.1367 147.012 58.8203 146.496 59.4062C145.988 59.9844 145.363 60.4336 144.621 60.7539C143.879 61.0742 143.027 61.2344 142.066 61.2344C141.105 61.2344 140.25 61.0742 139.5 60.7539C138.758 60.4336 138.129 59.9844 137.613 59.4062C137.105 58.8203 136.719 58.1367 136.453 57.3555C136.188 56.5664 136.055 55.7109 136.055 54.7891ZM139.43 54.543V54.7891C139.43 55.3203 139.477 55.8164 139.57 56.2773C139.664 56.7383 139.812 57.1445 140.016 57.4961C140.227 57.8398 140.5 58.1094 140.836 58.3047C141.172 58.5 141.582 58.5977 142.066 58.5977C142.535 58.5977 142.938 58.5 143.273 58.3047C143.609 58.1094 143.879 57.8398 144.082 57.4961C144.285 57.1445 144.434 56.7383 144.527 56.2773C144.629 55.8164 144.68 55.3203 144.68 54.7891V54.543C144.68 54.0273 144.629 53.543 144.527 53.0898C144.434 52.6289 144.281 52.2227 144.07 51.8711C143.867 51.5117 143.598 51.2305 143.262 51.0273C142.926 50.8242 142.52 50.7227 142.043 50.7227C141.566 50.7227 141.16 50.8242 140.824 51.0273C140.496 51.2305 140.227 51.5117 140.016 51.8711C139.812 52.2227 139.664 52.6289 139.57 53.0898C139.477 53.543 139.43 54.0273 139.43 54.543ZM150.328 48.3203H153.715V61.7617C153.715 62.6992 153.543 63.4922 153.199 64.1406C152.855 64.7891 152.359 65.2812 151.711 65.6172C151.062 65.9531 150.277 66.1211 149.355 66.1211C149.066 66.1211 148.785 66.1055 148.512 66.0742C148.23 66.043 147.941 65.9922 147.645 65.9219L147.656 63.332C147.844 63.3633 148.027 63.3867 148.207 63.4023C148.379 63.4258 148.555 63.4375 148.734 63.4375C149.086 63.4375 149.379 63.3789 149.613 63.2617C149.848 63.1445 150.023 62.9609 150.141 62.7109C150.266 62.4688 150.328 62.1523 150.328 61.7617V48.3203ZM150.059 45.0156C150.059 44.5234 150.23 44.1172 150.574 43.7969C150.926 43.4766 151.387 43.3164 151.957 43.3164C152.535 43.3164 152.996 43.4766 153.34 43.7969C153.684 44.1172 153.855 44.5234 153.855 45.0156C153.855 45.5078 153.684 45.9141 153.34 46.2344C152.996 46.5547 152.535 46.7148 151.957 46.7148C151.387 46.7148 150.926 46.5547 150.574 46.2344C150.23 45.9141 150.059 45.5078 150.059 45.0156ZM162.234 61.2344C161.25 61.2344 160.367 61.0781 159.586 60.7656C158.805 60.4453 158.141 60.0039 157.594 59.4414C157.055 58.8789 156.641 58.2266 156.352 57.4844C156.062 56.7344 155.918 55.9375 155.918 55.0938V54.625C155.918 53.6641 156.055 52.7852 156.328 51.9883C156.602 51.1914 156.992 50.5 157.5 49.9141C158.016 49.3281 158.641 48.8789 159.375 48.5664C160.109 48.2461 160.938 48.0859 161.859 48.0859C162.758 48.0859 163.555 48.2344 164.25 48.5312C164.945 48.8281 165.527 49.25 165.996 49.7969C166.473 50.3438 166.832 51 167.074 51.7656C167.316 52.5234 167.438 53.3672 167.438 54.2969V55.7031H157.359V53.4531H164.121V53.1953C164.121 52.7266 164.035 52.3086 163.863 51.9414C163.699 51.5664 163.449 51.2695 163.113 51.0508C162.777 50.832 162.348 50.7227 161.824 50.7227C161.379 50.7227 160.996 50.8203 160.676 51.0156C160.355 51.2109 160.094 51.4844 159.891 51.8359C159.695 52.1875 159.547 52.6016 159.445 53.0781C159.352 53.5469 159.305 54.0625 159.305 54.625V55.0938C159.305 55.6016 159.375 56.0703 159.516 56.5C159.664 56.9297 159.871 57.3008 160.137 57.6133C160.41 57.9258 160.738 58.168 161.121 58.3398C161.512 58.5117 161.953 58.5977 162.445 58.5977C163.055 58.5977 163.621 58.4805 164.145 58.2461C164.676 58.0039 165.133 57.6406 165.516 57.1562L167.156 58.9375C166.891 59.3203 166.527 59.6875 166.066 60.0391C165.613 60.3906 165.066 60.6797 164.426 60.9062C163.785 61.125 163.055 61.2344 162.234 61.2344ZM174.598 58.5977C175.012 58.5977 175.379 58.5195 175.699 58.3633C176.02 58.1992 176.27 57.9727 176.449 57.6836C176.637 57.3867 176.734 57.0391 176.742 56.6406H179.918C179.91 57.5312 179.672 58.3242 179.203 59.0195C178.734 59.707 178.105 60.25 177.316 60.6484C176.527 61.0391 175.645 61.2344 174.668 61.2344C173.684 61.2344 172.824 61.0703 172.09 60.7422C171.363 60.4141 170.758 59.9609 170.273 59.3828C169.789 58.7969 169.426 58.1172 169.184 57.3438C168.941 56.5625 168.82 55.7266 168.82 54.8359V54.4961C168.82 53.5977 168.941 52.7617 169.184 51.9883C169.426 51.207 169.789 50.5273 170.273 49.9492C170.758 49.3633 171.363 48.9062 172.09 48.5781C172.816 48.25 173.668 48.0859 174.645 48.0859C175.684 48.0859 176.594 48.2852 177.375 48.6836C178.164 49.082 178.781 49.6523 179.227 50.3945C179.68 51.1289 179.91 52 179.918 53.0078H176.742C176.734 52.5859 176.645 52.2031 176.473 51.8594C176.309 51.5156 176.066 51.2422 175.746 51.0391C175.434 50.8281 175.047 50.7227 174.586 50.7227C174.094 50.7227 173.691 50.8281 173.379 51.0391C173.066 51.2422 172.824 51.5234 172.652 51.8828C172.48 52.2344 172.359 52.6367 172.289 53.0898C172.227 53.5352 172.195 54.0039 172.195 54.4961V54.8359C172.195 55.3281 172.227 55.8008 172.289 56.2539C172.352 56.707 172.469 57.1094 172.641 57.4609C172.82 57.8125 173.066 58.0898 173.379 58.293C173.691 58.4961 174.098 58.5977 174.598 58.5977ZM188.086 48.3203V50.7109H180.703V48.3203H188.086ZM182.531 45.1914H185.906V57.1797C185.906 57.5469 185.953 57.8281 186.047 58.0234C186.148 58.2188 186.297 58.3555 186.492 58.4336C186.688 58.5039 186.934 58.5391 187.23 58.5391C187.441 58.5391 187.629 58.5312 187.793 58.5156C187.965 58.4922 188.109 58.4688 188.227 58.4453L188.238 60.9297C187.949 61.0234 187.637 61.0977 187.301 61.1523C186.965 61.207 186.594 61.2344 186.188 61.2344C185.445 61.2344 184.797 61.1133 184.242 60.8711C183.695 60.6211 183.273 60.2227 182.977 59.6758C182.68 59.1289 182.531 58.4102 182.531 57.5195V45.1914ZM203.191 43.9375V61H199.688V43.9375H203.191ZM208.441 43.9375V46.6914H194.52V43.9375H208.441ZM213.797 48.3203V61H210.41V48.3203H213.797ZM210.199 45.0156C210.199 44.5234 210.371 44.1172 210.715 43.7969C211.059 43.4766 211.52 43.3164 212.098 43.3164C212.668 43.3164 213.125 43.4766 213.469 43.7969C213.82 44.1172 213.996 44.5234 213.996 45.0156C213.996 45.5078 213.82 45.9141 213.469 46.2344C213.125 46.5547 212.668 46.7148 212.098 46.7148C211.52 46.7148 211.059 46.5547 210.715 46.2344C210.371 45.9141 210.199 45.5078 210.199 45.0156ZM222.797 48.3203V50.7109H215.414V48.3203H222.797ZM217.242 45.1914H220.617V57.1797C220.617 57.5469 220.664 57.8281 220.758 58.0234C220.859 58.2188 221.008 58.3555 221.203 58.4336C221.398 58.5039 221.645 58.5391 221.941 58.5391C222.152 58.5391 222.34 58.5312 222.504 58.5156C222.676 58.4922 222.82 58.4688 222.938 58.4453L222.949 60.9297C222.66 61.0234 222.348 61.0977 222.012 61.1523C221.676 61.207 221.305 61.2344 220.898 61.2344C220.156 61.2344 219.508 61.1133 218.953 60.8711C218.406 60.6211 217.984 60.2227 217.688 59.6758C217.391 59.1289 217.242 58.4102 217.242 57.5195V45.1914ZM228.281 43V61H224.895V43H228.281ZM236.906 61.2344C235.922 61.2344 235.039 61.0781 234.258 60.7656C233.477 60.4453 232.812 60.0039 232.266 59.4414C231.727 58.8789 231.312 58.2266 231.023 57.4844C230.734 56.7344 230.59 55.9375 230.59 55.0938V54.625C230.59 53.6641 230.727 52.7852 231 51.9883C231.273 51.1914 231.664 50.5 232.172 49.9141C232.688 49.3281 233.312 48.8789 234.047 48.5664C234.781 48.2461 235.609 48.0859 236.531 48.0859C237.43 48.0859 238.227 48.2344 238.922 48.5312C239.617 48.8281 240.199 49.25 240.668 49.7969C241.145 50.3438 241.504 51 241.746 51.7656C241.988 52.5234 242.109 53.3672 242.109 54.2969V55.7031H232.031V53.4531H238.793V53.1953C238.793 52.7266 238.707 52.3086 238.535 51.9414C238.371 51.5664 238.121 51.2695 237.785 51.0508C237.449 50.832 237.02 50.7227 236.496 50.7227C236.051 50.7227 235.668 50.8203 235.348 51.0156C235.027 51.2109 234.766 51.4844 234.562 51.8359C234.367 52.1875 234.219 52.6016 234.117 53.0781C234.023 53.5469 233.977 54.0625 233.977 54.625V55.0938C233.977 55.6016 234.047 56.0703 234.188 56.5C234.336 56.9297 234.543 57.3008 234.809 57.6133C235.082 57.9258 235.41 58.168 235.793 58.3398C236.184 58.5117 236.625 58.5977 237.117 58.5977C237.727 58.5977 238.293 58.4805 238.816 58.2461C239.348 58.0039 239.805 57.6406 240.188 57.1562L241.828 58.9375C241.562 59.3203 241.199 59.6875 240.738 60.0391C240.285 60.3906 239.738 60.6797 239.098 60.9062C238.457 61.125 237.727 61.2344 236.906 61.2344Z" fill="#888888"/>
<path d="M95.6016 84.875H109.031C111.656 84.875 113.938 85.2656 115.875 86.0469C117.812 86.8281 119.305 87.9844 120.352 89.5156C121.414 91.0469 121.945 92.9375 121.945 95.1875C121.945 97.1406 121.641 98.7734 121.031 100.086C120.422 101.398 119.57 102.484 118.477 103.344C117.398 104.188 116.141 104.883 114.703 105.43L112.008 106.953H100.734L100.688 100.602H109.031C110.078 100.602 110.945 100.414 111.633 100.039C112.32 99.6641 112.836 99.1328 113.18 98.4453C113.539 97.7422 113.719 96.9062 113.719 95.9375C113.719 94.9531 113.539 94.1094 113.18 93.4062C112.82 92.7031 112.289 92.1641 111.586 91.7891C110.898 91.4141 110.047 91.2266 109.031 91.2266H103.828V119H95.6016V84.875ZM114.281 119L106.734 103.906L115.453 103.859L123.094 118.648V119H114.281ZM125.555 106.578V106.086C125.555 104.227 125.82 102.516 126.352 100.953C126.883 99.375 127.664 98.0078 128.695 96.8516C129.727 95.6953 131 94.7969 132.516 94.1562C134.031 93.5 135.781 93.1719 137.766 93.1719C139.766 93.1719 141.523 93.5 143.039 94.1562C144.57 94.7969 145.852 95.6953 146.883 96.8516C147.914 98.0078 148.695 99.375 149.227 100.953C149.758 102.516 150.023 104.227 150.023 106.086V106.578C150.023 108.422 149.758 110.133 149.227 111.711C148.695 113.273 147.914 114.641 146.883 115.812C145.852 116.969 144.578 117.867 143.062 118.508C141.547 119.148 139.797 119.469 137.812 119.469C135.828 119.469 134.07 119.148 132.539 118.508C131.008 117.867 129.727 116.969 128.695 115.812C127.664 114.641 126.883 113.273 126.352 111.711C125.82 110.133 125.555 108.422 125.555 106.578ZM133.453 106.086V106.578C133.453 107.531 133.523 108.422 133.664 109.25C133.805 110.078 134.039 110.805 134.367 111.43C134.695 112.039 135.141 112.516 135.703 112.859C136.266 113.203 136.969 113.375 137.812 113.375C138.641 113.375 139.328 113.203 139.875 112.859C140.438 112.516 140.883 112.039 141.211 111.43C141.539 110.805 141.773 110.078 141.914 109.25C142.055 108.422 142.125 107.531 142.125 106.578V106.086C142.125 105.164 142.055 104.297 141.914 103.484C141.773 102.656 141.539 101.93 141.211 101.305C140.883 100.664 140.438 100.164 139.875 99.8047C139.312 99.4453 138.609 99.2656 137.766 99.2656C136.938 99.2656 136.242 99.4453 135.68 99.8047C135.133 100.164 134.695 100.664 134.367 101.305C134.039 101.93 133.805 102.656 133.664 103.484C133.523 104.297 133.453 105.164 133.453 106.086ZM168.352 112.836V93.6406H176.273V119H168.867L168.352 112.836ZM169.102 107.68L171.164 107.633C171.164 109.336 170.961 110.914 170.555 112.367C170.148 113.805 169.547 115.055 168.75 116.117C167.969 117.18 167 118.008 165.844 118.602C164.703 119.18 163.383 119.469 161.883 119.469C160.633 119.469 159.484 119.297 158.438 118.953C157.406 118.594 156.516 118.039 155.766 117.289C155.016 116.523 154.43 115.547 154.008 114.359C153.602 113.156 153.398 111.719 153.398 110.047V93.6406H161.297V110.094C161.297 110.656 161.367 111.141 161.508 111.547C161.648 111.953 161.852 112.297 162.117 112.578C162.383 112.844 162.711 113.047 163.102 113.188C163.508 113.312 163.969 113.375 164.484 113.375C165.672 113.375 166.602 113.125 167.273 112.625C167.945 112.125 168.414 111.445 168.68 110.586C168.961 109.727 169.102 108.758 169.102 107.68ZM193.992 93.6406V99.125H178.711V93.6406H193.992ZM181.922 87.3359H189.82V110.727C189.82 111.398 189.898 111.922 190.055 112.297C190.211 112.656 190.477 112.914 190.852 113.07C191.242 113.211 191.758 113.281 192.398 113.281C192.852 113.281 193.227 113.273 193.523 113.258C193.82 113.227 194.102 113.188 194.367 113.141V118.789C193.695 119.008 192.992 119.172 192.258 119.281C191.523 119.406 190.742 119.469 189.914 119.469C188.227 119.469 186.781 119.203 185.578 118.672C184.391 118.141 183.484 117.305 182.859 116.164C182.234 115.023 181.922 113.539 181.922 111.711V87.3359ZM205.477 93.6406V119H197.555V93.6406H205.477ZM197.086 87.1016C197.086 85.9766 197.492 85.0547 198.305 84.3359C199.117 83.6172 200.172 83.2578 201.469 83.2578C202.766 83.2578 203.82 83.6172 204.633 84.3359C205.445 85.0547 205.852 85.9766 205.852 87.1016C205.852 88.2266 205.445 89.1484 204.633 89.8672C203.82 90.5859 202.766 90.9453 201.469 90.9453C200.172 90.9453 199.117 90.5859 198.305 89.8672C197.492 89.1484 197.086 88.2266 197.086 87.1016ZM218.109 99.0547V119H210.211V93.6406H217.617L218.109 99.0547ZM217.172 105.453L215.32 105.5C215.32 103.562 215.555 101.836 216.023 100.32C216.492 98.7891 217.156 97.4922 218.016 96.4297C218.875 95.3672 219.898 94.5625 221.086 94.0156C222.289 93.4531 223.625 93.1719 225.094 93.1719C226.266 93.1719 227.336 93.3438 228.305 93.6875C229.289 94.0312 230.133 94.5859 230.836 95.3516C231.555 96.1172 232.102 97.1328 232.477 98.3984C232.867 99.6484 233.062 101.195 233.062 103.039V119H225.117V103.016C225.117 102 224.977 101.227 224.695 100.695C224.414 100.148 224.008 99.7734 223.477 99.5703C222.945 99.3672 222.297 99.2656 221.531 99.2656C220.719 99.2656 220.031 99.4219 219.469 99.7344C218.906 100.047 218.453 100.484 218.109 101.047C217.781 101.594 217.539 102.242 217.383 102.992C217.242 103.742 217.172 104.562 217.172 105.453ZM253.383 93.6406H260.555V118.016C260.555 120.359 260.016 122.344 258.938 123.969C257.859 125.609 256.352 126.852 254.414 127.695C252.492 128.555 250.242 128.984 247.664 128.984C246.523 128.984 245.359 128.836 244.172 128.539C242.984 128.258 241.875 127.836 240.844 127.273C239.812 126.711 238.945 126.016 238.242 125.188L241.547 120.547C242.188 121.266 242.992 121.875 243.961 122.375C244.93 122.891 246.07 123.148 247.383 123.148C248.523 123.148 249.477 122.945 250.242 122.539C251.023 122.133 251.617 121.539 252.023 120.758C252.43 119.992 252.633 119.062 252.633 117.969V99.6406L253.383 93.6406ZM236.531 106.625V106.133C236.531 104.211 236.766 102.461 237.234 100.883C237.719 99.2891 238.406 97.9219 239.297 96.7812C240.203 95.625 241.297 94.7344 242.578 94.1094C243.859 93.4844 245.305 93.1719 246.914 93.1719C248.648 93.1719 250.07 93.5078 251.18 94.1797C252.305 94.8359 253.203 95.7578 253.875 96.9453C254.562 98.1328 255.094 99.5234 255.469 101.117C255.859 102.695 256.188 104.398 256.453 106.227V106.812C256.188 108.531 255.82 110.156 255.352 111.688C254.898 113.203 254.305 114.547 253.57 115.719C252.836 116.891 251.914 117.812 250.805 118.484C249.711 119.141 248.398 119.469 246.867 119.469C245.273 119.469 243.836 119.148 242.555 118.508C241.289 117.867 240.203 116.969 239.297 115.812C238.406 114.656 237.719 113.297 237.234 111.734C236.766 110.172 236.531 108.469 236.531 106.625ZM244.43 106.133V106.625C244.43 107.578 244.516 108.461 244.688 109.273C244.875 110.086 245.156 110.805 245.531 111.43C245.906 112.039 246.367 112.516 246.914 112.859C247.477 113.203 248.133 113.375 248.883 113.375C250.023 113.375 250.945 113.133 251.648 112.648C252.352 112.164 252.859 111.477 253.172 110.586C253.484 109.695 253.617 108.648 253.57 107.445V105.594C253.602 104.562 253.531 103.656 253.359 102.875C253.188 102.078 252.914 101.414 252.539 100.883C252.18 100.352 251.695 99.9531 251.086 99.6875C250.492 99.4062 249.773 99.2656 248.93 99.2656C248.195 99.2656 247.547 99.4375 246.984 99.7812C246.422 100.125 245.953 100.609 245.578 101.234C245.203 101.844 244.914 102.57 244.711 103.414C244.523 104.242 244.43 105.148 244.43 106.133ZM278.391 111.875C278.391 111.438 278.242 111.062 277.945 110.75C277.664 110.422 277.164 110.125 276.445 109.859C275.727 109.578 274.719 109.297 273.422 109.016C272.188 108.75 271.023 108.398 269.93 107.961C268.852 107.523 267.906 106.992 267.094 106.367C266.281 105.742 265.641 105 265.172 104.141C264.719 103.281 264.492 102.297 264.492 101.188C264.492 100.109 264.719 99.0938 265.172 98.1406C265.641 97.1719 266.32 96.3203 267.211 95.5859C268.117 94.8359 269.219 94.25 270.516 93.8281C271.812 93.3906 273.289 93.1719 274.945 93.1719C277.227 93.1719 279.195 93.5234 280.852 94.2266C282.508 94.9141 283.781 95.8828 284.672 97.1328C285.578 98.3672 286.031 99.7969 286.031 101.422H278.133C278.133 100.781 278.023 100.234 277.805 99.7812C277.602 99.3281 277.266 98.9844 276.797 98.75C276.328 98.5 275.703 98.375 274.922 98.375C274.375 98.375 273.875 98.4766 273.422 98.6797C272.984 98.8828 272.633 99.1641 272.367 99.5234C272.102 99.8828 271.969 100.305 271.969 100.789C271.969 101.133 272.047 101.445 272.203 101.727C272.375 101.992 272.633 102.242 272.977 102.477C273.32 102.695 273.758 102.898 274.289 103.086C274.82 103.258 275.461 103.414 276.211 103.555C277.914 103.867 279.508 104.312 280.992 104.891C282.477 105.469 283.68 106.289 284.602 107.352C285.539 108.414 286.008 109.844 286.008 111.641C286.008 112.766 285.75 113.805 285.234 114.758C284.719 115.695 283.977 116.523 283.008 117.242C282.039 117.945 280.875 118.492 279.516 118.883C278.156 119.273 276.625 119.469 274.922 119.469C272.5 119.469 270.453 119.039 268.781 118.18C267.109 117.305 265.844 116.211 264.984 114.898C264.141 113.57 263.719 112.227 263.719 110.867H271.078C271.109 111.648 271.297 112.289 271.641 112.789C272 113.289 272.477 113.656 273.07 113.891C273.664 114.125 274.352 114.242 275.133 114.242C275.852 114.242 276.445 114.141 276.914 113.938C277.398 113.734 277.766 113.461 278.016 113.117C278.266 112.758 278.391 112.344 278.391 111.875Z" fill="black"/>
<path d="M1134 0H1348C1356.28 0 1363 6.71573 1363 15V148C1363 156.284 1356.28 163 1348 163H1134V0Z" fill="#FDD100"/>
<path d="M1252.3 56.8021C1255.73 56.8021 1259.02 58.1641 1261.44 60.5883C1263.87 63.0126 1265.23 66.3007 1265.23 69.7292C1265.23 73.1577 1263.87 76.4457 1261.44 78.87C1259.02 81.2943 1255.73 82.6563 1252.3 82.6563H1224.93C1222.71 82.6563 1220.58 83.5375 1219.01 85.1062C1217.44 86.6749 1216.56 88.8024 1216.56 91.0208C1216.56 93.2393 1217.44 95.3668 1219.01 96.9355C1220.58 98.5042 1222.71 99.3854 1224.93 99.3854H1257.44L1255.25 97.1954C1255.03 96.9866 1254.85 96.7347 1254.72 96.4549C1254.6 96.1751 1254.53 95.873 1254.53 95.5667C1254.52 95.2604 1254.58 94.9561 1254.69 94.6721C1254.81 94.388 1254.98 94.13 1255.19 93.9134C1255.41 93.6967 1255.67 93.526 1255.95 93.4112C1256.24 93.2965 1256.54 93.2401 1256.85 93.2455C1257.15 93.2509 1257.46 93.318 1257.74 93.4427C1258.02 93.5674 1258.27 93.7471 1258.48 93.9713L1264.56 100.055C1264.99 100.482 1265.23 101.062 1265.23 101.667C1265.23 102.271 1264.99 102.851 1264.56 103.279L1258.48 109.362C1258.27 109.586 1258.02 109.766 1257.74 109.891C1257.46 110.015 1257.15 110.082 1256.85 110.088C1256.54 110.093 1256.24 110.037 1255.95 109.922C1255.67 109.807 1255.41 109.637 1255.19 109.42C1254.98 109.203 1254.81 108.945 1254.69 108.661C1254.58 108.377 1254.52 108.073 1254.53 107.767C1254.53 107.46 1254.6 107.158 1254.72 106.878C1254.85 106.599 1255.03 106.347 1255.25 106.138L1257.44 103.948H1224.93C1221.5 103.948 1218.21 102.586 1215.79 100.162C1213.36 97.7374 1212 94.4493 1212 91.0208C1212 87.5924 1213.36 84.3043 1215.79 81.88C1218.21 79.4557 1221.5 78.0938 1224.93 78.0938H1252.3C1254.52 78.0938 1256.65 77.2125 1258.22 75.6438C1259.79 74.0752 1260.67 71.9476 1260.67 69.7292C1260.67 67.5108 1259.79 65.3832 1258.22 63.8145C1256.65 62.2459 1254.52 61.3646 1252.3 61.3646H1226.01C1225.48 62.6733 1224.51 63.7572 1223.27 64.4304C1222.03 65.1036 1220.59 65.3243 1219.21 65.0547C1217.82 64.785 1216.57 64.0418 1215.67 62.9523C1214.78 61.8629 1214.28 60.4951 1214.28 59.0833C1214.28 57.6716 1214.78 56.3038 1215.67 55.2144C1216.57 54.1249 1217.82 53.3817 1219.21 53.112C1220.59 52.8424 1222.03 53.063 1223.27 53.7363C1224.51 54.4095 1225.48 55.4934 1226.01 56.8021H1252.3Z" fill="white"/>
</svg>
