<svg width="1363" height="163" viewBox="0 0 1363 163" fill="none" xmlns="http://www.w3.org/2000/svg">
<path d="M0 15C0 6.71573 6.71573 0 15 0H37V163H15C6.71573 163 0 156.284 0 148V15Z" fill="#424242"/>
<rect width="1097" height="163" transform="translate(37)" fill="#F0F0F0"/>
<path d="M103.406 56.5352C103.406 56.2305 103.359 55.957 103.266 55.7148C103.18 55.4648 103.016 55.2383 102.773 55.0352C102.531 54.8242 102.191 54.6172 101.754 54.4141C101.316 54.2109 100.75 54 100.055 53.7812C99.2812 53.5312 98.5469 53.25 97.8516 52.9375C97.1641 52.625 96.5547 52.2617 96.0234 51.8477C95.5 51.4258 95.0859 50.9375 94.7812 50.3828C94.4844 49.8281 94.3359 49.1836 94.3359 48.4492C94.3359 47.7383 94.4922 47.0938 94.8047 46.5156C95.1172 45.9297 95.5547 45.4297 96.1172 45.0156C96.6797 44.5938 97.3438 44.2695 98.1094 44.043C98.8828 43.8164 99.7305 43.7031 100.652 43.7031C101.91 43.7031 103.008 43.9297 103.945 44.3828C104.883 44.8359 105.609 45.457 106.125 46.2461C106.648 47.0352 106.91 47.9375 106.91 48.9531H103.418C103.418 48.4531 103.312 48.0156 103.102 47.6406C102.898 47.2578 102.586 46.957 102.164 46.7383C101.75 46.5195 101.227 46.4102 100.594 46.4102C99.9844 46.4102 99.4766 46.5039 99.0703 46.6914C98.6641 46.8711 98.3594 47.1172 98.1562 47.4297C97.9531 47.7344 97.8516 48.0781 97.8516 48.4609C97.8516 48.75 97.9219 49.0117 98.0625 49.2461C98.2109 49.4805 98.4297 49.6992 98.7188 49.9023C99.0078 50.1055 99.3633 50.2969 99.7852 50.4766C100.207 50.6562 100.695 50.832 101.25 51.0039C102.18 51.2852 102.996 51.6016 103.699 51.9531C104.41 52.3047 105.004 52.6992 105.48 53.1367C105.957 53.5742 106.316 54.0703 106.559 54.625C106.801 55.1797 106.922 55.8086 106.922 56.5117C106.922 57.2539 106.777 57.918 106.488 58.5039C106.199 59.0898 105.781 59.5859 105.234 59.9922C104.688 60.3984 104.035 60.707 103.277 60.918C102.52 61.1289 101.672 61.2344 100.734 61.2344C99.8906 61.2344 99.0586 61.125 98.2383 60.9062C97.418 60.6797 96.6719 60.3398 96 59.8867C95.3359 59.4336 94.8047 58.8555 94.4062 58.1523C94.0078 57.4492 93.8086 56.6172 93.8086 55.6562H97.3359C97.3359 56.1875 97.418 56.6367 97.582 57.0039C97.7461 57.3711 97.9766 57.668 98.2734 57.8945C98.5781 58.1211 98.9375 58.2852 99.3516 58.3867C99.7734 58.4883 100.234 58.5391 100.734 58.5391C101.344 58.5391 101.844 58.4531 102.234 58.2812C102.633 58.1094 102.926 57.8711 103.113 57.5664C103.309 57.2617 103.406 56.918 103.406 56.5352ZM114.938 61.2344C113.953 61.2344 113.07 61.0781 112.289 60.7656C111.508 60.4453 110.844 60.0039 110.297 59.4414C109.758 58.8789 109.344 58.2266 109.055 57.4844C108.766 56.7344 108.621 55.9375 108.621 55.0938V54.625C108.621 53.6641 108.758 52.7852 109.031 51.9883C109.305 51.1914 109.695 50.5 110.203 49.9141C110.719 49.3281 111.344 48.8789 112.078 48.5664C112.812 48.2461 113.641 48.0859 114.562 48.0859C115.461 48.0859 116.258 48.2344 116.953 48.5312C117.648 48.8281 118.23 49.25 118.699 49.7969C119.176 50.3438 119.535 51 119.777 51.7656C120.02 52.5234 120.141 53.3672 120.141 54.2969V55.7031H110.062V53.4531H116.824V53.1953C116.824 52.7266 116.738 52.3086 116.566 51.9414C116.402 51.5664 116.152 51.2695 115.816 51.0508C115.48 50.832 115.051 50.7227 114.527 50.7227C114.082 50.7227 113.699 50.8203 113.379 51.0156C113.059 51.2109 112.797 51.4844 112.594 51.8359C112.398 52.1875 112.25 52.6016 112.148 53.0781C112.055 53.5469 112.008 54.0625 112.008 54.625V55.0938C112.008 55.6016 112.078 56.0703 112.219 56.5C112.367 56.9297 112.574 57.3008 112.84 57.6133C113.113 57.9258 113.441 58.168 113.824 58.3398C114.215 58.5117 114.656 58.5977 115.148 58.5977C115.758 58.5977 116.324 58.4805 116.848 58.2461C117.379 58.0039 117.836 57.6406 118.219 57.1562L119.859 58.9375C119.594 59.3203 119.23 59.6875 118.77 60.0391C118.316 60.3906 117.77 60.6797 117.129 60.9062C116.488 61.125 115.758 61.2344 114.938 61.2344ZM125.367 51.0273V61H121.992V48.3203H125.156L125.367 51.0273ZM124.875 54.2148H123.961C123.961 53.2773 124.082 52.4336 124.324 51.6836C124.566 50.9258 124.906 50.2812 125.344 49.75C125.781 49.2109 126.301 48.8008 126.902 48.5195C127.512 48.2305 128.191 48.0859 128.941 48.0859C129.535 48.0859 130.078 48.1719 130.57 48.3438C131.062 48.5156 131.484 48.7891 131.836 49.1641C132.195 49.5391 132.469 50.0352 132.656 50.6523C132.852 51.2695 132.949 52.0234 132.949 52.9141V61H129.551V52.9023C129.551 52.3398 129.473 51.9023 129.316 51.5898C129.16 51.2773 128.93 51.0586 128.625 50.9336C128.328 50.8008 127.961 50.7344 127.523 50.7344C127.07 50.7344 126.676 50.8242 126.34 51.0039C126.012 51.1836 125.738 51.4336 125.52 51.7539C125.309 52.0664 125.148 52.4336 125.039 52.8555C124.93 53.2773 124.875 53.7305 124.875 54.2148ZM141.727 48.3203V50.7109H134.344V48.3203H141.727ZM136.172 45.1914H139.547V57.1797C139.547 57.5469 139.594 57.8281 139.688 58.0234C139.789 58.2188 139.938 58.3555 140.133 58.4336C140.328 58.5039 140.574 58.5391 140.871 58.5391C141.082 58.5391 141.27 58.5312 141.434 58.5156C141.605 58.4922 141.75 58.4688 141.867 58.4453L141.879 60.9297C141.59 61.0234 141.277 61.0977 140.941 61.1523C140.605 61.207 140.234 61.2344 139.828 61.2344C139.086 61.2344 138.438 61.1133 137.883 60.8711C137.336 60.6211 136.914 60.2227 136.617 59.6758C136.32 59.1289 136.172 58.4102 136.172 57.5195V45.1914ZM147.211 48.3203V61H143.824V48.3203H147.211ZM143.613 45.0156C143.613 44.5234 143.785 44.1172 144.129 43.7969C144.473 43.4766 144.934 43.3164 145.512 43.3164C146.082 43.3164 146.539 43.4766 146.883 43.7969C147.234 44.1172 147.41 44.5234 147.41 45.0156C147.41 45.5078 147.234 45.9141 146.883 46.2344C146.539 46.5547 146.082 46.7148 145.512 46.7148C144.934 46.7148 144.473 46.5547 144.129 46.2344C143.785 45.9141 143.613 45.5078 143.613 45.0156ZM153.305 51.0273V61H149.93V48.3203H153.094L153.305 51.0273ZM152.812 54.2148H151.898C151.898 53.2773 152.02 52.4336 152.262 51.6836C152.504 50.9258 152.844 50.2812 153.281 49.75C153.719 49.2109 154.238 48.8008 154.84 48.5195C155.449 48.2305 156.129 48.0859 156.879 48.0859C157.473 48.0859 158.016 48.1719 158.508 48.3438C159 48.5156 159.422 48.7891 159.773 49.1641C160.133 49.5391 160.406 50.0352 160.594 50.6523C160.789 51.2695 160.887 52.0234 160.887 52.9141V61H157.488V52.9023C157.488 52.3398 157.41 51.9023 157.254 51.5898C157.098 51.2773 156.867 51.0586 156.562 50.9336C156.266 50.8008 155.898 50.7344 155.461 50.7344C155.008 50.7344 154.613 50.8242 154.277 51.0039C153.949 51.1836 153.676 51.4336 153.457 51.7539C153.246 52.0664 153.086 52.4336 152.977 52.8555C152.867 53.2773 152.812 53.7305 152.812 54.2148ZM169.289 61.2344C168.305 61.2344 167.422 61.0781 166.641 60.7656C165.859 60.4453 165.195 60.0039 164.648 59.4414C164.109 58.8789 163.695 58.2266 163.406 57.4844C163.117 56.7344 162.973 55.9375 162.973 55.0938V54.625C162.973 53.6641 163.109 52.7852 163.383 51.9883C163.656 51.1914 164.047 50.5 164.555 49.9141C165.07 49.3281 165.695 48.8789 166.43 48.5664C167.164 48.2461 167.992 48.0859 168.914 48.0859C169.812 48.0859 170.609 48.2344 171.305 48.5312C172 48.8281 172.582 49.25 173.051 49.7969C173.527 50.3438 173.887 51 174.129 51.7656C174.371 52.5234 174.492 53.3672 174.492 54.2969V55.7031H164.414V53.4531H171.176V53.1953C171.176 52.7266 171.09 52.3086 170.918 51.9414C170.754 51.5664 170.504 51.2695 170.168 51.0508C169.832 50.832 169.402 50.7227 168.879 50.7227C168.434 50.7227 168.051 50.8203 167.73 51.0156C167.41 51.2109 167.148 51.4844 166.945 51.8359C166.75 52.1875 166.602 52.6016 166.5 53.0781C166.406 53.5469 166.359 54.0625 166.359 54.625V55.0938C166.359 55.6016 166.43 56.0703 166.57 56.5C166.719 56.9297 166.926 57.3008 167.191 57.6133C167.465 57.9258 167.793 58.168 168.176 58.3398C168.566 58.5117 169.008 58.5977 169.5 58.5977C170.109 58.5977 170.676 58.4805 171.199 58.2461C171.73 58.0039 172.188 57.6406 172.57 57.1562L174.211 58.9375C173.945 59.3203 173.582 59.6875 173.121 60.0391C172.668 60.3906 172.121 60.6797 171.48 60.9062C170.84 61.125 170.109 61.2344 169.289 61.2344ZM179.977 43V61H176.59V43H179.977Z" fill="#888888"/>
<path d="M118.594 98.4219V104.75H101.086V98.4219H118.594ZM103.828 84.875V119H95.6016V84.875H103.828ZM124.125 84.875V119H115.922V84.875H124.125ZM127.992 106.578V106.086C127.992 104.227 128.258 102.516 128.789 100.953C129.32 99.375 130.102 98.0078 131.133 96.8516C132.164 95.6953 133.438 94.7969 134.953 94.1562C136.469 93.5 138.219 93.1719 140.203 93.1719C142.203 93.1719 143.961 93.5 145.477 94.1562C147.008 94.7969 148.289 95.6953 149.32 96.8516C150.352 98.0078 151.133 99.375 151.664 100.953C152.195 102.516 152.461 104.227 152.461 106.086V106.578C152.461 108.422 152.195 110.133 151.664 111.711C151.133 113.273 150.352 114.641 149.32 115.812C148.289 116.969 147.016 117.867 145.5 118.508C143.984 119.148 142.234 119.469 140.25 119.469C138.266 119.469 136.508 119.148 134.977 118.508C133.445 117.867 132.164 116.969 131.133 115.812C130.102 114.641 129.32 113.273 128.789 111.711C128.258 110.133 127.992 108.422 127.992 106.578ZM135.891 106.086V106.578C135.891 107.531 135.961 108.422 136.102 109.25C136.242 110.078 136.477 110.805 136.805 111.43C137.133 112.039 137.578 112.516 138.141 112.859C138.703 113.203 139.406 113.375 140.25 113.375C141.078 113.375 141.766 113.203 142.312 112.859C142.875 112.516 143.32 112.039 143.648 111.43C143.977 110.805 144.211 110.078 144.352 109.25C144.492 108.422 144.562 107.531 144.562 106.578V106.086C144.562 105.164 144.492 104.297 144.352 103.484C144.211 102.656 143.977 101.93 143.648 101.305C143.32 100.664 142.875 100.164 142.312 99.8047C141.75 99.4453 141.047 99.2656 140.203 99.2656C139.375 99.2656 138.68 99.4453 138.117 99.8047C137.57 100.164 137.133 100.664 136.805 101.305C136.477 101.93 136.242 102.656 136.102 103.484C135.961 104.297 135.891 105.164 135.891 106.086ZM163.688 111.453L168.375 93.6406H173.32L171.562 102.57L166.922 119H162.961L163.688 111.453ZM161.836 93.6406L164.742 111.312L165.07 119H160.266L154.266 93.6406H161.836ZM177.492 110.938L180.422 93.6406H187.992L182.039 119H177.234L177.492 110.938ZM173.883 93.6406L178.617 111.406L179.344 119H175.336L170.789 102.617L169.102 93.6406H173.883ZM216.164 93.6406V99.125H200.883V93.6406H216.164ZM204.094 87.3359H211.992V110.727C211.992 111.398 212.07 111.922 212.227 112.297C212.383 112.656 212.648 112.914 213.023 113.07C213.414 113.211 213.93 113.281 214.57 113.281C215.023 113.281 215.398 113.273 215.695 113.258C215.992 113.227 216.273 113.188 216.539 113.141V118.789C215.867 119.008 215.164 119.172 214.43 119.281C213.695 119.406 212.914 119.469 212.086 119.469C210.398 119.469 208.953 119.203 207.75 118.672C206.562 118.141 205.656 117.305 205.031 116.164C204.406 115.023 204.094 113.539 204.094 111.711V87.3359ZM217.617 106.578V106.086C217.617 104.227 217.883 102.516 218.414 100.953C218.945 99.375 219.727 98.0078 220.758 96.8516C221.789 95.6953 223.062 94.7969 224.578 94.1562C226.094 93.5 227.844 93.1719 229.828 93.1719C231.828 93.1719 233.586 93.5 235.102 94.1562C236.633 94.7969 237.914 95.6953 238.945 96.8516C239.977 98.0078 240.758 99.375 241.289 100.953C241.82 102.516 242.086 104.227 242.086 106.086V106.578C242.086 108.422 241.82 110.133 241.289 111.711C240.758 113.273 239.977 114.641 238.945 115.812C237.914 116.969 236.641 117.867 235.125 118.508C233.609 119.148 231.859 119.469 229.875 119.469C227.891 119.469 226.133 119.148 224.602 118.508C223.07 117.867 221.789 116.969 220.758 115.812C219.727 114.641 218.945 113.273 218.414 111.711C217.883 110.133 217.617 108.422 217.617 106.578ZM225.516 106.086V106.578C225.516 107.531 225.586 108.422 225.727 109.25C225.867 110.078 226.102 110.805 226.43 111.43C226.758 112.039 227.203 112.516 227.766 112.859C228.328 113.203 229.031 113.375 229.875 113.375C230.703 113.375 231.391 113.203 231.938 112.859C232.5 112.516 232.945 112.039 233.273 111.43C233.602 110.805 233.836 110.078 233.977 109.25C234.117 108.422 234.188 107.531 234.188 106.578V106.086C234.188 105.164 234.117 104.297 233.977 103.484C233.836 102.656 233.602 101.93 233.273 101.305C232.945 100.664 232.5 100.164 231.938 99.8047C231.375 99.4453 230.672 99.2656 229.828 99.2656C229 99.2656 228.305 99.4453 227.742 99.8047C227.195 100.164 226.758 100.664 226.43 101.305C226.102 101.93 225.867 102.656 225.727 103.484C225.586 104.297 225.516 105.164 225.516 106.086ZM265.523 99.9219V119H257.625V93.6406H265.008L265.523 99.9219ZM273.023 93.4531L272.883 100.789C272.57 100.758 272.148 100.719 271.617 100.672C271.086 100.625 270.641 100.602 270.281 100.602C269.359 100.602 268.562 100.711 267.891 100.93C267.234 101.133 266.688 101.445 266.25 101.867C265.828 102.273 265.516 102.789 265.312 103.414C265.125 104.039 265.039 104.766 265.055 105.594L263.625 104.656C263.625 102.953 263.789 101.406 264.117 100.016C264.461 98.6094 264.945 97.3984 265.57 96.3828C266.195 95.3516 266.953 94.5625 267.844 94.0156C268.734 93.4531 269.734 93.1719 270.844 93.1719C271.234 93.1719 271.617 93.1953 271.992 93.2422C272.383 93.2891 272.727 93.3594 273.023 93.4531ZM290.555 112.836V93.6406H298.477V119H291.07L290.555 112.836ZM291.305 107.68L293.367 107.633C293.367 109.336 293.164 110.914 292.758 112.367C292.352 113.805 291.75 115.055 290.953 116.117C290.172 117.18 289.203 118.008 288.047 118.602C286.906 119.18 285.586 119.469 284.086 119.469C282.836 119.469 281.688 119.297 280.641 118.953C279.609 118.594 278.719 118.039 277.969 117.289C277.219 116.523 276.633 115.547 276.211 114.359C275.805 113.156 275.602 111.719 275.602 110.047V93.6406H283.5V110.094C283.5 110.656 283.57 111.141 283.711 111.547C283.852 111.953 284.055 112.297 284.32 112.578C284.586 112.844 284.914 113.047 285.305 113.188C285.711 113.312 286.172 113.375 286.688 113.375C287.875 113.375 288.805 113.125 289.477 112.625C290.148 112.125 290.617 111.445 290.883 110.586C291.164 109.727 291.305 108.758 291.305 107.68ZM310.594 99.0547V119H302.695V93.6406H310.102L310.594 99.0547ZM309.656 105.453L307.805 105.5C307.805 103.562 308.039 101.836 308.508 100.32C308.977 98.7891 309.641 97.4922 310.5 96.4297C311.359 95.3672 312.383 94.5625 313.57 94.0156C314.773 93.4531 316.109 93.1719 317.578 93.1719C318.75 93.1719 319.82 93.3438 320.789 93.6875C321.773 94.0312 322.617 94.5859 323.32 95.3516C324.039 96.1172 324.586 97.1328 324.961 98.3984C325.352 99.6484 325.547 101.195 325.547 103.039V119H317.602V103.016C317.602 102 317.461 101.227 317.18 100.695C316.898 100.148 316.492 99.7734 315.961 99.5703C315.43 99.3672 314.781 99.2656 314.016 99.2656C313.203 99.2656 312.516 99.4219 311.953 99.7344C311.391 100.047 310.938 100.484 310.594 101.047C310.266 101.594 310.023 102.242 309.867 102.992C309.727 103.742 309.656 104.562 309.656 105.453Z" fill="black"/>
<path d="M1134 0H1348C1356.28 0 1363 6.71573 1363 15V148C1363 156.284 1356.28 163 1348 163H1134V0Z" fill="#FDD100"/>
<path d="M1252.3 56.8021C1255.73 56.8021 1259.02 58.1641 1261.44 60.5883C1263.87 63.0126 1265.23 66.3007 1265.23 69.7292C1265.23 73.1577 1263.87 76.4457 1261.44 78.87C1259.02 81.2943 1255.73 82.6563 1252.3 82.6563H1224.93C1222.71 82.6563 1220.58 83.5375 1219.01 85.1062C1217.44 86.6749 1216.56 88.8024 1216.56 91.0208C1216.56 93.2393 1217.44 95.3668 1219.01 96.9355C1220.58 98.5042 1222.71 99.3854 1224.93 99.3854H1257.44L1255.25 97.1954C1255.03 96.9866 1254.85 96.7347 1254.72 96.4549C1254.6 96.1751 1254.53 95.873 1254.53 95.5667C1254.52 95.2604 1254.58 94.9561 1254.69 94.6721C1254.81 94.388 1254.98 94.13 1255.19 93.9134C1255.41 93.6967 1255.67 93.526 1255.95 93.4112C1256.24 93.2965 1256.54 93.2401 1256.85 93.2455C1257.15 93.2509 1257.46 93.318 1257.74 93.4427C1258.02 93.5674 1258.27 93.7471 1258.48 93.9713L1264.56 100.055C1264.99 100.482 1265.23 101.062 1265.23 101.667C1265.23 102.271 1264.99 102.851 1264.56 103.279L1258.48 109.362C1258.27 109.586 1258.02 109.766 1257.74 109.891C1257.46 110.015 1257.15 110.082 1256.85 110.088C1256.54 110.093 1256.24 110.037 1255.95 109.922C1255.67 109.807 1255.41 109.637 1255.19 109.42C1254.98 109.203 1254.81 108.945 1254.69 108.661C1254.58 108.377 1254.52 108.073 1254.53 107.767C1254.53 107.46 1254.6 107.158 1254.72 106.878C1254.85 106.599 1255.03 106.347 1255.25 106.138L1257.44 103.948H1224.93C1221.5 103.948 1218.21 102.586 1215.79 100.162C1213.36 97.7374 1212 94.4493 1212 91.0208C1212 87.5924 1213.36 84.3043 1215.79 81.88C1218.21 79.4557 1221.5 78.0938 1224.93 78.0938H1252.3C1254.52 78.0938 1256.65 77.2125 1258.22 75.6438C1259.79 74.0752 1260.67 71.9476 1260.67 69.7292C1260.67 67.5108 1259.79 65.3832 1258.22 63.8145C1256.65 62.2459 1254.52 61.3646 1252.3 61.3646H1226.01C1225.48 62.6733 1224.51 63.7572 1223.27 64.4304C1222.03 65.1036 1220.59 65.3243 1219.21 65.0547C1217.82 64.785 1216.57 64.0418 1215.67 62.9523C1214.78 61.8629 1214.28 60.4951 1214.28 59.0833C1214.28 57.6716 1214.78 56.3038 1215.67 55.2144C1216.57 54.1249 1217.82 53.3817 1219.21 53.112C1220.59 52.8424 1222.03 53.063 1223.27 53.7363C1224.51 54.4095 1225.48 55.4934 1226.01 56.8021H1252.3Z" fill="white"/>
</svg>
