<svg width="1363" height="163" viewBox="0 0 1363 163" fill="none" xmlns="http://www.w3.org/2000/svg">
<path d="M0 15C0 6.71573 6.71573 0 15 0H37V163H15C6.71573 163 0 156.284 0 148V15Z" fill="#424242"/>
<rect width="1097" height="163" transform="translate(37)" fill="#F0F0F0"/>
<path d="M103.406 56.5352C103.406 56.2305 103.359 55.957 103.266 55.7148C103.18 55.4648 103.016 55.2383 102.773 55.0352C102.531 54.8242 102.191 54.6172 101.754 54.4141C101.316 54.2109 100.75 54 100.055 53.7812C99.2812 53.5312 98.5469 53.25 97.8516 52.9375C97.1641 52.625 96.5547 52.2617 96.0234 51.8477C95.5 51.4258 95.0859 50.9375 94.7812 50.3828C94.4844 49.8281 94.3359 49.1836 94.3359 48.4492C94.3359 47.7383 94.4922 47.0938 94.8047 46.5156C95.1172 45.9297 95.5547 45.4297 96.1172 45.0156C96.6797 44.5938 97.3438 44.2695 98.1094 44.043C98.8828 43.8164 99.7305 43.7031 100.652 43.7031C101.91 43.7031 103.008 43.9297 103.945 44.3828C104.883 44.8359 105.609 45.457 106.125 46.2461C106.648 47.0352 106.91 47.9375 106.91 48.9531H103.418C103.418 48.4531 103.312 48.0156 103.102 47.6406C102.898 47.2578 102.586 46.957 102.164 46.7383C101.75 46.5195 101.227 46.4102 100.594 46.4102C99.9844 46.4102 99.4766 46.5039 99.0703 46.6914C98.6641 46.8711 98.3594 47.1172 98.1562 47.4297C97.9531 47.7344 97.8516 48.0781 97.8516 48.4609C97.8516 48.75 97.9219 49.0117 98.0625 49.2461C98.2109 49.4805 98.4297 49.6992 98.7188 49.9023C99.0078 50.1055 99.3633 50.2969 99.7852 50.4766C100.207 50.6562 100.695 50.832 101.25 51.0039C102.18 51.2852 102.996 51.6016 103.699 51.9531C104.41 52.3047 105.004 52.6992 105.48 53.1367C105.957 53.5742 106.316 54.0703 106.559 54.625C106.801 55.1797 106.922 55.8086 106.922 56.5117C106.922 57.2539 106.777 57.918 106.488 58.5039C106.199 59.0898 105.781 59.5859 105.234 59.9922C104.688 60.3984 104.035 60.707 103.277 60.918C102.52 61.1289 101.672 61.2344 100.734 61.2344C99.8906 61.2344 99.0586 61.125 98.2383 60.9062C97.418 60.6797 96.6719 60.3398 96 59.8867C95.3359 59.4336 94.8047 58.8555 94.4062 58.1523C94.0078 57.4492 93.8086 56.6172 93.8086 55.6562H97.3359C97.3359 56.1875 97.418 56.6367 97.582 57.0039C97.7461 57.3711 97.9766 57.668 98.2734 57.8945C98.5781 58.1211 98.9375 58.2852 99.3516 58.3867C99.7734 58.4883 100.234 58.5391 100.734 58.5391C101.344 58.5391 101.844 58.4531 102.234 58.2812C102.633 58.1094 102.926 57.8711 103.113 57.5664C103.309 57.2617 103.406 56.918 103.406 56.5352ZM114.938 61.2344C113.953 61.2344 113.07 61.0781 112.289 60.7656C111.508 60.4453 110.844 60.0039 110.297 59.4414C109.758 58.8789 109.344 58.2266 109.055 57.4844C108.766 56.7344 108.621 55.9375 108.621 55.0938V54.625C108.621 53.6641 108.758 52.7852 109.031 51.9883C109.305 51.1914 109.695 50.5 110.203 49.9141C110.719 49.3281 111.344 48.8789 112.078 48.5664C112.812 48.2461 113.641 48.0859 114.562 48.0859C115.461 48.0859 116.258 48.2344 116.953 48.5312C117.648 48.8281 118.23 49.25 118.699 49.7969C119.176 50.3438 119.535 51 119.777 51.7656C120.02 52.5234 120.141 53.3672 120.141 54.2969V55.7031H110.062V53.4531H116.824V53.1953C116.824 52.7266 116.738 52.3086 116.566 51.9414C116.402 51.5664 116.152 51.2695 115.816 51.0508C115.48 50.832 115.051 50.7227 114.527 50.7227C114.082 50.7227 113.699 50.8203 113.379 51.0156C113.059 51.2109 112.797 51.4844 112.594 51.8359C112.398 52.1875 112.25 52.6016 112.148 53.0781C112.055 53.5469 112.008 54.0625 112.008 54.625V55.0938C112.008 55.6016 112.078 56.0703 112.219 56.5C112.367 56.9297 112.574 57.3008 112.84 57.6133C113.113 57.9258 113.441 58.168 113.824 58.3398C114.215 58.5117 114.656 58.5977 115.148 58.5977C115.758 58.5977 116.324 58.4805 116.848 58.2461C117.379 58.0039 117.836 57.6406 118.219 57.1562L119.859 58.9375C119.594 59.3203 119.23 59.6875 118.77 60.0391C118.316 60.3906 117.77 60.6797 117.129 60.9062C116.488 61.125 115.758 61.2344 114.938 61.2344ZM125.367 51.0273V61H121.992V48.3203H125.156L125.367 51.0273ZM124.875 54.2148H123.961C123.961 53.2773 124.082 52.4336 124.324 51.6836C124.566 50.9258 124.906 50.2812 125.344 49.75C125.781 49.2109 126.301 48.8008 126.902 48.5195C127.512 48.2305 128.191 48.0859 128.941 48.0859C129.535 48.0859 130.078 48.1719 130.57 48.3438C131.062 48.5156 131.484 48.7891 131.836 49.1641C132.195 49.5391 132.469 50.0352 132.656 50.6523C132.852 51.2695 132.949 52.0234 132.949 52.9141V61H129.551V52.9023C129.551 52.3398 129.473 51.9023 129.316 51.5898C129.16 51.2773 128.93 51.0586 128.625 50.9336C128.328 50.8008 127.961 50.7344 127.523 50.7344C127.07 50.7344 126.676 50.8242 126.34 51.0039C126.012 51.1836 125.738 51.4336 125.52 51.7539C125.309 52.0664 125.148 52.4336 125.039 52.8555C124.93 53.2773 124.875 53.7305 124.875 54.2148ZM141.727 48.3203V50.7109H134.344V48.3203H141.727ZM136.172 45.1914H139.547V57.1797C139.547 57.5469 139.594 57.8281 139.688 58.0234C139.789 58.2188 139.938 58.3555 140.133 58.4336C140.328 58.5039 140.574 58.5391 140.871 58.5391C141.082 58.5391 141.27 58.5312 141.434 58.5156C141.605 58.4922 141.75 58.4688 141.867 58.4453L141.879 60.9297C141.59 61.0234 141.277 61.0977 140.941 61.1523C140.605 61.207 140.234 61.2344 139.828 61.2344C139.086 61.2344 138.438 61.1133 137.883 60.8711C137.336 60.6211 136.914 60.2227 136.617 59.6758C136.32 59.1289 136.172 58.4102 136.172 57.5195V45.1914ZM147.211 48.3203V61H143.824V48.3203H147.211ZM143.613 45.0156C143.613 44.5234 143.785 44.1172 144.129 43.7969C144.473 43.4766 144.934 43.3164 145.512 43.3164C146.082 43.3164 146.539 43.4766 146.883 43.7969C147.234 44.1172 147.41 44.5234 147.41 45.0156C147.41 45.5078 147.234 45.9141 146.883 46.2344C146.539 46.5547 146.082 46.7148 145.512 46.7148C144.934 46.7148 144.473 46.5547 144.129 46.2344C143.785 45.9141 143.613 45.5078 143.613 45.0156ZM153.305 51.0273V61H149.93V48.3203H153.094L153.305 51.0273ZM152.812 54.2148H151.898C151.898 53.2773 152.02 52.4336 152.262 51.6836C152.504 50.9258 152.844 50.2812 153.281 49.75C153.719 49.2109 154.238 48.8008 154.84 48.5195C155.449 48.2305 156.129 48.0859 156.879 48.0859C157.473 48.0859 158.016 48.1719 158.508 48.3438C159 48.5156 159.422 48.7891 159.773 49.1641C160.133 49.5391 160.406 50.0352 160.594 50.6523C160.789 51.2695 160.887 52.0234 160.887 52.9141V61H157.488V52.9023C157.488 52.3398 157.41 51.9023 157.254 51.5898C157.098 51.2773 156.867 51.0586 156.562 50.9336C156.266 50.8008 155.898 50.7344 155.461 50.7344C155.008 50.7344 154.613 50.8242 154.277 51.0039C153.949 51.1836 153.676 51.4336 153.457 51.7539C153.246 52.0664 153.086 52.4336 152.977 52.8555C152.867 53.2773 152.812 53.7305 152.812 54.2148ZM169.289 61.2344C168.305 61.2344 167.422 61.0781 166.641 60.7656C165.859 60.4453 165.195 60.0039 164.648 59.4414C164.109 58.8789 163.695 58.2266 163.406 57.4844C163.117 56.7344 162.973 55.9375 162.973 55.0938V54.625C162.973 53.6641 163.109 52.7852 163.383 51.9883C163.656 51.1914 164.047 50.5 164.555 49.9141C165.07 49.3281 165.695 48.8789 166.43 48.5664C167.164 48.2461 167.992 48.0859 168.914 48.0859C169.812 48.0859 170.609 48.2344 171.305 48.5312C172 48.8281 172.582 49.25 173.051 49.7969C173.527 50.3438 173.887 51 174.129 51.7656C174.371 52.5234 174.492 53.3672 174.492 54.2969V55.7031H164.414V53.4531H171.176V53.1953C171.176 52.7266 171.09 52.3086 170.918 51.9414C170.754 51.5664 170.504 51.2695 170.168 51.0508C169.832 50.832 169.402 50.7227 168.879 50.7227C168.434 50.7227 168.051 50.8203 167.73 51.0156C167.41 51.2109 167.148 51.4844 166.945 51.8359C166.75 52.1875 166.602 52.6016 166.5 53.0781C166.406 53.5469 166.359 54.0625 166.359 54.625V55.0938C166.359 55.6016 166.43 56.0703 166.57 56.5C166.719 56.9297 166.926 57.3008 167.191 57.6133C167.465 57.9258 167.793 58.168 168.176 58.3398C168.566 58.5117 169.008 58.5977 169.5 58.5977C170.109 58.5977 170.676 58.4805 171.199 58.2461C171.73 58.0039 172.188 57.6406 172.57 57.1562L174.211 58.9375C173.945 59.3203 173.582 59.6875 173.121 60.0391C172.668 60.3906 172.121 60.6797 171.48 60.9062C170.84 61.125 170.109 61.2344 169.289 61.2344ZM179.977 43V61H176.59V43H179.977Z" fill="#888888"/>
<path d="M114.117 84.875H122.344V107.164C122.344 109.82 121.789 112.07 120.68 113.914C119.57 115.742 118.016 117.125 116.016 118.062C114.016 119 111.664 119.469 108.961 119.469C106.289 119.469 103.938 119 101.906 118.062C99.8906 117.125 98.3125 115.742 97.1719 113.914C96.0469 112.07 95.4844 109.82 95.4844 107.164V84.875H103.734V107.164C103.734 108.57 103.938 109.719 104.344 110.609C104.75 111.484 105.344 112.125 106.125 112.531C106.906 112.938 107.852 113.141 108.961 113.141C110.086 113.141 111.031 112.938 111.797 112.531C112.562 112.125 113.141 111.484 113.531 110.609C113.922 109.719 114.117 108.57 114.117 107.164V84.875ZM136.266 84.875V119H128.062V84.875H136.266ZM172.523 84.875H180.75V107.164C180.75 109.82 180.195 112.07 179.086 113.914C177.977 115.742 176.422 117.125 174.422 118.062C172.422 119 170.07 119.469 167.367 119.469C164.695 119.469 162.344 119 160.312 118.062C158.297 117.125 156.719 115.742 155.578 113.914C154.453 112.07 153.891 109.82 153.891 107.164V84.875H162.141V107.164C162.141 108.57 162.344 109.719 162.75 110.609C163.156 111.484 163.75 112.125 164.531 112.531C165.312 112.938 166.258 113.141 167.367 113.141C168.492 113.141 169.438 112.938 170.203 112.531C170.969 112.125 171.547 111.484 171.938 110.609C172.328 109.719 172.523 108.57 172.523 107.164V84.875ZM193.078 84.875L198.656 96.2188L204.234 84.875H213.609L204.094 101.797L213.867 119H204.398L198.656 107.445L192.914 119H183.422L193.219 101.797L183.68 84.875H193.078Z" fill="black"/>
<path d="M1134 0H1348C1356.28 0 1363 6.71573 1363 15V148C1363 156.284 1356.28 163 1348 163H1134V0Z" fill="#FDD100"/>
<path d="M1248.5 111.917C1244.51 111.917 1240.55 111.13 1236.86 109.601C1233.17 108.073 1229.82 105.832 1226.99 103.008C1221.29 97.3036 1218.08 89.567 1218.08 81.5C1218.08 73.433 1221.29 65.6964 1226.99 59.9921C1232.7 54.2879 1240.43 51.0833 1248.5 51.0833C1265.23 51.0833 1278.92 63.25 1278.92 78.4583C1278.92 83.2985 1276.99 87.9405 1273.57 91.363C1270.15 94.7855 1265.51 96.7083 1260.67 96.7083H1255.19C1254.28 96.7083 1253.67 97.3166 1253.67 98.2291C1253.67 98.5333 1253.97 98.8375 1253.97 99.1416C1255.19 100.662 1255.8 102.487 1255.8 104.312C1256.1 108.571 1252.76 111.917 1248.5 111.917ZM1248.5 57.1666C1242.05 57.1666 1235.86 59.7303 1231.29 64.2937C1226.73 68.8571 1224.17 75.0464 1224.17 81.5C1224.17 87.9536 1226.73 94.1429 1231.29 98.7062C1235.86 103.27 1242.05 105.833 1248.5 105.833C1249.41 105.833 1250.02 105.225 1250.02 104.312C1250.02 103.704 1249.72 103.4 1249.72 103.096C1248.5 101.575 1247.89 100.054 1247.89 98.2291C1247.89 93.9708 1251.24 90.625 1255.5 90.625H1260.67C1263.89 90.625 1266.99 89.3431 1269.27 87.0614C1271.55 84.7798 1272.83 81.6851 1272.83 78.4583C1272.83 66.5958 1261.88 57.1666 1248.5 57.1666ZM1231.77 75.4166C1234.2 75.4166 1236.33 77.5458 1236.33 79.9791C1236.33 82.4125 1234.2 84.5416 1231.77 84.5416C1229.34 84.5416 1227.21 82.4125 1227.21 79.9791C1227.21 77.5458 1229.34 75.4166 1231.77 75.4166ZM1240.9 63.25C1243.33 63.25 1245.46 65.3791 1245.46 67.8125C1245.46 70.2458 1243.33 72.375 1240.9 72.375C1238.46 72.375 1236.33 70.2458 1236.33 67.8125C1236.33 65.3791 1238.46 63.25 1240.9 63.25ZM1256.1 63.25C1258.54 63.25 1260.67 65.3791 1260.67 67.8125C1260.67 70.2458 1258.54 72.375 1256.1 72.375C1253.67 72.375 1251.54 70.2458 1251.54 67.8125C1251.54 65.3791 1253.67 63.25 1256.1 63.25ZM1265.23 75.4166C1267.66 75.4166 1269.79 77.5458 1269.79 79.9791C1269.79 82.4125 1267.66 84.5416 1265.23 84.5416C1262.8 84.5416 1260.67 82.4125 1260.67 79.9791C1260.67 77.5458 1262.8 75.4166 1265.23 75.4166Z" fill="white"/>
</svg>
