<svg width="1363" height="163" viewBox="0 0 1363 163" fill="none" xmlns="http://www.w3.org/2000/svg">
<path d="M0 15C0 6.71573 6.71573 0 15 0H37V163H15C6.71573 163 0 156.284 0 148V15Z" fill="#424242"/>
<rect width="1097" height="163" transform="translate(37)" fill="#F0F0F0"/>
<path d="M103.406 56.5352C103.406 56.2305 103.359 55.957 103.266 55.7148C103.18 55.4648 103.016 55.2383 102.773 55.0352C102.531 54.8242 102.191 54.6172 101.754 54.4141C101.316 54.2109 100.75 54 100.055 53.7812C99.2812 53.5312 98.5469 53.25 97.8516 52.9375C97.1641 52.625 96.5547 52.2617 96.0234 51.8477C95.5 51.4258 95.0859 50.9375 94.7812 50.3828C94.4844 49.8281 94.3359 49.1836 94.3359 48.4492C94.3359 47.7383 94.4922 47.0938 94.8047 46.5156C95.1172 45.9297 95.5547 45.4297 96.1172 45.0156C96.6797 44.5938 97.3438 44.2695 98.1094 44.043C98.8828 43.8164 99.7305 43.7031 100.652 43.7031C101.91 43.7031 103.008 43.9297 103.945 44.3828C104.883 44.8359 105.609 45.457 106.125 46.2461C106.648 47.0352 106.91 47.9375 106.91 48.9531H103.418C103.418 48.4531 103.312 48.0156 103.102 47.6406C102.898 47.2578 102.586 46.957 102.164 46.7383C101.75 46.5195 101.227 46.4102 100.594 46.4102C99.9844 46.4102 99.4766 46.5039 99.0703 46.6914C98.6641 46.8711 98.3594 47.1172 98.1562 47.4297C97.9531 47.7344 97.8516 48.0781 97.8516 48.4609C97.8516 48.75 97.9219 49.0117 98.0625 49.2461C98.2109 49.4805 98.4297 49.6992 98.7188 49.9023C99.0078 50.1055 99.3633 50.2969 99.7852 50.4766C100.207 50.6562 100.695 50.832 101.25 51.0039C102.18 51.2852 102.996 51.6016 103.699 51.9531C104.41 52.3047 105.004 52.6992 105.48 53.1367C105.957 53.5742 106.316 54.0703 106.559 54.625C106.801 55.1797 106.922 55.8086 106.922 56.5117C106.922 57.2539 106.777 57.918 106.488 58.5039C106.199 59.0898 105.781 59.5859 105.234 59.9922C104.688 60.3984 104.035 60.707 103.277 60.918C102.52 61.1289 101.672 61.2344 100.734 61.2344C99.8906 61.2344 99.0586 61.125 98.2383 60.9062C97.418 60.6797 96.6719 60.3398 96 59.8867C95.3359 59.4336 94.8047 58.8555 94.4062 58.1523C94.0078 57.4492 93.8086 56.6172 93.8086 55.6562H97.3359C97.3359 56.1875 97.418 56.6367 97.582 57.0039C97.7461 57.3711 97.9766 57.668 98.2734 57.8945C98.5781 58.1211 98.9375 58.2852 99.3516 58.3867C99.7734 58.4883 100.234 58.5391 100.734 58.5391C101.344 58.5391 101.844 58.4531 102.234 58.2812C102.633 58.1094 102.926 57.8711 103.113 57.5664C103.309 57.2617 103.406 56.918 103.406 56.5352ZM114.938 61.2344C113.953 61.2344 113.07 61.0781 112.289 60.7656C111.508 60.4453 110.844 60.0039 110.297 59.4414C109.758 58.8789 109.344 58.2266 109.055 57.4844C108.766 56.7344 108.621 55.9375 108.621 55.0938V54.625C108.621 53.6641 108.758 52.7852 109.031 51.9883C109.305 51.1914 109.695 50.5 110.203 49.9141C110.719 49.3281 111.344 48.8789 112.078 48.5664C112.812 48.2461 113.641 48.0859 114.562 48.0859C115.461 48.0859 116.258 48.2344 116.953 48.5312C117.648 48.8281 118.23 49.25 118.699 49.7969C119.176 50.3438 119.535 51 119.777 51.7656C120.02 52.5234 120.141 53.3672 120.141 54.2969V55.7031H110.062V53.4531H116.824V53.1953C116.824 52.7266 116.738 52.3086 116.566 51.9414C116.402 51.5664 116.152 51.2695 115.816 51.0508C115.48 50.832 115.051 50.7227 114.527 50.7227C114.082 50.7227 113.699 50.8203 113.379 51.0156C113.059 51.2109 112.797 51.4844 112.594 51.8359C112.398 52.1875 112.25 52.6016 112.148 53.0781C112.055 53.5469 112.008 54.0625 112.008 54.625V55.0938C112.008 55.6016 112.078 56.0703 112.219 56.5C112.367 56.9297 112.574 57.3008 112.84 57.6133C113.113 57.9258 113.441 58.168 113.824 58.3398C114.215 58.5117 114.656 58.5977 115.148 58.5977C115.758 58.5977 116.324 58.4805 116.848 58.2461C117.379 58.0039 117.836 57.6406 118.219 57.1562L119.859 58.9375C119.594 59.3203 119.23 59.6875 118.77 60.0391C118.316 60.3906 117.77 60.6797 117.129 60.9062C116.488 61.125 115.758 61.2344 114.938 61.2344ZM125.367 51.0273V61H121.992V48.3203H125.156L125.367 51.0273ZM124.875 54.2148H123.961C123.961 53.2773 124.082 52.4336 124.324 51.6836C124.566 50.9258 124.906 50.2812 125.344 49.75C125.781 49.2109 126.301 48.8008 126.902 48.5195C127.512 48.2305 128.191 48.0859 128.941 48.0859C129.535 48.0859 130.078 48.1719 130.57 48.3438C131.062 48.5156 131.484 48.7891 131.836 49.1641C132.195 49.5391 132.469 50.0352 132.656 50.6523C132.852 51.2695 132.949 52.0234 132.949 52.9141V61H129.551V52.9023C129.551 52.3398 129.473 51.9023 129.316 51.5898C129.16 51.2773 128.93 51.0586 128.625 50.9336C128.328 50.8008 127.961 50.7344 127.523 50.7344C127.07 50.7344 126.676 50.8242 126.34 51.0039C126.012 51.1836 125.738 51.4336 125.52 51.7539C125.309 52.0664 125.148 52.4336 125.039 52.8555C124.93 53.2773 124.875 53.7305 124.875 54.2148ZM141.727 48.3203V50.7109H134.344V48.3203H141.727ZM136.172 45.1914H139.547V57.1797C139.547 57.5469 139.594 57.8281 139.688 58.0234C139.789 58.2188 139.938 58.3555 140.133 58.4336C140.328 58.5039 140.574 58.5391 140.871 58.5391C141.082 58.5391 141.27 58.5312 141.434 58.5156C141.605 58.4922 141.75 58.4688 141.867 58.4453L141.879 60.9297C141.59 61.0234 141.277 61.0977 140.941 61.1523C140.605 61.207 140.234 61.2344 139.828 61.2344C139.086 61.2344 138.438 61.1133 137.883 60.8711C137.336 60.6211 136.914 60.2227 136.617 59.6758C136.32 59.1289 136.172 58.4102 136.172 57.5195V45.1914ZM147.211 48.3203V61H143.824V48.3203H147.211ZM143.613 45.0156C143.613 44.5234 143.785 44.1172 144.129 43.7969C144.473 43.4766 144.934 43.3164 145.512 43.3164C146.082 43.3164 146.539 43.4766 146.883 43.7969C147.234 44.1172 147.41 44.5234 147.41 45.0156C147.41 45.5078 147.234 45.9141 146.883 46.2344C146.539 46.5547 146.082 46.7148 145.512 46.7148C144.934 46.7148 144.473 46.5547 144.129 46.2344C143.785 45.9141 143.613 45.5078 143.613 45.0156ZM153.305 51.0273V61H149.93V48.3203H153.094L153.305 51.0273ZM152.812 54.2148H151.898C151.898 53.2773 152.02 52.4336 152.262 51.6836C152.504 50.9258 152.844 50.2812 153.281 49.75C153.719 49.2109 154.238 48.8008 154.84 48.5195C155.449 48.2305 156.129 48.0859 156.879 48.0859C157.473 48.0859 158.016 48.1719 158.508 48.3438C159 48.5156 159.422 48.7891 159.773 49.1641C160.133 49.5391 160.406 50.0352 160.594 50.6523C160.789 51.2695 160.887 52.0234 160.887 52.9141V61H157.488V52.9023C157.488 52.3398 157.41 51.9023 157.254 51.5898C157.098 51.2773 156.867 51.0586 156.562 50.9336C156.266 50.8008 155.898 50.7344 155.461 50.7344C155.008 50.7344 154.613 50.8242 154.277 51.0039C153.949 51.1836 153.676 51.4336 153.457 51.7539C153.246 52.0664 153.086 52.4336 152.977 52.8555C152.867 53.2773 152.812 53.7305 152.812 54.2148ZM169.289 61.2344C168.305 61.2344 167.422 61.0781 166.641 60.7656C165.859 60.4453 165.195 60.0039 164.648 59.4414C164.109 58.8789 163.695 58.2266 163.406 57.4844C163.117 56.7344 162.973 55.9375 162.973 55.0938V54.625C162.973 53.6641 163.109 52.7852 163.383 51.9883C163.656 51.1914 164.047 50.5 164.555 49.9141C165.07 49.3281 165.695 48.8789 166.43 48.5664C167.164 48.2461 167.992 48.0859 168.914 48.0859C169.812 48.0859 170.609 48.2344 171.305 48.5312C172 48.8281 172.582 49.25 173.051 49.7969C173.527 50.3438 173.887 51 174.129 51.7656C174.371 52.5234 174.492 53.3672 174.492 54.2969V55.7031H164.414V53.4531H171.176V53.1953C171.176 52.7266 171.09 52.3086 170.918 51.9414C170.754 51.5664 170.504 51.2695 170.168 51.0508C169.832 50.832 169.402 50.7227 168.879 50.7227C168.434 50.7227 168.051 50.8203 167.73 51.0156C167.41 51.2109 167.148 51.4844 166.945 51.8359C166.75 52.1875 166.602 52.6016 166.5 53.0781C166.406 53.5469 166.359 54.0625 166.359 54.625V55.0938C166.359 55.6016 166.43 56.0703 166.57 56.5C166.719 56.9297 166.926 57.3008 167.191 57.6133C167.465 57.9258 167.793 58.168 168.176 58.3398C168.566 58.5117 169.008 58.5977 169.5 58.5977C170.109 58.5977 170.676 58.4805 171.199 58.2461C171.73 58.0039 172.188 57.6406 172.57 57.1562L174.211 58.9375C173.945 59.3203 173.582 59.6875 173.121 60.0391C172.668 60.3906 172.121 60.6797 171.48 60.9062C170.84 61.125 170.109 61.2344 169.289 61.2344ZM179.977 43V61H176.59V43H179.977Z" fill="#888888"/>
<path d="M104.344 84.875V119H96.1406V84.875H104.344ZM139.008 101.258V102.641C139.008 105.25 138.641 107.594 137.906 109.672C137.188 111.734 136.164 113.5 134.836 114.969C133.508 116.422 131.938 117.539 130.125 118.32C128.312 119.086 126.312 119.469 124.125 119.469C121.922 119.469 119.906 119.086 118.078 118.32C116.266 117.539 114.688 116.422 113.344 114.969C112.016 113.5 110.984 111.734 110.25 109.672C109.531 107.594 109.172 105.25 109.172 102.641V101.258C109.172 98.6484 109.531 96.3047 110.25 94.2266C110.984 92.1484 112.008 90.3828 113.32 88.9297C114.648 87.4609 116.219 86.3438 118.031 85.5781C119.859 84.7969 121.875 84.4062 124.078 84.4062C126.266 84.4062 128.266 84.7969 130.078 85.5781C131.906 86.3438 133.484 87.4609 134.812 88.9297C136.141 90.3828 137.172 92.1484 137.906 94.2266C138.641 96.3047 139.008 98.6484 139.008 101.258ZM130.664 102.641V101.211C130.664 99.5234 130.516 98.0391 130.219 96.7578C129.938 95.4609 129.516 94.375 128.953 93.5C128.391 92.625 127.695 91.9688 126.867 91.5312C126.055 91.0781 125.125 90.8516 124.078 90.8516C122.984 90.8516 122.031 91.0781 121.219 91.5312C120.406 91.9688 119.727 92.625 119.18 93.5C118.633 94.375 118.219 95.4609 117.938 96.7578C117.672 98.0391 117.539 99.5234 117.539 101.211V102.641C117.539 104.312 117.672 105.797 117.938 107.094C118.219 108.375 118.633 109.461 119.18 110.352C119.742 111.242 120.43 111.914 121.242 112.367C122.07 112.82 123.031 113.047 124.125 113.047C125.172 113.047 126.102 112.82 126.914 112.367C127.727 111.914 128.406 111.242 128.953 110.352C129.516 109.461 129.938 108.375 130.219 107.094C130.516 105.797 130.664 104.312 130.664 102.641ZM157.781 84.875V119H149.555V84.875H157.781ZM168.047 84.875V91.2266H139.523V84.875H168.047ZM199.664 109.93C199.664 109.398 199.586 108.922 199.43 108.5C199.273 108.062 198.984 107.656 198.562 107.281C198.141 106.906 197.531 106.531 196.734 106.156C195.953 105.766 194.922 105.359 193.641 104.938C192.141 104.438 190.695 103.875 189.305 103.25C187.914 102.609 186.672 101.867 185.578 101.023C184.484 100.164 183.617 99.1641 182.977 98.0234C182.336 96.8672 182.016 95.5234 182.016 93.9922C182.016 92.5234 182.344 91.2031 183 90.0312C183.656 88.8438 184.57 87.8359 185.742 87.0078C186.93 86.1641 188.32 85.5234 189.914 85.0859C191.508 84.6328 193.25 84.4062 195.141 84.4062C197.641 84.4062 199.844 84.8438 201.75 85.7188C203.672 86.5781 205.172 87.8047 206.25 89.3984C207.344 90.9766 207.891 92.8438 207.891 95H199.711C199.711 94.1406 199.531 93.3828 199.172 92.7266C198.828 92.0703 198.305 91.5547 197.602 91.1797C196.898 90.8047 196.016 90.6172 194.953 90.6172C193.922 90.6172 193.055 90.7734 192.352 91.0859C191.648 91.3984 191.117 91.8203 190.758 92.3516C190.398 92.8672 190.219 93.4375 190.219 94.0625C190.219 94.5781 190.359 95.0469 190.641 95.4688C190.938 95.875 191.352 96.2578 191.883 96.6172C192.43 96.9766 193.086 97.3203 193.852 97.6484C194.633 97.9766 195.508 98.2969 196.477 98.6094C198.289 99.1875 199.898 99.8359 201.305 100.555C202.727 101.258 203.922 102.062 204.891 102.969C205.875 103.859 206.617 104.875 207.117 106.016C207.633 107.156 207.891 108.445 207.891 109.883C207.891 111.414 207.594 112.773 207 113.961C206.406 115.148 205.555 116.156 204.445 116.984C203.336 117.797 202.008 118.414 200.461 118.836C198.914 119.258 197.188 119.469 195.281 119.469C193.531 119.469 191.805 119.25 190.102 118.812C188.414 118.359 186.883 117.672 185.508 116.75C184.133 115.812 183.031 114.617 182.203 113.164C181.391 111.695 180.984 109.953 180.984 107.938H189.234C189.234 108.938 189.367 109.781 189.633 110.469C189.898 111.156 190.289 111.711 190.805 112.133C191.32 112.539 191.953 112.836 192.703 113.023C193.453 113.195 194.312 113.281 195.281 113.281C196.328 113.281 197.172 113.133 197.812 112.836C198.453 112.523 198.922 112.117 199.219 111.617C199.516 111.102 199.664 110.539 199.664 109.93ZM222.469 113.375C223.203 113.375 223.828 113.242 224.344 112.977C224.875 112.695 225.273 112.305 225.539 111.805C225.82 111.289 225.953 110.672 225.938 109.953H233.367C233.383 111.859 232.914 113.531 231.961 114.969C231.023 116.391 229.742 117.5 228.117 118.297C226.508 119.078 224.688 119.469 222.656 119.469C220.672 119.469 218.938 119.148 217.453 118.508C215.969 117.852 214.727 116.945 213.727 115.789C212.742 114.617 212 113.25 211.5 111.688C211.016 110.125 210.773 108.43 210.773 106.602V106.062C210.773 104.234 211.016 102.539 211.5 100.977C212 99.3984 212.742 98.0312 213.727 96.875C214.727 95.7031 215.961 94.7969 217.43 94.1562C218.914 93.5 220.641 93.1719 222.609 93.1719C224.719 93.1719 226.578 93.5703 228.188 94.3672C229.812 95.1641 231.086 96.3203 232.008 97.8359C232.93 99.3516 233.383 101.188 233.367 103.344H225.938C225.953 102.578 225.836 101.891 225.586 101.281C225.336 100.672 224.945 100.188 224.414 99.8281C223.898 99.4531 223.234 99.2656 222.422 99.2656C221.609 99.2656 220.953 99.4453 220.453 99.8047C219.953 100.164 219.57 100.664 219.305 101.305C219.055 101.93 218.883 102.648 218.789 103.461C218.711 104.273 218.672 105.141 218.672 106.062V106.602C218.672 107.539 218.711 108.422 218.789 109.25C218.883 110.062 219.062 110.781 219.328 111.406C219.594 112.016 219.977 112.5 220.477 112.859C220.977 113.203 221.641 113.375 222.469 113.375ZM244.477 83V119H236.578V83H244.477ZM243.539 105.453L241.688 105.5C241.688 103.719 241.906 102.078 242.344 100.578C242.781 99.0781 243.406 97.7734 244.219 96.6641C245.031 95.5547 246.008 94.6953 247.148 94.0859C248.289 93.4766 249.555 93.1719 250.945 93.1719C252.195 93.1719 253.336 93.3516 254.367 93.7109C255.414 94.0703 256.312 94.6484 257.062 95.4453C257.828 96.2422 258.414 97.2812 258.82 98.5625C259.242 99.8438 259.453 101.406 259.453 103.25V119H251.508V103.203C251.508 102.172 251.359 101.375 251.062 100.812C250.781 100.234 250.375 99.8359 249.844 99.6172C249.312 99.3828 248.664 99.2656 247.898 99.2656C246.977 99.2656 246.227 99.4219 245.648 99.7344C245.07 100.047 244.625 100.484 244.312 101.047C244.016 101.594 243.812 102.242 243.703 102.992C243.594 103.742 243.539 104.562 243.539 105.453ZM276.117 119.469C274.055 119.469 272.211 119.148 270.586 118.508C268.961 117.852 267.586 116.953 266.461 115.812C265.352 114.672 264.5 113.359 263.906 111.875C263.328 110.391 263.039 108.82 263.039 107.164V106.273C263.039 104.414 263.297 102.695 263.812 101.117C264.328 99.5234 265.094 98.1328 266.109 96.9453C267.125 95.7578 268.398 94.8359 269.93 94.1797C271.461 93.5078 273.242 93.1719 275.273 93.1719C277.07 93.1719 278.68 93.4609 280.102 94.0391C281.523 94.6172 282.727 95.4453 283.711 96.5234C284.711 97.6016 285.469 98.9062 285.984 100.438C286.516 101.969 286.781 103.688 286.781 105.594V108.805H266.062V103.859H279.07V103.25C279.086 102.406 278.938 101.688 278.625 101.094C278.328 100.5 277.891 100.047 277.312 99.7344C276.734 99.4219 276.031 99.2656 275.203 99.2656C274.344 99.2656 273.633 99.4531 273.07 99.8281C272.523 100.203 272.094 100.719 271.781 101.375C271.484 102.016 271.273 102.758 271.148 103.602C271.023 104.445 270.961 105.336 270.961 106.273V107.164C270.961 108.102 271.086 108.953 271.336 109.719C271.602 110.484 271.977 111.141 272.461 111.688C272.961 112.219 273.555 112.633 274.242 112.93C274.945 113.227 275.742 113.375 276.633 113.375C277.711 113.375 278.773 113.172 279.82 112.766C280.867 112.359 281.766 111.688 282.516 110.75L286.102 115.016C285.586 115.75 284.852 116.461 283.898 117.148C282.961 117.836 281.836 118.398 280.523 118.836C279.211 119.258 277.742 119.469 276.117 119.469ZM297.961 99.0078V119H290.062V93.6406H297.469L297.961 99.0078ZM297 105.453L295.195 105.5C295.195 103.719 295.406 102.078 295.828 100.578C296.25 99.0781 296.875 97.7734 297.703 96.6641C298.531 95.5547 299.547 94.6953 300.75 94.0859C301.969 93.4766 303.375 93.1719 304.969 93.1719C306.078 93.1719 307.086 93.3438 307.992 93.6875C308.898 94.0156 309.68 94.5391 310.336 95.2578C310.992 95.9609 311.492 96.8828 311.836 98.0234C312.195 99.1484 312.375 100.5 312.375 102.078V119H304.477V103.086C304.477 102.008 304.352 101.195 304.102 100.648C303.867 100.102 303.523 99.7344 303.07 99.5469C302.617 99.3594 302.062 99.2656 301.406 99.2656C300.719 99.2656 300.102 99.4219 299.555 99.7344C299.008 100.047 298.539 100.484 298.148 101.047C297.773 101.594 297.484 102.242 297.281 102.992C297.094 103.742 297 104.562 297 105.453ZM311.484 105.453L309.281 105.5C309.281 103.719 309.477 102.078 309.867 100.578C310.273 99.0781 310.875 97.7734 311.672 96.6641C312.484 95.5547 313.492 94.6953 314.695 94.0859C315.898 93.4766 317.297 93.1719 318.891 93.1719C320.047 93.1719 321.109 93.3438 322.078 93.6875C323.047 94.0312 323.883 94.5859 324.586 95.3516C325.289 96.1172 325.836 97.1328 326.227 98.3984C326.617 99.6484 326.812 101.195 326.812 103.039V119H318.891V103.039C318.891 101.992 318.766 101.203 318.516 100.672C318.281 100.125 317.938 99.7578 317.484 99.5703C317.031 99.3672 316.492 99.2656 315.867 99.2656C315.117 99.2656 314.469 99.4219 313.922 99.7344C313.375 100.047 312.914 100.484 312.539 101.047C312.18 101.594 311.914 102.242 311.742 102.992C311.57 103.742 311.484 104.562 311.484 105.453ZM344.508 112.625V102.172C344.508 101.453 344.406 100.836 344.203 100.32C344 99.8047 343.68 99.4062 343.242 99.125C342.805 98.8281 342.219 98.6797 341.484 98.6797C340.891 98.6797 340.383 98.7812 339.961 98.9844C339.539 99.1875 339.219 99.4922 339 99.8984C338.781 100.305 338.672 100.82 338.672 101.445H330.773C330.773 100.273 331.031 99.1875 331.547 98.1875C332.078 97.1719 332.828 96.2891 333.797 95.5391C334.781 94.7891 335.953 94.2109 337.312 93.8047C338.688 93.3828 340.219 93.1719 341.906 93.1719C343.922 93.1719 345.719 93.5078 347.297 94.1797C348.891 94.8516 350.148 95.8594 351.07 97.2031C351.992 98.5312 352.453 100.203 352.453 102.219V112.602C352.453 114.258 352.547 115.516 352.734 116.375C352.922 117.219 353.188 117.961 353.531 118.602V119H345.609C345.234 118.219 344.953 117.266 344.766 116.141C344.594 115 344.508 113.828 344.508 112.625ZM345.469 103.508L345.516 107.727H342.023C341.289 107.727 340.664 107.828 340.148 108.031C339.648 108.234 339.242 108.516 338.93 108.875C338.633 109.219 338.414 109.609 338.273 110.047C338.148 110.484 338.086 110.945 338.086 111.43C338.086 111.898 338.195 112.32 338.414 112.695C338.648 113.055 338.961 113.336 339.352 113.539C339.742 113.742 340.18 113.844 340.664 113.844C341.539 113.844 342.281 113.68 342.891 113.352C343.516 113.008 343.992 112.594 344.32 112.109C344.648 111.625 344.812 111.172 344.812 110.75L346.547 113.984C346.234 114.609 345.875 115.242 345.469 115.883C345.078 116.523 344.586 117.117 343.992 117.664C343.414 118.195 342.703 118.633 341.859 118.977C341.016 119.305 339.992 119.469 338.789 119.469C337.227 119.469 335.789 119.148 334.477 118.508C333.18 117.867 332.141 116.977 331.359 115.836C330.578 114.68 330.188 113.352 330.188 111.852C330.188 110.539 330.422 109.367 330.891 108.336C331.375 107.305 332.102 106.43 333.07 105.711C334.039 104.992 335.273 104.445 336.773 104.07C338.273 103.695 340.039 103.508 342.07 103.508H345.469ZM381.961 112.625V102.172C381.961 101.453 381.859 100.836 381.656 100.32C381.453 99.8047 381.133 99.4062 380.695 99.125C380.258 98.8281 379.672 98.6797 378.938 98.6797C378.344 98.6797 377.836 98.7812 377.414 98.9844C376.992 99.1875 376.672 99.4922 376.453 99.8984C376.234 100.305 376.125 100.82 376.125 101.445H368.227C368.227 100.273 368.484 99.1875 369 98.1875C369.531 97.1719 370.281 96.2891 371.25 95.5391C372.234 94.7891 373.406 94.2109 374.766 93.8047C376.141 93.3828 377.672 93.1719 379.359 93.1719C381.375 93.1719 383.172 93.5078 384.75 94.1797C386.344 94.8516 387.602 95.8594 388.523 97.2031C389.445 98.5312 389.906 100.203 389.906 102.219V112.602C389.906 114.258 390 115.516 390.188 116.375C390.375 117.219 390.641 117.961 390.984 118.602V119H383.062C382.688 118.219 382.406 117.266 382.219 116.141C382.047 115 381.961 113.828 381.961 112.625ZM382.922 103.508L382.969 107.727H379.477C378.742 107.727 378.117 107.828 377.602 108.031C377.102 108.234 376.695 108.516 376.383 108.875C376.086 109.219 375.867 109.609 375.727 110.047C375.602 110.484 375.539 110.945 375.539 111.43C375.539 111.898 375.648 112.32 375.867 112.695C376.102 113.055 376.414 113.336 376.805 113.539C377.195 113.742 377.633 113.844 378.117 113.844C378.992 113.844 379.734 113.68 380.344 113.352C380.969 113.008 381.445 112.594 381.773 112.109C382.102 111.625 382.266 111.172 382.266 110.75L384 113.984C383.688 114.609 383.328 115.242 382.922 115.883C382.531 116.523 382.039 117.117 381.445 117.664C380.867 118.195 380.156 118.633 379.312 118.977C378.469 119.305 377.445 119.469 376.242 119.469C374.68 119.469 373.242 119.148 371.93 118.508C370.633 117.867 369.594 116.977 368.812 115.836C368.031 114.68 367.641 113.352 367.641 111.852C367.641 110.539 367.875 109.367 368.344 108.336C368.828 107.305 369.555 106.43 370.523 105.711C371.492 104.992 372.727 104.445 374.227 104.07C375.727 103.695 377.492 103.508 379.523 103.508H382.922ZM402.047 99.0547V119H394.148V93.6406H401.555L402.047 99.0547ZM401.109 105.453L399.258 105.5C399.258 103.562 399.492 101.836 399.961 100.32C400.43 98.7891 401.094 97.4922 401.953 96.4297C402.812 95.3672 403.836 94.5625 405.023 94.0156C406.227 93.4531 407.562 93.1719 409.031 93.1719C410.203 93.1719 411.273 93.3438 412.242 93.6875C413.227 94.0312 414.07 94.5859 414.773 95.3516C415.492 96.1172 416.039 97.1328 416.414 98.3984C416.805 99.6484 417 101.195 417 103.039V119H409.055V103.016C409.055 102 408.914 101.227 408.633 100.695C408.352 100.148 407.945 99.7734 407.414 99.5703C406.883 99.3672 406.234 99.2656 405.469 99.2656C404.656 99.2656 403.969 99.4219 403.406 99.7344C402.844 100.047 402.391 100.484 402.047 101.047C401.719 101.594 401.477 102.242 401.32 102.992C401.18 103.742 401.109 104.562 401.109 105.453ZM435.961 113.188V83H443.906V119H436.781L435.961 113.188ZM420.398 106.625V106.133C420.398 104.211 420.609 102.461 421.031 100.883C421.453 99.2891 422.078 97.9219 422.906 96.7812C423.734 95.625 424.766 94.7344 426 94.1094C427.234 93.4844 428.656 93.1719 430.266 93.1719C431.703 93.1719 432.961 93.5078 434.039 94.1797C435.117 94.8359 436.039 95.7578 436.805 96.9453C437.57 98.1328 438.195 99.5234 438.68 101.117C439.164 102.695 439.531 104.398 439.781 106.227V106.812C439.531 108.531 439.164 110.156 438.68 111.688C438.195 113.203 437.57 114.547 436.805 115.719C436.039 116.891 435.109 117.812 434.016 118.484C432.938 119.141 431.672 119.469 430.219 119.469C428.609 119.469 427.188 119.148 425.953 118.508C424.734 117.867 423.711 116.969 422.883 115.812C422.07 114.656 421.453 113.297 421.031 111.734C420.609 110.172 420.398 108.469 420.398 106.625ZM428.297 106.133V106.625C428.297 107.578 428.359 108.461 428.484 109.273C428.609 110.086 428.82 110.805 429.117 111.43C429.43 112.039 429.836 112.516 430.336 112.859C430.852 113.203 431.484 113.375 432.234 113.375C433.25 113.375 434.086 113.133 434.742 112.648C435.414 112.164 435.906 111.477 436.219 110.586C436.547 109.695 436.688 108.648 436.641 107.445V105.594C436.672 104.562 436.602 103.656 436.43 102.875C436.258 102.078 435.984 101.414 435.609 100.883C435.25 100.352 434.789 99.9531 434.227 99.6875C433.68 99.4062 433.031 99.2656 432.281 99.2656C431.547 99.2656 430.922 99.4375 430.406 99.7812C429.906 100.125 429.5 100.609 429.188 101.234C428.875 101.844 428.648 102.57 428.508 103.414C428.367 104.242 428.297 105.148 428.297 106.133ZM471.797 119H464.227L464.273 112.672H471.797C473.359 112.672 474.68 112.297 475.758 111.547C476.852 110.797 477.68 109.68 478.242 108.195C478.82 106.695 479.109 104.852 479.109 102.664V101.188C479.109 99.5469 478.945 98.1094 478.617 96.875C478.305 95.625 477.836 94.5859 477.211 93.7578C476.586 92.9141 475.805 92.2812 474.867 91.8594C473.945 91.4375 472.883 91.2266 471.68 91.2266H464.086V84.875H471.68C473.992 84.875 476.109 85.2734 478.031 86.0703C479.969 86.8516 481.641 87.9766 483.047 89.4453C484.469 90.8984 485.562 92.625 486.328 94.625C487.109 96.6094 487.5 98.8125 487.5 101.234V102.664C487.5 105.07 487.109 107.273 486.328 109.273C485.562 111.273 484.477 113 483.07 114.453C481.664 115.906 480 117.031 478.078 117.828C476.172 118.609 474.078 119 471.797 119ZM468.938 84.875V119H460.711V84.875H468.938ZM503.695 119.469C501.633 119.469 499.789 119.148 498.164 118.508C496.539 117.852 495.164 116.953 494.039 115.812C492.93 114.672 492.078 113.359 491.484 111.875C490.906 110.391 490.617 108.82 490.617 107.164V106.273C490.617 104.414 490.875 102.695 491.391 101.117C491.906 99.5234 492.672 98.1328 493.688 96.9453C494.703 95.7578 495.977 94.8359 497.508 94.1797C499.039 93.5078 500.82 93.1719 502.852 93.1719C504.648 93.1719 506.258 93.4609 507.68 94.0391C509.102 94.6172 510.305 95.4453 511.289 96.5234C512.289 97.6016 513.047 98.9062 513.562 100.438C514.094 101.969 514.359 103.688 514.359 105.594V108.805H493.641V103.859H506.648V103.25C506.664 102.406 506.516 101.688 506.203 101.094C505.906 100.5 505.469 100.047 504.891 99.7344C504.312 99.4219 503.609 99.2656 502.781 99.2656C501.922 99.2656 501.211 99.4531 500.648 99.8281C500.102 100.203 499.672 100.719 499.359 101.375C499.062 102.016 498.852 102.758 498.727 103.602C498.602 104.445 498.539 105.336 498.539 106.273V107.164C498.539 108.102 498.664 108.953 498.914 109.719C499.18 110.484 499.555 111.141 500.039 111.688C500.539 112.219 501.133 112.633 501.82 112.93C502.523 113.227 503.32 113.375 504.211 113.375C505.289 113.375 506.352 113.172 507.398 112.766C508.445 112.359 509.344 111.688 510.094 110.75L513.68 115.016C513.164 115.75 512.43 116.461 511.477 117.148C510.539 117.836 509.414 118.398 508.102 118.836C506.789 119.258 505.32 119.469 503.695 119.469ZM530.859 111.875C530.859 111.438 530.711 111.062 530.414 110.75C530.133 110.422 529.633 110.125 528.914 109.859C528.195 109.578 527.188 109.297 525.891 109.016C524.656 108.75 523.492 108.398 522.398 107.961C521.32 107.523 520.375 106.992 519.562 106.367C518.75 105.742 518.109 105 517.641 104.141C517.188 103.281 516.961 102.297 516.961 101.188C516.961 100.109 517.188 99.0938 517.641 98.1406C518.109 97.1719 518.789 96.3203 519.68 95.5859C520.586 94.8359 521.688 94.25 522.984 93.8281C524.281 93.3906 525.758 93.1719 527.414 93.1719C529.695 93.1719 531.664 93.5234 533.32 94.2266C534.977 94.9141 536.25 95.8828 537.141 97.1328C538.047 98.3672 538.5 99.7969 538.5 101.422H530.602C530.602 100.781 530.492 100.234 530.273 99.7812C530.07 99.3281 529.734 98.9844 529.266 98.75C528.797 98.5 528.172 98.375 527.391 98.375C526.844 98.375 526.344 98.4766 525.891 98.6797C525.453 98.8828 525.102 99.1641 524.836 99.5234C524.57 99.8828 524.438 100.305 524.438 100.789C524.438 101.133 524.516 101.445 524.672 101.727C524.844 101.992 525.102 102.242 525.445 102.477C525.789 102.695 526.227 102.898 526.758 103.086C527.289 103.258 527.93 103.414 528.68 103.555C530.383 103.867 531.977 104.312 533.461 104.891C534.945 105.469 536.148 106.289 537.07 107.352C538.008 108.414 538.477 109.844 538.477 111.641C538.477 112.766 538.219 113.805 537.703 114.758C537.188 115.695 536.445 116.523 535.477 117.242C534.508 117.945 533.344 118.492 531.984 118.883C530.625 119.273 529.094 119.469 527.391 119.469C524.969 119.469 522.922 119.039 521.25 118.18C519.578 117.305 518.312 116.211 517.453 114.898C516.609 113.57 516.188 112.227 516.188 110.867H523.547C523.578 111.648 523.766 112.289 524.109 112.789C524.469 113.289 524.945 113.656 525.539 113.891C526.133 114.125 526.82 114.242 527.602 114.242C528.32 114.242 528.914 114.141 529.383 113.938C529.867 113.734 530.234 113.461 530.484 113.117C530.734 112.758 530.859 112.344 530.859 111.875ZM550.523 93.6406V119H542.602V93.6406H550.523ZM542.133 87.1016C542.133 85.9766 542.539 85.0547 543.352 84.3359C544.164 83.6172 545.219 83.2578 546.516 83.2578C547.812 83.2578 548.867 83.6172 549.68 84.3359C550.492 85.0547 550.898 85.9766 550.898 87.1016C550.898 88.2266 550.492 89.1484 549.68 89.8672C548.867 90.5859 547.812 90.9453 546.516 90.9453C545.219 90.9453 544.164 90.5859 543.352 89.8672C542.539 89.1484 542.133 88.2266 542.133 87.1016ZM571.336 93.6406H578.508V118.016C578.508 120.359 577.969 122.344 576.891 123.969C575.812 125.609 574.305 126.852 572.367 127.695C570.445 128.555 568.195 128.984 565.617 128.984C564.477 128.984 563.312 128.836 562.125 128.539C560.938 128.258 559.828 127.836 558.797 127.273C557.766 126.711 556.898 126.016 556.195 125.188L559.5 120.547C560.141 121.266 560.945 121.875 561.914 122.375C562.883 122.891 564.023 123.148 565.336 123.148C566.477 123.148 567.43 122.945 568.195 122.539C568.977 122.133 569.57 121.539 569.977 120.758C570.383 119.992 570.586 119.062 570.586 117.969V99.6406L571.336 93.6406ZM554.484 106.625V106.133C554.484 104.211 554.719 102.461 555.188 100.883C555.672 99.2891 556.359 97.9219 557.25 96.7812C558.156 95.625 559.25 94.7344 560.531 94.1094C561.812 93.4844 563.258 93.1719 564.867 93.1719C566.602 93.1719 568.023 93.5078 569.133 94.1797C570.258 94.8359 571.156 95.7578 571.828 96.9453C572.516 98.1328 573.047 99.5234 573.422 101.117C573.812 102.695 574.141 104.398 574.406 106.227V106.812C574.141 108.531 573.773 110.156 573.305 111.688C572.852 113.203 572.258 114.547 571.523 115.719C570.789 116.891 569.867 117.812 568.758 118.484C567.664 119.141 566.352 119.469 564.82 119.469C563.227 119.469 561.789 119.148 560.508 118.508C559.242 117.867 558.156 116.969 557.25 115.812C556.359 114.656 555.672 113.297 555.188 111.734C554.719 110.172 554.484 108.469 554.484 106.625ZM562.383 106.133V106.625C562.383 107.578 562.469 108.461 562.641 109.273C562.828 110.086 563.109 110.805 563.484 111.43C563.859 112.039 564.32 112.516 564.867 112.859C565.43 113.203 566.086 113.375 566.836 113.375C567.977 113.375 568.898 113.133 569.602 112.648C570.305 112.164 570.812 111.477 571.125 110.586C571.438 109.695 571.57 108.648 571.523 107.445V105.594C571.555 104.562 571.484 103.656 571.312 102.875C571.141 102.078 570.867 101.414 570.492 100.883C570.133 100.352 569.648 99.9531 569.039 99.6875C568.445 99.4062 567.727 99.2656 566.883 99.2656C566.148 99.2656 565.5 99.4375 564.938 99.7812C564.375 100.125 563.906 100.609 563.531 101.234C563.156 101.844 562.867 102.57 562.664 103.414C562.477 104.242 562.383 105.148 562.383 106.133ZM590.812 99.0547V119H582.914V93.6406H590.32L590.812 99.0547ZM589.875 105.453L588.023 105.5C588.023 103.562 588.258 101.836 588.727 100.32C589.195 98.7891 589.859 97.4922 590.719 96.4297C591.578 95.3672 592.602 94.5625 593.789 94.0156C594.992 93.4531 596.328 93.1719 597.797 93.1719C598.969 93.1719 600.039 93.3438 601.008 93.6875C601.992 94.0312 602.836 94.5859 603.539 95.3516C604.258 96.1172 604.805 97.1328 605.18 98.3984C605.57 99.6484 605.766 101.195 605.766 103.039V119H597.82V103.016C597.82 102 597.68 101.227 597.398 100.695C597.117 100.148 596.711 99.7734 596.18 99.5703C595.648 99.3672 595 99.2656 594.234 99.2656C593.422 99.2656 592.734 99.4219 592.172 99.7344C591.609 100.047 591.156 100.484 590.812 101.047C590.484 101.594 590.242 102.242 590.086 102.992C589.945 103.742 589.875 104.562 589.875 105.453Z" fill="black"/>
<path d="M1134 0H1348C1356.28 0 1363 6.71573 1363 15V148C1363 156.284 1356.28 163 1348 163H1134V0Z" fill="#FDD100"/>
<path d="M1227.45 84V109.5H1221.78V84H1227.45ZM1278.45 84V89.6666H1272.78V109.5H1267.11V89.6666H1261.45V84H1278.45ZM1247.28 78.3333C1251.25 78.3549 1255.14 79.4822 1258.5 81.5888L1262.6 77.4805C1258.1 74.3545 1252.76 72.6751 1247.28 72.6666C1241.88 72.6767 1236.6 74.3375 1232.17 77.4266L1236.28 81.5435C1239.57 79.4664 1243.38 78.3543 1247.28 78.3333Z" fill="#F0F0F0"/>
<path d="M1247.28 67C1254.26 67.0157 1261.04 69.2701 1266.64 73.4316L1270.69 69.38C1263.99 64.174 1255.76 61.3431 1247.28 61.3333C1238.87 61.3433 1230.71 64.1571 1224.09 69.329L1228.13 73.3806C1233.66 69.2511 1240.38 67.0138 1247.28 67Z" fill="#F0F0F0"/>
<path d="M1247.28 55.6666C1257.26 55.6679 1266.94 59.0764 1274.73 65.3283L1278.77 61.2794C1269.93 53.996 1258.84 50.0088 1247.39 50C1235.94 49.9912 1224.85 53.9614 1216 61.2313L1220.04 65.2801C1227.76 59.0624 1237.37 55.6702 1247.28 55.6666ZM1247.28 84C1244.76 84 1242.29 84.7477 1240.2 86.1487C1238.1 87.5497 1236.47 89.541 1235.5 91.8707C1234.54 94.2005 1234.28 96.7641 1234.77 99.2374C1235.27 101.711 1236.48 103.982 1238.26 105.766C1240.05 107.549 1242.32 108.763 1244.79 109.255C1247.27 109.747 1249.83 109.494 1252.16 108.529C1254.49 107.564 1256.48 105.93 1257.88 103.833C1259.28 101.737 1260.03 99.2717 1260.03 96.75C1260.03 93.3684 1258.69 90.1254 1256.3 87.7343C1253.9 85.3433 1250.66 84 1247.28 84ZM1247.28 103.833C1245.88 103.833 1244.51 103.418 1243.34 102.64C1242.18 101.861 1241.27 100.755 1240.74 99.4606C1240.2 98.1663 1240.06 96.7421 1240.33 95.3681C1240.61 93.994 1241.28 92.7319 1242.27 91.7413C1243.26 90.7507 1244.52 90.076 1245.9 89.8027C1247.27 89.5294 1248.7 89.6697 1249.99 90.2058C1251.28 90.7419 1252.39 91.6498 1253.17 92.8147C1253.95 93.9795 1254.36 95.349 1254.36 96.75C1254.36 98.6286 1253.62 100.43 1252.29 101.759C1250.96 103.087 1249.16 103.833 1247.28 103.833Z" fill="#F0F0F0"/>
</svg>
