<svg width="1363" height="163" viewBox="0 0 1363 163" fill="none" xmlns="http://www.w3.org/2000/svg">
<path d="M0 15C0 6.71573 6.71573 0 15 0H37V163H15C6.71573 163 0 156.284 0 148V15Z" fill="#424242"/>
<rect width="1097" height="163" transform="translate(37)" fill="#F0F0F0"/>
<path d="M101.906 53.9219L94.3945 51.2383V48.0859L104.602 52.375V54.6367L101.906 53.9219ZM94.3945 56.1719L101.918 53.4297L104.602 52.7852V55.0352L94.3945 59.3242V56.1719ZM119.543 54.918H115.195V52.1758H119.543C120.215 52.1758 120.762 52.0664 121.184 51.8477C121.605 51.6211 121.914 51.3086 122.109 50.9102C122.305 50.5117 122.402 50.0625 122.402 49.5625C122.402 49.0547 122.305 48.582 122.109 48.1445C121.914 47.707 121.605 47.3555 121.184 47.0898C120.762 46.8242 120.215 46.6914 119.543 46.6914H116.414V61H112.898V43.9375H119.543C120.879 43.9375 122.023 44.1797 122.977 44.6641C123.938 45.1406 124.672 45.8008 125.18 46.6445C125.688 47.4883 125.941 48.4531 125.941 49.5391C125.941 50.6406 125.688 51.5938 125.18 52.3984C124.672 53.2031 123.938 53.8242 122.977 54.2617C122.023 54.6992 120.879 54.918 119.543 54.918ZM131.531 51.0859V61H128.156V48.3203H131.332L131.531 51.0859ZM135.352 48.2383L135.293 51.3672C135.129 51.3438 134.93 51.3242 134.695 51.3086C134.469 51.2852 134.262 51.2734 134.074 51.2734C133.598 51.2734 133.184 51.3359 132.832 51.4609C132.488 51.5781 132.199 51.7539 131.965 51.9883C131.738 52.2227 131.566 52.5078 131.449 52.8438C131.34 53.1797 131.277 53.5625 131.262 53.9922L130.582 53.7812C130.582 52.9609 130.664 52.207 130.828 51.5195C130.992 50.8242 131.23 50.2188 131.543 49.7031C131.863 49.1875 132.254 48.7891 132.715 48.5078C133.176 48.2266 133.703 48.0859 134.297 48.0859C134.484 48.0859 134.676 48.1016 134.871 48.1328C135.066 48.1562 135.227 48.1914 135.352 48.2383ZM136.055 54.7891V54.543C136.055 53.6133 136.188 52.7578 136.453 51.9766C136.719 51.1875 137.105 50.5039 137.613 49.9258C138.121 49.3477 138.746 48.8984 139.488 48.5781C140.23 48.25 141.082 48.0859 142.043 48.0859C143.004 48.0859 143.859 48.25 144.609 48.5781C145.359 48.8984 145.988 49.3477 146.496 49.9258C147.012 50.5039 147.402 51.1875 147.668 51.9766C147.934 52.7578 148.066 53.6133 148.066 54.543V54.7891C148.066 55.7109 147.934 56.5664 147.668 57.3555C147.402 58.1367 147.012 58.8203 146.496 59.4062C145.988 59.9844 145.363 60.4336 144.621 60.7539C143.879 61.0742 143.027 61.2344 142.066 61.2344C141.105 61.2344 140.25 61.0742 139.5 60.7539C138.758 60.4336 138.129 59.9844 137.613 59.4062C137.105 58.8203 136.719 58.1367 136.453 57.3555C136.188 56.5664 136.055 55.7109 136.055 54.7891ZM139.43 54.543V54.7891C139.43 55.3203 139.477 55.8164 139.57 56.2773C139.664 56.7383 139.812 57.1445 140.016 57.4961C140.227 57.8398 140.5 58.1094 140.836 58.3047C141.172 58.5 141.582 58.5977 142.066 58.5977C142.535 58.5977 142.938 58.5 143.273 58.3047C143.609 58.1094 143.879 57.8398 144.082 57.4961C144.285 57.1445 144.434 56.7383 144.527 56.2773C144.629 55.8164 144.68 55.3203 144.68 54.7891V54.543C144.68 54.0273 144.629 53.543 144.527 53.0898C144.434 52.6289 144.281 52.2227 144.07 51.8711C143.867 51.5117 143.598 51.2305 143.262 51.0273C142.926 50.8242 142.52 50.7227 142.043 50.7227C141.566 50.7227 141.16 50.8242 140.824 51.0273C140.496 51.2305 140.227 51.5117 140.016 51.8711C139.812 52.2227 139.664 52.6289 139.57 53.0898C139.477 53.543 139.43 54.0273 139.43 54.543ZM150.328 48.3203H153.715V61.7617C153.715 62.6992 153.543 63.4922 153.199 64.1406C152.855 64.7891 152.359 65.2812 151.711 65.6172C151.062 65.9531 150.277 66.1211 149.355 66.1211C149.066 66.1211 148.785 66.1055 148.512 66.0742C148.23 66.043 147.941 65.9922 147.645 65.9219L147.656 63.332C147.844 63.3633 148.027 63.3867 148.207 63.4023C148.379 63.4258 148.555 63.4375 148.734 63.4375C149.086 63.4375 149.379 63.3789 149.613 63.2617C149.848 63.1445 150.023 62.9609 150.141 62.7109C150.266 62.4688 150.328 62.1523 150.328 61.7617V48.3203ZM150.059 45.0156C150.059 44.5234 150.23 44.1172 150.574 43.7969C150.926 43.4766 151.387 43.3164 151.957 43.3164C152.535 43.3164 152.996 43.4766 153.34 43.7969C153.684 44.1172 153.855 44.5234 153.855 45.0156C153.855 45.5078 153.684 45.9141 153.34 46.2344C152.996 46.5547 152.535 46.7148 151.957 46.7148C151.387 46.7148 150.926 46.5547 150.574 46.2344C150.23 45.9141 150.059 45.5078 150.059 45.0156ZM162.234 61.2344C161.25 61.2344 160.367 61.0781 159.586 60.7656C158.805 60.4453 158.141 60.0039 157.594 59.4414C157.055 58.8789 156.641 58.2266 156.352 57.4844C156.062 56.7344 155.918 55.9375 155.918 55.0938V54.625C155.918 53.6641 156.055 52.7852 156.328 51.9883C156.602 51.1914 156.992 50.5 157.5 49.9141C158.016 49.3281 158.641 48.8789 159.375 48.5664C160.109 48.2461 160.938 48.0859 161.859 48.0859C162.758 48.0859 163.555 48.2344 164.25 48.5312C164.945 48.8281 165.527 49.25 165.996 49.7969C166.473 50.3438 166.832 51 167.074 51.7656C167.316 52.5234 167.438 53.3672 167.438 54.2969V55.7031H157.359V53.4531H164.121V53.1953C164.121 52.7266 164.035 52.3086 163.863 51.9414C163.699 51.5664 163.449 51.2695 163.113 51.0508C162.777 50.832 162.348 50.7227 161.824 50.7227C161.379 50.7227 160.996 50.8203 160.676 51.0156C160.355 51.2109 160.094 51.4844 159.891 51.8359C159.695 52.1875 159.547 52.6016 159.445 53.0781C159.352 53.5469 159.305 54.0625 159.305 54.625V55.0938C159.305 55.6016 159.375 56.0703 159.516 56.5C159.664 56.9297 159.871 57.3008 160.137 57.6133C160.41 57.9258 160.738 58.168 161.121 58.3398C161.512 58.5117 161.953 58.5977 162.445 58.5977C163.055 58.5977 163.621 58.4805 164.145 58.2461C164.676 58.0039 165.133 57.6406 165.516 57.1562L167.156 58.9375C166.891 59.3203 166.527 59.6875 166.066 60.0391C165.613 60.3906 165.066 60.6797 164.426 60.9062C163.785 61.125 163.055 61.2344 162.234 61.2344ZM174.598 58.5977C175.012 58.5977 175.379 58.5195 175.699 58.3633C176.02 58.1992 176.27 57.9727 176.449 57.6836C176.637 57.3867 176.734 57.0391 176.742 56.6406H179.918C179.91 57.5312 179.672 58.3242 179.203 59.0195C178.734 59.707 178.105 60.25 177.316 60.6484C176.527 61.0391 175.645 61.2344 174.668 61.2344C173.684 61.2344 172.824 61.0703 172.09 60.7422C171.363 60.4141 170.758 59.9609 170.273 59.3828C169.789 58.7969 169.426 58.1172 169.184 57.3438C168.941 56.5625 168.82 55.7266 168.82 54.8359V54.4961C168.82 53.5977 168.941 52.7617 169.184 51.9883C169.426 51.207 169.789 50.5273 170.273 49.9492C170.758 49.3633 171.363 48.9062 172.09 48.5781C172.816 48.25 173.668 48.0859 174.645 48.0859C175.684 48.0859 176.594 48.2852 177.375 48.6836C178.164 49.082 178.781 49.6523 179.227 50.3945C179.68 51.1289 179.91 52 179.918 53.0078H176.742C176.734 52.5859 176.645 52.2031 176.473 51.8594C176.309 51.5156 176.066 51.2422 175.746 51.0391C175.434 50.8281 175.047 50.7227 174.586 50.7227C174.094 50.7227 173.691 50.8281 173.379 51.0391C173.066 51.2422 172.824 51.5234 172.652 51.8828C172.48 52.2344 172.359 52.6367 172.289 53.0898C172.227 53.5352 172.195 54.0039 172.195 54.4961V54.8359C172.195 55.3281 172.227 55.8008 172.289 56.2539C172.352 56.707 172.469 57.1094 172.641 57.4609C172.82 57.8125 173.066 58.0898 173.379 58.293C173.691 58.4961 174.098 58.5977 174.598 58.5977ZM188.086 48.3203V50.7109H180.703V48.3203H188.086ZM182.531 45.1914H185.906V57.1797C185.906 57.5469 185.953 57.8281 186.047 58.0234C186.148 58.2188 186.297 58.3555 186.492 58.4336C186.688 58.5039 186.934 58.5391 187.23 58.5391C187.441 58.5391 187.629 58.5312 187.793 58.5156C187.965 58.4922 188.109 58.4688 188.227 58.4453L188.238 60.9297C187.949 61.0234 187.637 61.0977 187.301 61.1523C186.965 61.207 186.594 61.2344 186.188 61.2344C185.445 61.2344 184.797 61.1133 184.242 60.8711C183.695 60.6211 183.273 60.2227 182.977 59.6758C182.68 59.1289 182.531 58.4102 182.531 57.5195V45.1914ZM203.191 43.9375V61H199.688V43.9375H203.191ZM208.441 43.9375V46.6914H194.52V43.9375H208.441ZM213.797 48.3203V61H210.41V48.3203H213.797ZM210.199 45.0156C210.199 44.5234 210.371 44.1172 210.715 43.7969C211.059 43.4766 211.52 43.3164 212.098 43.3164C212.668 43.3164 213.125 43.4766 213.469 43.7969C213.82 44.1172 213.996 44.5234 213.996 45.0156C213.996 45.5078 213.82 45.9141 213.469 46.2344C213.125 46.5547 212.668 46.7148 212.098 46.7148C211.52 46.7148 211.059 46.5547 210.715 46.2344C210.371 45.9141 210.199 45.5078 210.199 45.0156ZM222.797 48.3203V50.7109H215.414V48.3203H222.797ZM217.242 45.1914H220.617V57.1797C220.617 57.5469 220.664 57.8281 220.758 58.0234C220.859 58.2188 221.008 58.3555 221.203 58.4336C221.398 58.5039 221.645 58.5391 221.941 58.5391C222.152 58.5391 222.34 58.5312 222.504 58.5156C222.676 58.4922 222.82 58.4688 222.938 58.4453L222.949 60.9297C222.66 61.0234 222.348 61.0977 222.012 61.1523C221.676 61.207 221.305 61.2344 220.898 61.2344C220.156 61.2344 219.508 61.1133 218.953 60.8711C218.406 60.6211 217.984 60.2227 217.688 59.6758C217.391 59.1289 217.242 58.4102 217.242 57.5195V45.1914ZM228.281 43V61H224.895V43H228.281ZM236.906 61.2344C235.922 61.2344 235.039 61.0781 234.258 60.7656C233.477 60.4453 232.812 60.0039 232.266 59.4414C231.727 58.8789 231.312 58.2266 231.023 57.4844C230.734 56.7344 230.59 55.9375 230.59 55.0938V54.625C230.59 53.6641 230.727 52.7852 231 51.9883C231.273 51.1914 231.664 50.5 232.172 49.9141C232.688 49.3281 233.312 48.8789 234.047 48.5664C234.781 48.2461 235.609 48.0859 236.531 48.0859C237.43 48.0859 238.227 48.2344 238.922 48.5312C239.617 48.8281 240.199 49.25 240.668 49.7969C241.145 50.3438 241.504 51 241.746 51.7656C241.988 52.5234 242.109 53.3672 242.109 54.2969V55.7031H232.031V53.4531H238.793V53.1953C238.793 52.7266 238.707 52.3086 238.535 51.9414C238.371 51.5664 238.121 51.2695 237.785 51.0508C237.449 50.832 237.02 50.7227 236.496 50.7227C236.051 50.7227 235.668 50.8203 235.348 51.0156C235.027 51.2109 234.766 51.4844 234.562 51.8359C234.367 52.1875 234.219 52.6016 234.117 53.0781C234.023 53.5469 233.977 54.0625 233.977 54.625V55.0938C233.977 55.6016 234.047 56.0703 234.188 56.5C234.336 56.9297 234.543 57.3008 234.809 57.6133C235.082 57.9258 235.41 58.168 235.793 58.3398C236.184 58.5117 236.625 58.5977 237.117 58.5977C237.727 58.5977 238.293 58.4805 238.816 58.2461C239.348 58.0039 239.805 57.6406 240.188 57.1562L241.828 58.9375C241.562 59.3203 241.199 59.6875 240.738 60.0391C240.285 60.3906 239.738 60.6797 239.098 60.9062C238.457 61.125 237.727 61.2344 236.906 61.2344Z" fill="#888888"/>
<path d="M103.828 84.875V119H95.6016V84.875H103.828ZM117.094 99.0781V105.406H101.484V99.0781H117.094ZM118.43 84.875V91.2266H101.484V84.875H118.43ZM133.242 119.469C131.18 119.469 129.336 119.148 127.711 118.508C126.086 117.852 124.711 116.953 123.586 115.812C122.477 114.672 121.625 113.359 121.031 111.875C120.453 110.391 120.164 108.82 120.164 107.164V106.273C120.164 104.414 120.422 102.695 120.938 101.117C121.453 99.5234 122.219 98.1328 123.234 96.9453C124.25 95.7578 125.523 94.8359 127.055 94.1797C128.586 93.5078 130.367 93.1719 132.398 93.1719C134.195 93.1719 135.805 93.4609 137.227 94.0391C138.648 94.6172 139.852 95.4453 140.836 96.5234C141.836 97.6016 142.594 98.9062 143.109 100.438C143.641 101.969 143.906 103.688 143.906 105.594V108.805H123.188V103.859H136.195V103.25C136.211 102.406 136.062 101.688 135.75 101.094C135.453 100.5 135.016 100.047 134.438 99.7344C133.859 99.4219 133.156 99.2656 132.328 99.2656C131.469 99.2656 130.758 99.4531 130.195 99.8281C129.648 100.203 129.219 100.719 128.906 101.375C128.609 102.016 128.398 102.758 128.273 103.602C128.148 104.445 128.086 105.336 128.086 106.273V107.164C128.086 108.102 128.211 108.953 128.461 109.719C128.727 110.484 129.102 111.141 129.586 111.688C130.086 112.219 130.68 112.633 131.367 112.93C132.07 113.227 132.867 113.375 133.758 113.375C134.836 113.375 135.898 113.172 136.945 112.766C137.992 112.359 138.891 111.688 139.641 110.75L143.227 115.016C142.711 115.75 141.977 116.461 141.023 117.148C140.086 117.836 138.961 118.398 137.648 118.836C136.336 119.258 134.867 119.469 133.242 119.469ZM160.289 112.625V102.172C160.289 101.453 160.188 100.836 159.984 100.32C159.781 99.8047 159.461 99.4062 159.023 99.125C158.586 98.8281 158 98.6797 157.266 98.6797C156.672 98.6797 156.164 98.7812 155.742 98.9844C155.32 99.1875 155 99.4922 154.781 99.8984C154.562 100.305 154.453 100.82 154.453 101.445H146.555C146.555 100.273 146.812 99.1875 147.328 98.1875C147.859 97.1719 148.609 96.2891 149.578 95.5391C150.562 94.7891 151.734 94.2109 153.094 93.8047C154.469 93.3828 156 93.1719 157.688 93.1719C159.703 93.1719 161.5 93.5078 163.078 94.1797C164.672 94.8516 165.93 95.8594 166.852 97.2031C167.773 98.5312 168.234 100.203 168.234 102.219V112.602C168.234 114.258 168.328 115.516 168.516 116.375C168.703 117.219 168.969 117.961 169.312 118.602V119H161.391C161.016 118.219 160.734 117.266 160.547 116.141C160.375 115 160.289 113.828 160.289 112.625ZM161.25 103.508L161.297 107.727H157.805C157.07 107.727 156.445 107.828 155.93 108.031C155.43 108.234 155.023 108.516 154.711 108.875C154.414 109.219 154.195 109.609 154.055 110.047C153.93 110.484 153.867 110.945 153.867 111.43C153.867 111.898 153.977 112.32 154.195 112.695C154.43 113.055 154.742 113.336 155.133 113.539C155.523 113.742 155.961 113.844 156.445 113.844C157.32 113.844 158.062 113.68 158.672 113.352C159.297 113.008 159.773 112.594 160.102 112.109C160.43 111.625 160.594 111.172 160.594 110.75L162.328 113.984C162.016 114.609 161.656 115.242 161.25 115.883C160.859 116.523 160.367 117.117 159.773 117.664C159.195 118.195 158.484 118.633 157.641 118.977C156.797 119.305 155.773 119.469 154.57 119.469C153.008 119.469 151.57 119.148 150.258 118.508C148.961 117.867 147.922 116.977 147.141 115.836C146.359 114.68 145.969 113.352 145.969 111.852C145.969 110.539 146.203 109.367 146.672 108.336C147.156 107.305 147.883 106.43 148.852 105.711C149.82 104.992 151.055 104.445 152.555 104.07C154.055 103.695 155.82 103.508 157.852 103.508H161.25ZM185.977 93.6406V99.125H170.695V93.6406H185.977ZM173.906 87.3359H181.805V110.727C181.805 111.398 181.883 111.922 182.039 112.297C182.195 112.656 182.461 112.914 182.836 113.07C183.227 113.211 183.742 113.281 184.383 113.281C184.836 113.281 185.211 113.273 185.508 113.258C185.805 113.227 186.086 113.188 186.352 113.141V118.789C185.68 119.008 184.977 119.172 184.242 119.281C183.508 119.406 182.727 119.469 181.898 119.469C180.211 119.469 178.766 119.203 177.562 118.672C176.375 118.141 175.469 117.305 174.844 116.164C174.219 115.023 173.906 113.539 173.906 111.711V87.3359ZM203.93 112.836V93.6406H211.852V119H204.445L203.93 112.836ZM204.68 107.68L206.742 107.633C206.742 109.336 206.539 110.914 206.133 112.367C205.727 113.805 205.125 115.055 204.328 116.117C203.547 117.18 202.578 118.008 201.422 118.602C200.281 119.18 198.961 119.469 197.461 119.469C196.211 119.469 195.062 119.297 194.016 118.953C192.984 118.594 192.094 118.039 191.344 117.289C190.594 116.523 190.008 115.547 189.586 114.359C189.18 113.156 188.977 111.719 188.977 110.047V93.6406H196.875V110.094C196.875 110.656 196.945 111.141 197.086 111.547C197.227 111.953 197.43 112.297 197.695 112.578C197.961 112.844 198.289 113.047 198.68 113.188C199.086 113.312 199.547 113.375 200.062 113.375C201.25 113.375 202.18 113.125 202.852 112.625C203.523 112.125 203.992 111.445 204.258 110.586C204.539 109.727 204.68 108.758 204.68 107.68ZM224.18 99.9219V119H216.281V93.6406H223.664L224.18 99.9219ZM231.68 93.4531L231.539 100.789C231.227 100.758 230.805 100.719 230.273 100.672C229.742 100.625 229.297 100.602 228.938 100.602C228.016 100.602 227.219 100.711 226.547 100.93C225.891 101.133 225.344 101.445 224.906 101.867C224.484 102.273 224.172 102.789 223.969 103.414C223.781 104.039 223.695 104.766 223.711 105.594L222.281 104.656C222.281 102.953 222.445 101.406 222.773 100.016C223.117 98.6094 223.602 97.3984 224.227 96.3828C224.852 95.3516 225.609 94.5625 226.5 94.0156C227.391 93.4531 228.391 93.1719 229.5 93.1719C229.891 93.1719 230.273 93.1953 230.648 93.2422C231.039 93.2891 231.383 93.3594 231.68 93.4531ZM246.211 119.469C244.148 119.469 242.305 119.148 240.68 118.508C239.055 117.852 237.68 116.953 236.555 115.812C235.445 114.672 234.594 113.359 234 111.875C233.422 110.391 233.133 108.82 233.133 107.164V106.273C233.133 104.414 233.391 102.695 233.906 101.117C234.422 99.5234 235.188 98.1328 236.203 96.9453C237.219 95.7578 238.492 94.8359 240.023 94.1797C241.555 93.5078 243.336 93.1719 245.367 93.1719C247.164 93.1719 248.773 93.4609 250.195 94.0391C251.617 94.6172 252.82 95.4453 253.805 96.5234C254.805 97.6016 255.562 98.9062 256.078 100.438C256.609 101.969 256.875 103.688 256.875 105.594V108.805H236.156V103.859H249.164V103.25C249.18 102.406 249.031 101.688 248.719 101.094C248.422 100.5 247.984 100.047 247.406 99.7344C246.828 99.4219 246.125 99.2656 245.297 99.2656C244.438 99.2656 243.727 99.4531 243.164 99.8281C242.617 100.203 242.188 100.719 241.875 101.375C241.578 102.016 241.367 102.758 241.242 103.602C241.117 104.445 241.055 105.336 241.055 106.273V107.164C241.055 108.102 241.18 108.953 241.43 109.719C241.695 110.484 242.07 111.141 242.555 111.688C243.055 112.219 243.648 112.633 244.336 112.93C245.039 113.227 245.836 113.375 246.727 113.375C247.805 113.375 248.867 113.172 249.914 112.766C250.961 112.359 251.859 111.688 252.609 110.75L256.195 115.016C255.68 115.75 254.945 116.461 253.992 117.148C253.055 117.836 251.93 118.398 250.617 118.836C249.305 119.258 247.836 119.469 246.211 119.469ZM273.375 111.875C273.375 111.438 273.227 111.062 272.93 110.75C272.648 110.422 272.148 110.125 271.43 109.859C270.711 109.578 269.703 109.297 268.406 109.016C267.172 108.75 266.008 108.398 264.914 107.961C263.836 107.523 262.891 106.992 262.078 106.367C261.266 105.742 260.625 105 260.156 104.141C259.703 103.281 259.477 102.297 259.477 101.188C259.477 100.109 259.703 99.0938 260.156 98.1406C260.625 97.1719 261.305 96.3203 262.195 95.5859C263.102 94.8359 264.203 94.25 265.5 93.8281C266.797 93.3906 268.273 93.1719 269.93 93.1719C272.211 93.1719 274.18 93.5234 275.836 94.2266C277.492 94.9141 278.766 95.8828 279.656 97.1328C280.562 98.3672 281.016 99.7969 281.016 101.422H273.117C273.117 100.781 273.008 100.234 272.789 99.7812C272.586 99.3281 272.25 98.9844 271.781 98.75C271.312 98.5 270.688 98.375 269.906 98.375C269.359 98.375 268.859 98.4766 268.406 98.6797C267.969 98.8828 267.617 99.1641 267.352 99.5234C267.086 99.8828 266.953 100.305 266.953 100.789C266.953 101.133 267.031 101.445 267.188 101.727C267.359 101.992 267.617 102.242 267.961 102.477C268.305 102.695 268.742 102.898 269.273 103.086C269.805 103.258 270.445 103.414 271.195 103.555C272.898 103.867 274.492 104.312 275.977 104.891C277.461 105.469 278.664 106.289 279.586 107.352C280.523 108.414 280.992 109.844 280.992 111.641C280.992 112.766 280.734 113.805 280.219 114.758C279.703 115.695 278.961 116.523 277.992 117.242C277.023 117.945 275.859 118.492 274.5 118.883C273.141 119.273 271.609 119.469 269.906 119.469C267.484 119.469 265.438 119.039 263.766 118.18C262.094 117.305 260.828 116.211 259.969 114.898C259.125 113.57 258.703 112.227 258.703 110.867H266.062C266.094 111.648 266.281 112.289 266.625 112.789C266.984 113.289 267.461 113.656 268.055 113.891C268.648 114.125 269.336 114.242 270.117 114.242C270.836 114.242 271.43 114.141 271.898 113.938C272.383 113.734 272.75 113.461 273 113.117C273.25 112.758 273.375 112.344 273.375 111.875Z" fill="black"/>
<path d="M1134 0H1348C1356.28 0 1363 6.71573 1363 15V148C1363 156.284 1356.28 163 1348 163H1134V0Z" fill="#FDD100"/>
<path d="M1238.1 97.4687L1240.9 85.6367L1231.77 77.7892L1243.79 76.6637L1248.5 65.6833L1253.21 76.7854L1265.23 77.7892L1256.1 85.6367L1258.9 97.4687L1248.5 91.2029L1238.1 97.4687ZM1248.5 51.0833C1252.49 51.0833 1256.45 51.8701 1260.14 53.3987C1263.83 54.9272 1267.18 57.1677 1270.01 59.9922C1272.83 62.8166 1275.07 66.1697 1276.6 69.86C1278.13 73.5504 1278.92 77.5056 1278.92 81.5C1278.92 89.567 1275.71 97.3036 1270.01 103.008C1264.3 108.712 1256.57 111.917 1248.5 111.917C1244.51 111.917 1240.55 111.13 1236.86 109.601C1233.17 108.073 1229.82 105.832 1226.99 103.008C1221.29 97.3036 1218.08 89.567 1218.08 81.5C1218.08 73.433 1221.29 65.6964 1226.99 59.9922C1232.7 54.2879 1240.43 51.0833 1248.5 51.0833ZM1248.5 57.1667C1242.05 57.1667 1235.86 59.7303 1231.29 64.2937C1226.73 68.8571 1224.17 75.0464 1224.17 81.5C1224.17 87.9536 1226.73 94.1429 1231.29 98.7063C1235.86 103.27 1242.05 105.833 1248.5 105.833C1254.95 105.833 1261.14 103.27 1265.71 98.7063C1270.27 94.1429 1272.83 87.9536 1272.83 81.5C1272.83 75.0464 1270.27 68.8571 1265.71 64.2937C1261.14 59.7303 1254.95 57.1667 1248.5 57.1667Z" fill="white"/>
</svg>
