<svg width="1363" height="163" viewBox="0 0 1363 163" fill="none" xmlns="http://www.w3.org/2000/svg">
<path d="M0 15C0 6.71573 6.71573 0 15 0H37V163H15C6.71573 163 0 156.284 0 148V15Z" fill="#424242"/>
<rect width="1097" height="163" transform="translate(37)" fill="#F0F0F0"/>
<path d="M103.406 56.5352C103.406 56.2305 103.359 55.957 103.266 55.7148C103.18 55.4648 103.016 55.2383 102.773 55.0352C102.531 54.8242 102.191 54.6172 101.754 54.4141C101.316 54.2109 100.75 54 100.055 53.7812C99.2812 53.5312 98.5469 53.25 97.8516 52.9375C97.1641 52.625 96.5547 52.2617 96.0234 51.8477C95.5 51.4258 95.0859 50.9375 94.7812 50.3828C94.4844 49.8281 94.3359 49.1836 94.3359 48.4492C94.3359 47.7383 94.4922 47.0938 94.8047 46.5156C95.1172 45.9297 95.5547 45.4297 96.1172 45.0156C96.6797 44.5938 97.3438 44.2695 98.1094 44.043C98.8828 43.8164 99.7305 43.7031 100.652 43.7031C101.91 43.7031 103.008 43.9297 103.945 44.3828C104.883 44.8359 105.609 45.457 106.125 46.2461C106.648 47.0352 106.91 47.9375 106.91 48.9531H103.418C103.418 48.4531 103.312 48.0156 103.102 47.6406C102.898 47.2578 102.586 46.957 102.164 46.7383C101.75 46.5195 101.227 46.4102 100.594 46.4102C99.9844 46.4102 99.4766 46.5039 99.0703 46.6914C98.6641 46.8711 98.3594 47.1172 98.1562 47.4297C97.9531 47.7344 97.8516 48.0781 97.8516 48.4609C97.8516 48.75 97.9219 49.0117 98.0625 49.2461C98.2109 49.4805 98.4297 49.6992 98.7188 49.9023C99.0078 50.1055 99.3633 50.2969 99.7852 50.4766C100.207 50.6562 100.695 50.832 101.25 51.0039C102.18 51.2852 102.996 51.6016 103.699 51.9531C104.41 52.3047 105.004 52.6992 105.48 53.1367C105.957 53.5742 106.316 54.0703 106.559 54.625C106.801 55.1797 106.922 55.8086 106.922 56.5117C106.922 57.2539 106.777 57.918 106.488 58.5039C106.199 59.0898 105.781 59.5859 105.234 59.9922C104.688 60.3984 104.035 60.707 103.277 60.918C102.52 61.1289 101.672 61.2344 100.734 61.2344C99.8906 61.2344 99.0586 61.125 98.2383 60.9062C97.418 60.6797 96.6719 60.3398 96 59.8867C95.3359 59.4336 94.8047 58.8555 94.4062 58.1523C94.0078 57.4492 93.8086 56.6172 93.8086 55.6562H97.3359C97.3359 56.1875 97.418 56.6367 97.582 57.0039C97.7461 57.3711 97.9766 57.668 98.2734 57.8945C98.5781 58.1211 98.9375 58.2852 99.3516 58.3867C99.7734 58.4883 100.234 58.5391 100.734 58.5391C101.344 58.5391 101.844 58.4531 102.234 58.2812C102.633 58.1094 102.926 57.8711 103.113 57.5664C103.309 57.2617 103.406 56.918 103.406 56.5352ZM114.938 61.2344C113.953 61.2344 113.07 61.0781 112.289 60.7656C111.508 60.4453 110.844 60.0039 110.297 59.4414C109.758 58.8789 109.344 58.2266 109.055 57.4844C108.766 56.7344 108.621 55.9375 108.621 55.0938V54.625C108.621 53.6641 108.758 52.7852 109.031 51.9883C109.305 51.1914 109.695 50.5 110.203 49.9141C110.719 49.3281 111.344 48.8789 112.078 48.5664C112.812 48.2461 113.641 48.0859 114.562 48.0859C115.461 48.0859 116.258 48.2344 116.953 48.5312C117.648 48.8281 118.23 49.25 118.699 49.7969C119.176 50.3438 119.535 51 119.777 51.7656C120.02 52.5234 120.141 53.3672 120.141 54.2969V55.7031H110.062V53.4531H116.824V53.1953C116.824 52.7266 116.738 52.3086 116.566 51.9414C116.402 51.5664 116.152 51.2695 115.816 51.0508C115.48 50.832 115.051 50.7227 114.527 50.7227C114.082 50.7227 113.699 50.8203 113.379 51.0156C113.059 51.2109 112.797 51.4844 112.594 51.8359C112.398 52.1875 112.25 52.6016 112.148 53.0781C112.055 53.5469 112.008 54.0625 112.008 54.625V55.0938C112.008 55.6016 112.078 56.0703 112.219 56.5C112.367 56.9297 112.574 57.3008 112.84 57.6133C113.113 57.9258 113.441 58.168 113.824 58.3398C114.215 58.5117 114.656 58.5977 115.148 58.5977C115.758 58.5977 116.324 58.4805 116.848 58.2461C117.379 58.0039 117.836 57.6406 118.219 57.1562L119.859 58.9375C119.594 59.3203 119.23 59.6875 118.77 60.0391C118.316 60.3906 117.77 60.6797 117.129 60.9062C116.488 61.125 115.758 61.2344 114.938 61.2344ZM125.367 51.0273V61H121.992V48.3203H125.156L125.367 51.0273ZM124.875 54.2148H123.961C123.961 53.2773 124.082 52.4336 124.324 51.6836C124.566 50.9258 124.906 50.2812 125.344 49.75C125.781 49.2109 126.301 48.8008 126.902 48.5195C127.512 48.2305 128.191 48.0859 128.941 48.0859C129.535 48.0859 130.078 48.1719 130.57 48.3438C131.062 48.5156 131.484 48.7891 131.836 49.1641C132.195 49.5391 132.469 50.0352 132.656 50.6523C132.852 51.2695 132.949 52.0234 132.949 52.9141V61H129.551V52.9023C129.551 52.3398 129.473 51.9023 129.316 51.5898C129.16 51.2773 128.93 51.0586 128.625 50.9336C128.328 50.8008 127.961 50.7344 127.523 50.7344C127.07 50.7344 126.676 50.8242 126.34 51.0039C126.012 51.1836 125.738 51.4336 125.52 51.7539C125.309 52.0664 125.148 52.4336 125.039 52.8555C124.93 53.2773 124.875 53.7305 124.875 54.2148ZM141.727 48.3203V50.7109H134.344V48.3203H141.727ZM136.172 45.1914H139.547V57.1797C139.547 57.5469 139.594 57.8281 139.688 58.0234C139.789 58.2188 139.938 58.3555 140.133 58.4336C140.328 58.5039 140.574 58.5391 140.871 58.5391C141.082 58.5391 141.27 58.5312 141.434 58.5156C141.605 58.4922 141.75 58.4688 141.867 58.4453L141.879 60.9297C141.59 61.0234 141.277 61.0977 140.941 61.1523C140.605 61.207 140.234 61.2344 139.828 61.2344C139.086 61.2344 138.438 61.1133 137.883 60.8711C137.336 60.6211 136.914 60.2227 136.617 59.6758C136.32 59.1289 136.172 58.4102 136.172 57.5195V45.1914ZM147.211 48.3203V61H143.824V48.3203H147.211ZM143.613 45.0156C143.613 44.5234 143.785 44.1172 144.129 43.7969C144.473 43.4766 144.934 43.3164 145.512 43.3164C146.082 43.3164 146.539 43.4766 146.883 43.7969C147.234 44.1172 147.41 44.5234 147.41 45.0156C147.41 45.5078 147.234 45.9141 146.883 46.2344C146.539 46.5547 146.082 46.7148 145.512 46.7148C144.934 46.7148 144.473 46.5547 144.129 46.2344C143.785 45.9141 143.613 45.5078 143.613 45.0156ZM153.305 51.0273V61H149.93V48.3203H153.094L153.305 51.0273ZM152.812 54.2148H151.898C151.898 53.2773 152.02 52.4336 152.262 51.6836C152.504 50.9258 152.844 50.2812 153.281 49.75C153.719 49.2109 154.238 48.8008 154.84 48.5195C155.449 48.2305 156.129 48.0859 156.879 48.0859C157.473 48.0859 158.016 48.1719 158.508 48.3438C159 48.5156 159.422 48.7891 159.773 49.1641C160.133 49.5391 160.406 50.0352 160.594 50.6523C160.789 51.2695 160.887 52.0234 160.887 52.9141V61H157.488V52.9023C157.488 52.3398 157.41 51.9023 157.254 51.5898C157.098 51.2773 156.867 51.0586 156.562 50.9336C156.266 50.8008 155.898 50.7344 155.461 50.7344C155.008 50.7344 154.613 50.8242 154.277 51.0039C153.949 51.1836 153.676 51.4336 153.457 51.7539C153.246 52.0664 153.086 52.4336 152.977 52.8555C152.867 53.2773 152.812 53.7305 152.812 54.2148ZM169.289 61.2344C168.305 61.2344 167.422 61.0781 166.641 60.7656C165.859 60.4453 165.195 60.0039 164.648 59.4414C164.109 58.8789 163.695 58.2266 163.406 57.4844C163.117 56.7344 162.973 55.9375 162.973 55.0938V54.625C162.973 53.6641 163.109 52.7852 163.383 51.9883C163.656 51.1914 164.047 50.5 164.555 49.9141C165.07 49.3281 165.695 48.8789 166.43 48.5664C167.164 48.2461 167.992 48.0859 168.914 48.0859C169.812 48.0859 170.609 48.2344 171.305 48.5312C172 48.8281 172.582 49.25 173.051 49.7969C173.527 50.3438 173.887 51 174.129 51.7656C174.371 52.5234 174.492 53.3672 174.492 54.2969V55.7031H164.414V53.4531H171.176V53.1953C171.176 52.7266 171.09 52.3086 170.918 51.9414C170.754 51.5664 170.504 51.2695 170.168 51.0508C169.832 50.832 169.402 50.7227 168.879 50.7227C168.434 50.7227 168.051 50.8203 167.73 51.0156C167.41 51.2109 167.148 51.4844 166.945 51.8359C166.75 52.1875 166.602 52.6016 166.5 53.0781C166.406 53.5469 166.359 54.0625 166.359 54.625V55.0938C166.359 55.6016 166.43 56.0703 166.57 56.5C166.719 56.9297 166.926 57.3008 167.191 57.6133C167.465 57.9258 167.793 58.168 168.176 58.3398C168.566 58.5117 169.008 58.5977 169.5 58.5977C170.109 58.5977 170.676 58.4805 171.199 58.2461C171.73 58.0039 172.188 57.6406 172.57 57.1562L174.211 58.9375C173.945 59.3203 173.582 59.6875 173.121 60.0391C172.668 60.3906 172.121 60.6797 171.48 60.9062C170.84 61.125 170.109 61.2344 169.289 61.2344ZM179.977 43V61H176.59V43H179.977Z" fill="#888888"/>
<path d="M103.828 84.875V119H95.6016V84.875H103.828ZM117.094 99.0781V105.406H101.484V99.0781H117.094ZM118.43 84.875V91.2266H101.484V84.875H118.43ZM133.242 119.469C131.18 119.469 129.336 119.148 127.711 118.508C126.086 117.852 124.711 116.953 123.586 115.812C122.477 114.672 121.625 113.359 121.031 111.875C120.453 110.391 120.164 108.82 120.164 107.164V106.273C120.164 104.414 120.422 102.695 120.938 101.117C121.453 99.5234 122.219 98.1328 123.234 96.9453C124.25 95.7578 125.523 94.8359 127.055 94.1797C128.586 93.5078 130.367 93.1719 132.398 93.1719C134.195 93.1719 135.805 93.4609 137.227 94.0391C138.648 94.6172 139.852 95.4453 140.836 96.5234C141.836 97.6016 142.594 98.9062 143.109 100.438C143.641 101.969 143.906 103.688 143.906 105.594V108.805H123.188V103.859H136.195V103.25C136.211 102.406 136.062 101.688 135.75 101.094C135.453 100.5 135.016 100.047 134.438 99.7344C133.859 99.4219 133.156 99.2656 132.328 99.2656C131.469 99.2656 130.758 99.4531 130.195 99.8281C129.648 100.203 129.219 100.719 128.906 101.375C128.609 102.016 128.398 102.758 128.273 103.602C128.148 104.445 128.086 105.336 128.086 106.273V107.164C128.086 108.102 128.211 108.953 128.461 109.719C128.727 110.484 129.102 111.141 129.586 111.688C130.086 112.219 130.68 112.633 131.367 112.93C132.07 113.227 132.867 113.375 133.758 113.375C134.836 113.375 135.898 113.172 136.945 112.766C137.992 112.359 138.891 111.688 139.641 110.75L143.227 115.016C142.711 115.75 141.977 116.461 141.023 117.148C140.086 117.836 138.961 118.398 137.648 118.836C136.336 119.258 134.867 119.469 133.242 119.469ZM160.289 112.625V102.172C160.289 101.453 160.188 100.836 159.984 100.32C159.781 99.8047 159.461 99.4062 159.023 99.125C158.586 98.8281 158 98.6797 157.266 98.6797C156.672 98.6797 156.164 98.7812 155.742 98.9844C155.32 99.1875 155 99.4922 154.781 99.8984C154.562 100.305 154.453 100.82 154.453 101.445H146.555C146.555 100.273 146.812 99.1875 147.328 98.1875C147.859 97.1719 148.609 96.2891 149.578 95.5391C150.562 94.7891 151.734 94.2109 153.094 93.8047C154.469 93.3828 156 93.1719 157.688 93.1719C159.703 93.1719 161.5 93.5078 163.078 94.1797C164.672 94.8516 165.93 95.8594 166.852 97.2031C167.773 98.5312 168.234 100.203 168.234 102.219V112.602C168.234 114.258 168.328 115.516 168.516 116.375C168.703 117.219 168.969 117.961 169.312 118.602V119H161.391C161.016 118.219 160.734 117.266 160.547 116.141C160.375 115 160.289 113.828 160.289 112.625ZM161.25 103.508L161.297 107.727H157.805C157.07 107.727 156.445 107.828 155.93 108.031C155.43 108.234 155.023 108.516 154.711 108.875C154.414 109.219 154.195 109.609 154.055 110.047C153.93 110.484 153.867 110.945 153.867 111.43C153.867 111.898 153.977 112.32 154.195 112.695C154.43 113.055 154.742 113.336 155.133 113.539C155.523 113.742 155.961 113.844 156.445 113.844C157.32 113.844 158.062 113.68 158.672 113.352C159.297 113.008 159.773 112.594 160.102 112.109C160.43 111.625 160.594 111.172 160.594 110.75L162.328 113.984C162.016 114.609 161.656 115.242 161.25 115.883C160.859 116.523 160.367 117.117 159.773 117.664C159.195 118.195 158.484 118.633 157.641 118.977C156.797 119.305 155.773 119.469 154.57 119.469C153.008 119.469 151.57 119.148 150.258 118.508C148.961 117.867 147.922 116.977 147.141 115.836C146.359 114.68 145.969 113.352 145.969 111.852C145.969 110.539 146.203 109.367 146.672 108.336C147.156 107.305 147.883 106.43 148.852 105.711C149.82 104.992 151.055 104.445 152.555 104.07C154.055 103.695 155.82 103.508 157.852 103.508H161.25ZM185.977 93.6406V99.125H170.695V93.6406H185.977ZM173.906 87.3359H181.805V110.727C181.805 111.398 181.883 111.922 182.039 112.297C182.195 112.656 182.461 112.914 182.836 113.07C183.227 113.211 183.742 113.281 184.383 113.281C184.836 113.281 185.211 113.273 185.508 113.258C185.805 113.227 186.086 113.188 186.352 113.141V118.789C185.68 119.008 184.977 119.172 184.242 119.281C183.508 119.406 182.727 119.469 181.898 119.469C180.211 119.469 178.766 119.203 177.562 118.672C176.375 118.141 175.469 117.305 174.844 116.164C174.219 115.023 173.906 113.539 173.906 111.711V87.3359ZM203.93 112.836V93.6406H211.852V119H204.445L203.93 112.836ZM204.68 107.68L206.742 107.633C206.742 109.336 206.539 110.914 206.133 112.367C205.727 113.805 205.125 115.055 204.328 116.117C203.547 117.18 202.578 118.008 201.422 118.602C200.281 119.18 198.961 119.469 197.461 119.469C196.211 119.469 195.062 119.297 194.016 118.953C192.984 118.594 192.094 118.039 191.344 117.289C190.594 116.523 190.008 115.547 189.586 114.359C189.18 113.156 188.977 111.719 188.977 110.047V93.6406H196.875V110.094C196.875 110.656 196.945 111.141 197.086 111.547C197.227 111.953 197.43 112.297 197.695 112.578C197.961 112.844 198.289 113.047 198.68 113.188C199.086 113.312 199.547 113.375 200.062 113.375C201.25 113.375 202.18 113.125 202.852 112.625C203.523 112.125 203.992 111.445 204.258 110.586C204.539 109.727 204.68 108.758 204.68 107.68ZM224.18 99.9219V119H216.281V93.6406H223.664L224.18 99.9219ZM231.68 93.4531L231.539 100.789C231.227 100.758 230.805 100.719 230.273 100.672C229.742 100.625 229.297 100.602 228.938 100.602C228.016 100.602 227.219 100.711 226.547 100.93C225.891 101.133 225.344 101.445 224.906 101.867C224.484 102.273 224.172 102.789 223.969 103.414C223.781 104.039 223.695 104.766 223.711 105.594L222.281 104.656C222.281 102.953 222.445 101.406 222.773 100.016C223.117 98.6094 223.602 97.3984 224.227 96.3828C224.852 95.3516 225.609 94.5625 226.5 94.0156C227.391 93.4531 228.391 93.1719 229.5 93.1719C229.891 93.1719 230.273 93.1953 230.648 93.2422C231.039 93.2891 231.383 93.3594 231.68 93.4531ZM246.211 119.469C244.148 119.469 242.305 119.148 240.68 118.508C239.055 117.852 237.68 116.953 236.555 115.812C235.445 114.672 234.594 113.359 234 111.875C233.422 110.391 233.133 108.82 233.133 107.164V106.273C233.133 104.414 233.391 102.695 233.906 101.117C234.422 99.5234 235.188 98.1328 236.203 96.9453C237.219 95.7578 238.492 94.8359 240.023 94.1797C241.555 93.5078 243.336 93.1719 245.367 93.1719C247.164 93.1719 248.773 93.4609 250.195 94.0391C251.617 94.6172 252.82 95.4453 253.805 96.5234C254.805 97.6016 255.562 98.9062 256.078 100.438C256.609 101.969 256.875 103.688 256.875 105.594V108.805H236.156V103.859H249.164V103.25C249.18 102.406 249.031 101.688 248.719 101.094C248.422 100.5 247.984 100.047 247.406 99.7344C246.828 99.4219 246.125 99.2656 245.297 99.2656C244.438 99.2656 243.727 99.4531 243.164 99.8281C242.617 100.203 242.188 100.719 241.875 101.375C241.578 102.016 241.367 102.758 241.242 103.602C241.117 104.445 241.055 105.336 241.055 106.273V107.164C241.055 108.102 241.18 108.953 241.43 109.719C241.695 110.484 242.07 111.141 242.555 111.688C243.055 112.219 243.648 112.633 244.336 112.93C245.039 113.227 245.836 113.375 246.727 113.375C247.805 113.375 248.867 113.172 249.914 112.766C250.961 112.359 251.859 111.688 252.609 110.75L256.195 115.016C255.68 115.75 254.945 116.461 253.992 117.148C253.055 117.836 251.93 118.398 250.617 118.836C249.305 119.258 247.836 119.469 246.211 119.469ZM273.375 111.875C273.375 111.438 273.227 111.062 272.93 110.75C272.648 110.422 272.148 110.125 271.43 109.859C270.711 109.578 269.703 109.297 268.406 109.016C267.172 108.75 266.008 108.398 264.914 107.961C263.836 107.523 262.891 106.992 262.078 106.367C261.266 105.742 260.625 105 260.156 104.141C259.703 103.281 259.477 102.297 259.477 101.188C259.477 100.109 259.703 99.0938 260.156 98.1406C260.625 97.1719 261.305 96.3203 262.195 95.5859C263.102 94.8359 264.203 94.25 265.5 93.8281C266.797 93.3906 268.273 93.1719 269.93 93.1719C272.211 93.1719 274.18 93.5234 275.836 94.2266C277.492 94.9141 278.766 95.8828 279.656 97.1328C280.562 98.3672 281.016 99.7969 281.016 101.422H273.117C273.117 100.781 273.008 100.234 272.789 99.7812C272.586 99.3281 272.25 98.9844 271.781 98.75C271.312 98.5 270.688 98.375 269.906 98.375C269.359 98.375 268.859 98.4766 268.406 98.6797C267.969 98.8828 267.617 99.1641 267.352 99.5234C267.086 99.8828 266.953 100.305 266.953 100.789C266.953 101.133 267.031 101.445 267.188 101.727C267.359 101.992 267.617 102.242 267.961 102.477C268.305 102.695 268.742 102.898 269.273 103.086C269.805 103.258 270.445 103.414 271.195 103.555C272.898 103.867 274.492 104.312 275.977 104.891C277.461 105.469 278.664 106.289 279.586 107.352C280.523 108.414 280.992 109.844 280.992 111.641C280.992 112.766 280.734 113.805 280.219 114.758C279.703 115.695 278.961 116.523 277.992 117.242C277.023 117.945 275.859 118.492 274.5 118.883C273.141 119.273 271.609 119.469 269.906 119.469C267.484 119.469 265.438 119.039 263.766 118.18C262.094 117.305 260.828 116.211 259.969 114.898C259.125 113.57 258.703 112.227 258.703 110.867H266.062C266.094 111.648 266.281 112.289 266.625 112.789C266.984 113.289 267.461 113.656 268.055 113.891C268.648 114.125 269.336 114.242 270.117 114.242C270.836 114.242 271.43 114.141 271.898 113.938C272.383 113.734 272.75 113.461 273 113.117C273.25 112.758 273.375 112.344 273.375 111.875Z" fill="black"/>
<path d="M1134 0H1348C1356.28 0 1363 6.71573 1363 15V148C1363 156.284 1356.28 163 1348 163H1134V0Z" fill="#FDD100"/>
<path d="M1238.1 97.4687L1240.9 85.6367L1231.77 77.7892L1243.79 76.6637L1248.5 65.6833L1253.21 76.7854L1265.23 77.7892L1256.1 85.6367L1258.9 97.4687L1248.5 91.2029L1238.1 97.4687ZM1248.5 51.0833C1252.49 51.0833 1256.45 51.8701 1260.14 53.3987C1263.83 54.9272 1267.18 57.1677 1270.01 59.9922C1272.83 62.8166 1275.07 66.1697 1276.6 69.86C1278.13 73.5504 1278.92 77.5056 1278.92 81.5C1278.92 89.567 1275.71 97.3036 1270.01 103.008C1264.3 108.712 1256.57 111.917 1248.5 111.917C1244.51 111.917 1240.55 111.13 1236.86 109.601C1233.17 108.073 1229.82 105.832 1226.99 103.008C1221.29 97.3036 1218.08 89.567 1218.08 81.5C1218.08 73.433 1221.29 65.6964 1226.99 59.9922C1232.7 54.2879 1240.43 51.0833 1248.5 51.0833ZM1248.5 57.1667C1242.05 57.1667 1235.86 59.7303 1231.29 64.2937C1226.73 68.8571 1224.17 75.0464 1224.17 81.5C1224.17 87.9536 1226.73 94.1429 1231.29 98.7063C1235.86 103.27 1242.05 105.833 1248.5 105.833C1254.95 105.833 1261.14 103.27 1265.71 98.7063C1270.27 94.1429 1272.83 87.9536 1272.83 81.5C1272.83 75.0464 1270.27 68.8571 1265.71 64.2937C1261.14 59.7303 1254.95 57.1667 1248.5 57.1667Z" fill="white"/>
</svg>
