<svg width="1363" height="163" viewBox="0 0 1363 163" fill="none" xmlns="http://www.w3.org/2000/svg">
<path d="M0 15C0 6.71573 6.71573 0 15 0H37V163H15C6.71573 163 0 156.284 0 148V15Z" fill="#424242"/>
<rect width="1097" height="163" transform="translate(37)" fill="#F0F0F0"/>
<path d="M103.406 56.5352C103.406 56.2305 103.359 55.957 103.266 55.7148C103.18 55.4648 103.016 55.2383 102.773 55.0352C102.531 54.8242 102.191 54.6172 101.754 54.4141C101.316 54.2109 100.75 54 100.055 53.7812C99.2812 53.5312 98.5469 53.25 97.8516 52.9375C97.1641 52.625 96.5547 52.2617 96.0234 51.8477C95.5 51.4258 95.0859 50.9375 94.7812 50.3828C94.4844 49.8281 94.3359 49.1836 94.3359 48.4492C94.3359 47.7383 94.4922 47.0938 94.8047 46.5156C95.1172 45.9297 95.5547 45.4297 96.1172 45.0156C96.6797 44.5938 97.3438 44.2695 98.1094 44.043C98.8828 43.8164 99.7305 43.7031 100.652 43.7031C101.91 43.7031 103.008 43.9297 103.945 44.3828C104.883 44.8359 105.609 45.457 106.125 46.2461C106.648 47.0352 106.91 47.9375 106.91 48.9531H103.418C103.418 48.4531 103.312 48.0156 103.102 47.6406C102.898 47.2578 102.586 46.957 102.164 46.7383C101.75 46.5195 101.227 46.4102 100.594 46.4102C99.9844 46.4102 99.4766 46.5039 99.0703 46.6914C98.6641 46.8711 98.3594 47.1172 98.1562 47.4297C97.9531 47.7344 97.8516 48.0781 97.8516 48.4609C97.8516 48.75 97.9219 49.0117 98.0625 49.2461C98.2109 49.4805 98.4297 49.6992 98.7188 49.9023C99.0078 50.1055 99.3633 50.2969 99.7852 50.4766C100.207 50.6562 100.695 50.832 101.25 51.0039C102.18 51.2852 102.996 51.6016 103.699 51.9531C104.41 52.3047 105.004 52.6992 105.48 53.1367C105.957 53.5742 106.316 54.0703 106.559 54.625C106.801 55.1797 106.922 55.8086 106.922 56.5117C106.922 57.2539 106.777 57.918 106.488 58.5039C106.199 59.0898 105.781 59.5859 105.234 59.9922C104.688 60.3984 104.035 60.707 103.277 60.918C102.52 61.1289 101.672 61.2344 100.734 61.2344C99.8906 61.2344 99.0586 61.125 98.2383 60.9062C97.418 60.6797 96.6719 60.3398 96 59.8867C95.3359 59.4336 94.8047 58.8555 94.4062 58.1523C94.0078 57.4492 93.8086 56.6172 93.8086 55.6562H97.3359C97.3359 56.1875 97.418 56.6367 97.582 57.0039C97.7461 57.3711 97.9766 57.668 98.2734 57.8945C98.5781 58.1211 98.9375 58.2852 99.3516 58.3867C99.7734 58.4883 100.234 58.5391 100.734 58.5391C101.344 58.5391 101.844 58.4531 102.234 58.2812C102.633 58.1094 102.926 57.8711 103.113 57.5664C103.309 57.2617 103.406 56.918 103.406 56.5352ZM114.938 61.2344C113.953 61.2344 113.07 61.0781 112.289 60.7656C111.508 60.4453 110.844 60.0039 110.297 59.4414C109.758 58.8789 109.344 58.2266 109.055 57.4844C108.766 56.7344 108.621 55.9375 108.621 55.0938V54.625C108.621 53.6641 108.758 52.7852 109.031 51.9883C109.305 51.1914 109.695 50.5 110.203 49.9141C110.719 49.3281 111.344 48.8789 112.078 48.5664C112.812 48.2461 113.641 48.0859 114.562 48.0859C115.461 48.0859 116.258 48.2344 116.953 48.5312C117.648 48.8281 118.23 49.25 118.699 49.7969C119.176 50.3438 119.535 51 119.777 51.7656C120.02 52.5234 120.141 53.3672 120.141 54.2969V55.7031H110.062V53.4531H116.824V53.1953C116.824 52.7266 116.738 52.3086 116.566 51.9414C116.402 51.5664 116.152 51.2695 115.816 51.0508C115.48 50.832 115.051 50.7227 114.527 50.7227C114.082 50.7227 113.699 50.8203 113.379 51.0156C113.059 51.2109 112.797 51.4844 112.594 51.8359C112.398 52.1875 112.25 52.6016 112.148 53.0781C112.055 53.5469 112.008 54.0625 112.008 54.625V55.0938C112.008 55.6016 112.078 56.0703 112.219 56.5C112.367 56.9297 112.574 57.3008 112.84 57.6133C113.113 57.9258 113.441 58.168 113.824 58.3398C114.215 58.5117 114.656 58.5977 115.148 58.5977C115.758 58.5977 116.324 58.4805 116.848 58.2461C117.379 58.0039 117.836 57.6406 118.219 57.1562L119.859 58.9375C119.594 59.3203 119.23 59.6875 118.77 60.0391C118.316 60.3906 117.77 60.6797 117.129 60.9062C116.488 61.125 115.758 61.2344 114.938 61.2344ZM125.367 51.0273V61H121.992V48.3203H125.156L125.367 51.0273ZM124.875 54.2148H123.961C123.961 53.2773 124.082 52.4336 124.324 51.6836C124.566 50.9258 124.906 50.2812 125.344 49.75C125.781 49.2109 126.301 48.8008 126.902 48.5195C127.512 48.2305 128.191 48.0859 128.941 48.0859C129.535 48.0859 130.078 48.1719 130.57 48.3438C131.062 48.5156 131.484 48.7891 131.836 49.1641C132.195 49.5391 132.469 50.0352 132.656 50.6523C132.852 51.2695 132.949 52.0234 132.949 52.9141V61H129.551V52.9023C129.551 52.3398 129.473 51.9023 129.316 51.5898C129.16 51.2773 128.93 51.0586 128.625 50.9336C128.328 50.8008 127.961 50.7344 127.523 50.7344C127.07 50.7344 126.676 50.8242 126.34 51.0039C126.012 51.1836 125.738 51.4336 125.52 51.7539C125.309 52.0664 125.148 52.4336 125.039 52.8555C124.93 53.2773 124.875 53.7305 124.875 54.2148ZM141.727 48.3203V50.7109H134.344V48.3203H141.727ZM136.172 45.1914H139.547V57.1797C139.547 57.5469 139.594 57.8281 139.688 58.0234C139.789 58.2188 139.938 58.3555 140.133 58.4336C140.328 58.5039 140.574 58.5391 140.871 58.5391C141.082 58.5391 141.27 58.5312 141.434 58.5156C141.605 58.4922 141.75 58.4688 141.867 58.4453L141.879 60.9297C141.59 61.0234 141.277 61.0977 140.941 61.1523C140.605 61.207 140.234 61.2344 139.828 61.2344C139.086 61.2344 138.438 61.1133 137.883 60.8711C137.336 60.6211 136.914 60.2227 136.617 59.6758C136.32 59.1289 136.172 58.4102 136.172 57.5195V45.1914ZM147.211 48.3203V61H143.824V48.3203H147.211ZM143.613 45.0156C143.613 44.5234 143.785 44.1172 144.129 43.7969C144.473 43.4766 144.934 43.3164 145.512 43.3164C146.082 43.3164 146.539 43.4766 146.883 43.7969C147.234 44.1172 147.41 44.5234 147.41 45.0156C147.41 45.5078 147.234 45.9141 146.883 46.2344C146.539 46.5547 146.082 46.7148 145.512 46.7148C144.934 46.7148 144.473 46.5547 144.129 46.2344C143.785 45.9141 143.613 45.5078 143.613 45.0156ZM153.305 51.0273V61H149.93V48.3203H153.094L153.305 51.0273ZM152.812 54.2148H151.898C151.898 53.2773 152.02 52.4336 152.262 51.6836C152.504 50.9258 152.844 50.2812 153.281 49.75C153.719 49.2109 154.238 48.8008 154.84 48.5195C155.449 48.2305 156.129 48.0859 156.879 48.0859C157.473 48.0859 158.016 48.1719 158.508 48.3438C159 48.5156 159.422 48.7891 159.773 49.1641C160.133 49.5391 160.406 50.0352 160.594 50.6523C160.789 51.2695 160.887 52.0234 160.887 52.9141V61H157.488V52.9023C157.488 52.3398 157.41 51.9023 157.254 51.5898C157.098 51.2773 156.867 51.0586 156.562 50.9336C156.266 50.8008 155.898 50.7344 155.461 50.7344C155.008 50.7344 154.613 50.8242 154.277 51.0039C153.949 51.1836 153.676 51.4336 153.457 51.7539C153.246 52.0664 153.086 52.4336 152.977 52.8555C152.867 53.2773 152.812 53.7305 152.812 54.2148ZM169.289 61.2344C168.305 61.2344 167.422 61.0781 166.641 60.7656C165.859 60.4453 165.195 60.0039 164.648 59.4414C164.109 58.8789 163.695 58.2266 163.406 57.4844C163.117 56.7344 162.973 55.9375 162.973 55.0938V54.625C162.973 53.6641 163.109 52.7852 163.383 51.9883C163.656 51.1914 164.047 50.5 164.555 49.9141C165.07 49.3281 165.695 48.8789 166.43 48.5664C167.164 48.2461 167.992 48.0859 168.914 48.0859C169.812 48.0859 170.609 48.2344 171.305 48.5312C172 48.8281 172.582 49.25 173.051 49.7969C173.527 50.3438 173.887 51 174.129 51.7656C174.371 52.5234 174.492 53.3672 174.492 54.2969V55.7031H164.414V53.4531H171.176V53.1953C171.176 52.7266 171.09 52.3086 170.918 51.9414C170.754 51.5664 170.504 51.2695 170.168 51.0508C169.832 50.832 169.402 50.7227 168.879 50.7227C168.434 50.7227 168.051 50.8203 167.73 51.0156C167.41 51.2109 167.148 51.4844 166.945 51.8359C166.75 52.1875 166.602 52.6016 166.5 53.0781C166.406 53.5469 166.359 54.0625 166.359 54.625V55.0938C166.359 55.6016 166.43 56.0703 166.57 56.5C166.719 56.9297 166.926 57.3008 167.191 57.6133C167.465 57.9258 167.793 58.168 168.176 58.3398C168.566 58.5117 169.008 58.5977 169.5 58.5977C170.109 58.5977 170.676 58.4805 171.199 58.2461C171.73 58.0039 172.188 57.6406 172.57 57.1562L174.211 58.9375C173.945 59.3203 173.582 59.6875 173.121 60.0391C172.668 60.3906 172.121 60.6797 171.48 60.9062C170.84 61.125 170.109 61.2344 169.289 61.2344ZM179.977 43V61H176.59V43H179.977Z" fill="#888888"/>
<path d="M99.6797 84.875H106.383L114 108.617L121.617 84.875H128.32L116.719 119H111.281L99.6797 84.875ZM95.6016 84.875H102.539L103.828 111.031V119H95.6016V84.875ZM125.461 84.875H132.422V119H124.172V111.031L125.461 84.875ZM150.492 112.625V102.172C150.492 101.453 150.391 100.836 150.188 100.32C149.984 99.8047 149.664 99.4062 149.227 99.125C148.789 98.8281 148.203 98.6797 147.469 98.6797C146.875 98.6797 146.367 98.7812 145.945 98.9844C145.523 99.1875 145.203 99.4922 144.984 99.8984C144.766 100.305 144.656 100.82 144.656 101.445H136.758C136.758 100.273 137.016 99.1875 137.531 98.1875C138.062 97.1719 138.812 96.2891 139.781 95.5391C140.766 94.7891 141.938 94.2109 143.297 93.8047C144.672 93.3828 146.203 93.1719 147.891 93.1719C149.906 93.1719 151.703 93.5078 153.281 94.1797C154.875 94.8516 156.133 95.8594 157.055 97.2031C157.977 98.5312 158.438 100.203 158.438 102.219V112.602C158.438 114.258 158.531 115.516 158.719 116.375C158.906 117.219 159.172 117.961 159.516 118.602V119H151.594C151.219 118.219 150.938 117.266 150.75 116.141C150.578 115 150.492 113.828 150.492 112.625ZM151.453 103.508L151.5 107.727H148.008C147.273 107.727 146.648 107.828 146.133 108.031C145.633 108.234 145.227 108.516 144.914 108.875C144.617 109.219 144.398 109.609 144.258 110.047C144.133 110.484 144.07 110.945 144.07 111.43C144.07 111.898 144.18 112.32 144.398 112.695C144.633 113.055 144.945 113.336 145.336 113.539C145.727 113.742 146.164 113.844 146.648 113.844C147.523 113.844 148.266 113.68 148.875 113.352C149.5 113.008 149.977 112.594 150.305 112.109C150.633 111.625 150.797 111.172 150.797 110.75L152.531 113.984C152.219 114.609 151.859 115.242 151.453 115.883C151.062 116.523 150.57 117.117 149.977 117.664C149.398 118.195 148.688 118.633 147.844 118.977C147 119.305 145.977 119.469 144.773 119.469C143.211 119.469 141.773 119.148 140.461 118.508C139.164 117.867 138.125 116.977 137.344 115.836C136.562 114.68 136.172 113.352 136.172 111.852C136.172 110.539 136.406 109.367 136.875 108.336C137.359 107.305 138.086 106.43 139.055 105.711C140.023 104.992 141.258 104.445 142.758 104.07C144.258 103.695 146.023 103.508 148.055 103.508H151.453ZM173.531 113.375C174.266 113.375 174.891 113.242 175.406 112.977C175.938 112.695 176.336 112.305 176.602 111.805C176.883 111.289 177.016 110.672 177 109.953H184.43C184.445 111.859 183.977 113.531 183.023 114.969C182.086 116.391 180.805 117.5 179.18 118.297C177.57 119.078 175.75 119.469 173.719 119.469C171.734 119.469 170 119.148 168.516 118.508C167.031 117.852 165.789 116.945 164.789 115.789C163.805 114.617 163.062 113.25 162.562 111.688C162.078 110.125 161.836 108.43 161.836 106.602V106.062C161.836 104.234 162.078 102.539 162.562 100.977C163.062 99.3984 163.805 98.0312 164.789 96.875C165.789 95.7031 167.023 94.7969 168.492 94.1562C169.977 93.5 171.703 93.1719 173.672 93.1719C175.781 93.1719 177.641 93.5703 179.25 94.3672C180.875 95.1641 182.148 96.3203 183.07 97.8359C183.992 99.3516 184.445 101.188 184.43 103.344H177C177.016 102.578 176.898 101.891 176.648 101.281C176.398 100.672 176.008 100.188 175.477 99.8281C174.961 99.4531 174.297 99.2656 173.484 99.2656C172.672 99.2656 172.016 99.4453 171.516 99.8047C171.016 100.164 170.633 100.664 170.367 101.305C170.117 101.93 169.945 102.648 169.852 103.461C169.773 104.273 169.734 105.141 169.734 106.062V106.602C169.734 107.539 169.773 108.422 169.852 109.25C169.945 110.062 170.125 110.781 170.391 111.406C170.656 112.016 171.039 112.5 171.539 112.859C172.039 113.203 172.703 113.375 173.531 113.375ZM195.539 83V119H187.641V83H195.539ZM194.602 105.453L192.75 105.5C192.75 103.719 192.969 102.078 193.406 100.578C193.844 99.0781 194.469 97.7734 195.281 96.6641C196.094 95.5547 197.07 94.6953 198.211 94.0859C199.352 93.4766 200.617 93.1719 202.008 93.1719C203.258 93.1719 204.398 93.3516 205.43 93.7109C206.477 94.0703 207.375 94.6484 208.125 95.4453C208.891 96.2422 209.477 97.2812 209.883 98.5625C210.305 99.8438 210.516 101.406 210.516 103.25V119H202.57V103.203C202.57 102.172 202.422 101.375 202.125 100.812C201.844 100.234 201.438 99.8359 200.906 99.6172C200.375 99.3828 199.727 99.2656 198.961 99.2656C198.039 99.2656 197.289 99.4219 196.711 99.7344C196.133 100.047 195.688 100.484 195.375 101.047C195.078 101.594 194.875 102.242 194.766 102.992C194.656 103.742 194.602 104.562 194.602 105.453ZM223.242 93.6406V119H215.32V93.6406H223.242ZM214.852 87.1016C214.852 85.9766 215.258 85.0547 216.07 84.3359C216.883 83.6172 217.938 83.2578 219.234 83.2578C220.531 83.2578 221.586 83.6172 222.398 84.3359C223.211 85.0547 223.617 85.9766 223.617 87.1016C223.617 88.2266 223.211 89.1484 222.398 89.8672C221.586 90.5859 220.531 90.9453 219.234 90.9453C217.938 90.9453 216.883 90.5859 216.07 89.8672C215.258 89.1484 214.852 88.2266 214.852 87.1016ZM235.875 99.0547V119H227.977V93.6406H235.383L235.875 99.0547ZM234.938 105.453L233.086 105.5C233.086 103.562 233.32 101.836 233.789 100.32C234.258 98.7891 234.922 97.4922 235.781 96.4297C236.641 95.3672 237.664 94.5625 238.852 94.0156C240.055 93.4531 241.391 93.1719 242.859 93.1719C244.031 93.1719 245.102 93.3438 246.07 93.6875C247.055 94.0312 247.898 94.5859 248.602 95.3516C249.32 96.1172 249.867 97.1328 250.242 98.3984C250.633 99.6484 250.828 101.195 250.828 103.039V119H242.883V103.016C242.883 102 242.742 101.227 242.461 100.695C242.18 100.148 241.773 99.7734 241.242 99.5703C240.711 99.3672 240.062 99.2656 239.297 99.2656C238.484 99.2656 237.797 99.4219 237.234 99.7344C236.672 100.047 236.219 100.484 235.875 101.047C235.547 101.594 235.305 102.242 235.148 102.992C235.008 103.742 234.938 104.562 234.938 105.453ZM267.492 119.469C265.43 119.469 263.586 119.148 261.961 118.508C260.336 117.852 258.961 116.953 257.836 115.812C256.727 114.672 255.875 113.359 255.281 111.875C254.703 110.391 254.414 108.82 254.414 107.164V106.273C254.414 104.414 254.672 102.695 255.188 101.117C255.703 99.5234 256.469 98.1328 257.484 96.9453C258.5 95.7578 259.773 94.8359 261.305 94.1797C262.836 93.5078 264.617 93.1719 266.648 93.1719C268.445 93.1719 270.055 93.4609 271.477 94.0391C272.898 94.6172 274.102 95.4453 275.086 96.5234C276.086 97.6016 276.844 98.9062 277.359 100.438C277.891 101.969 278.156 103.688 278.156 105.594V108.805H257.438V103.859H270.445V103.25C270.461 102.406 270.312 101.688 270 101.094C269.703 100.5 269.266 100.047 268.688 99.7344C268.109 99.4219 267.406 99.2656 266.578 99.2656C265.719 99.2656 265.008 99.4531 264.445 99.8281C263.898 100.203 263.469 100.719 263.156 101.375C262.859 102.016 262.648 102.758 262.523 103.602C262.398 104.445 262.336 105.336 262.336 106.273V107.164C262.336 108.102 262.461 108.953 262.711 109.719C262.977 110.484 263.352 111.141 263.836 111.688C264.336 112.219 264.93 112.633 265.617 112.93C266.32 113.227 267.117 113.375 268.008 113.375C269.086 113.375 270.148 113.172 271.195 112.766C272.242 112.359 273.141 111.688 273.891 110.75L277.477 115.016C276.961 115.75 276.227 116.461 275.273 117.148C274.336 117.836 273.211 118.398 271.898 118.836C270.586 119.258 269.117 119.469 267.492 119.469ZM316.242 112.672V119H298.992V112.672H316.242ZM301.922 84.875V119H293.695V84.875H301.922ZM331.617 119.469C329.555 119.469 327.711 119.148 326.086 118.508C324.461 117.852 323.086 116.953 321.961 115.812C320.852 114.672 320 113.359 319.406 111.875C318.828 110.391 318.539 108.82 318.539 107.164V106.273C318.539 104.414 318.797 102.695 319.312 101.117C319.828 99.5234 320.594 98.1328 321.609 96.9453C322.625 95.7578 323.898 94.8359 325.43 94.1797C326.961 93.5078 328.742 93.1719 330.773 93.1719C332.57 93.1719 334.18 93.4609 335.602 94.0391C337.023 94.6172 338.227 95.4453 339.211 96.5234C340.211 97.6016 340.969 98.9062 341.484 100.438C342.016 101.969 342.281 103.688 342.281 105.594V108.805H321.562V103.859H334.57V103.25C334.586 102.406 334.438 101.688 334.125 101.094C333.828 100.5 333.391 100.047 332.812 99.7344C332.234 99.4219 331.531 99.2656 330.703 99.2656C329.844 99.2656 329.133 99.4531 328.57 99.8281C328.023 100.203 327.594 100.719 327.281 101.375C326.984 102.016 326.773 102.758 326.648 103.602C326.523 104.445 326.461 105.336 326.461 106.273V107.164C326.461 108.102 326.586 108.953 326.836 109.719C327.102 110.484 327.477 111.141 327.961 111.688C328.461 112.219 329.055 112.633 329.742 112.93C330.445 113.227 331.242 113.375 332.133 113.375C333.211 113.375 334.273 113.172 335.32 112.766C336.367 112.359 337.266 111.688 338.016 110.75L341.602 115.016C341.086 115.75 340.352 116.461 339.398 117.148C338.461 117.836 337.336 118.398 336.023 118.836C334.711 119.258 333.242 119.469 331.617 119.469ZM358.664 112.625V102.172C358.664 101.453 358.562 100.836 358.359 100.32C358.156 99.8047 357.836 99.4062 357.398 99.125C356.961 98.8281 356.375 98.6797 355.641 98.6797C355.047 98.6797 354.539 98.7812 354.117 98.9844C353.695 99.1875 353.375 99.4922 353.156 99.8984C352.938 100.305 352.828 100.82 352.828 101.445H344.93C344.93 100.273 345.188 99.1875 345.703 98.1875C346.234 97.1719 346.984 96.2891 347.953 95.5391C348.938 94.7891 350.109 94.2109 351.469 93.8047C352.844 93.3828 354.375 93.1719 356.062 93.1719C358.078 93.1719 359.875 93.5078 361.453 94.1797C363.047 94.8516 364.305 95.8594 365.227 97.2031C366.148 98.5312 366.609 100.203 366.609 102.219V112.602C366.609 114.258 366.703 115.516 366.891 116.375C367.078 117.219 367.344 117.961 367.688 118.602V119H359.766C359.391 118.219 359.109 117.266 358.922 116.141C358.75 115 358.664 113.828 358.664 112.625ZM359.625 103.508L359.672 107.727H356.18C355.445 107.727 354.82 107.828 354.305 108.031C353.805 108.234 353.398 108.516 353.086 108.875C352.789 109.219 352.57 109.609 352.43 110.047C352.305 110.484 352.242 110.945 352.242 111.43C352.242 111.898 352.352 112.32 352.57 112.695C352.805 113.055 353.117 113.336 353.508 113.539C353.898 113.742 354.336 113.844 354.82 113.844C355.695 113.844 356.438 113.68 357.047 113.352C357.672 113.008 358.148 112.594 358.477 112.109C358.805 111.625 358.969 111.172 358.969 110.75L360.703 113.984C360.391 114.609 360.031 115.242 359.625 115.883C359.234 116.523 358.742 117.117 358.148 117.664C357.57 118.195 356.859 118.633 356.016 118.977C355.172 119.305 354.148 119.469 352.945 119.469C351.383 119.469 349.945 119.148 348.633 118.508C347.336 117.867 346.297 116.977 345.516 115.836C344.734 114.68 344.344 113.352 344.344 111.852C344.344 110.539 344.578 109.367 345.047 108.336C345.531 107.305 346.258 106.43 347.227 105.711C348.195 104.992 349.43 104.445 350.93 104.07C352.43 103.695 354.195 103.508 356.227 103.508H359.625ZM378.961 99.9219V119H371.062V93.6406H378.445L378.961 99.9219ZM386.461 93.4531L386.32 100.789C386.008 100.758 385.586 100.719 385.055 100.672C384.523 100.625 384.078 100.602 383.719 100.602C382.797 100.602 382 100.711 381.328 100.93C380.672 101.133 380.125 101.445 379.688 101.867C379.266 102.273 378.953 102.789 378.75 103.414C378.562 104.039 378.477 104.766 378.492 105.594L377.062 104.656C377.062 102.953 377.227 101.406 377.555 100.016C377.898 98.6094 378.383 97.3984 379.008 96.3828C379.633 95.3516 380.391 94.5625 381.281 94.0156C382.172 93.4531 383.172 93.1719 384.281 93.1719C384.672 93.1719 385.055 93.1953 385.43 93.2422C385.82 93.2891 386.164 93.3594 386.461 93.4531ZM396.938 99.0547V119H389.039V93.6406H396.445L396.938 99.0547ZM396 105.453L394.148 105.5C394.148 103.562 394.383 101.836 394.852 100.32C395.32 98.7891 395.984 97.4922 396.844 96.4297C397.703 95.3672 398.727 94.5625 399.914 94.0156C401.117 93.4531 402.453 93.1719 403.922 93.1719C405.094 93.1719 406.164 93.3438 407.133 93.6875C408.117 94.0312 408.961 94.5859 409.664 95.3516C410.383 96.1172 410.93 97.1328 411.305 98.3984C411.695 99.6484 411.891 101.195 411.891 103.039V119H403.945V103.016C403.945 102 403.805 101.227 403.523 100.695C403.242 100.148 402.836 99.7734 402.305 99.5703C401.773 99.3672 401.125 99.2656 400.359 99.2656C399.547 99.2656 398.859 99.4219 398.297 99.7344C397.734 100.047 397.281 100.484 396.938 101.047C396.609 101.594 396.367 102.242 396.211 102.992C396.07 103.742 396 104.562 396 105.453ZM424.617 93.6406V119H416.695V93.6406H424.617ZM416.227 87.1016C416.227 85.9766 416.633 85.0547 417.445 84.3359C418.258 83.6172 419.312 83.2578 420.609 83.2578C421.906 83.2578 422.961 83.6172 423.773 84.3359C424.586 85.0547 424.992 85.9766 424.992 87.1016C424.992 88.2266 424.586 89.1484 423.773 89.8672C422.961 90.5859 421.906 90.9453 420.609 90.9453C419.312 90.9453 418.258 90.5859 417.445 89.8672C416.633 89.1484 416.227 88.2266 416.227 87.1016ZM437.25 99.0547V119H429.352V93.6406H436.758L437.25 99.0547ZM436.312 105.453L434.461 105.5C434.461 103.562 434.695 101.836 435.164 100.32C435.633 98.7891 436.297 97.4922 437.156 96.4297C438.016 95.3672 439.039 94.5625 440.227 94.0156C441.43 93.4531 442.766 93.1719 444.234 93.1719C445.406 93.1719 446.477 93.3438 447.445 93.6875C448.43 94.0312 449.273 94.5859 449.977 95.3516C450.695 96.1172 451.242 97.1328 451.617 98.3984C452.008 99.6484 452.203 101.195 452.203 103.039V119H444.258V103.016C444.258 102 444.117 101.227 443.836 100.695C443.555 100.148 443.148 99.7734 442.617 99.5703C442.086 99.3672 441.438 99.2656 440.672 99.2656C439.859 99.2656 439.172 99.4219 438.609 99.7344C438.047 100.047 437.594 100.484 437.25 101.047C436.922 101.594 436.68 102.242 436.523 102.992C436.383 103.742 436.312 104.562 436.312 105.453ZM472.523 93.6406H479.695V118.016C479.695 120.359 479.156 122.344 478.078 123.969C477 125.609 475.492 126.852 473.555 127.695C471.633 128.555 469.383 128.984 466.805 128.984C465.664 128.984 464.5 128.836 463.312 128.539C462.125 128.258 461.016 127.836 459.984 127.273C458.953 126.711 458.086 126.016 457.383 125.188L460.688 120.547C461.328 121.266 462.133 121.875 463.102 122.375C464.07 122.891 465.211 123.148 466.523 123.148C467.664 123.148 468.617 122.945 469.383 122.539C470.164 122.133 470.758 121.539 471.164 120.758C471.57 119.992 471.773 119.062 471.773 117.969V99.6406L472.523 93.6406ZM455.672 106.625V106.133C455.672 104.211 455.906 102.461 456.375 100.883C456.859 99.2891 457.547 97.9219 458.438 96.7812C459.344 95.625 460.438 94.7344 461.719 94.1094C463 93.4844 464.445 93.1719 466.055 93.1719C467.789 93.1719 469.211 93.5078 470.32 94.1797C471.445 94.8359 472.344 95.7578 473.016 96.9453C473.703 98.1328 474.234 99.5234 474.609 101.117C475 102.695 475.328 104.398 475.594 106.227V106.812C475.328 108.531 474.961 110.156 474.492 111.688C474.039 113.203 473.445 114.547 472.711 115.719C471.977 116.891 471.055 117.812 469.945 118.484C468.852 119.141 467.539 119.469 466.008 119.469C464.414 119.469 462.977 119.148 461.695 118.508C460.43 117.867 459.344 116.969 458.438 115.812C457.547 114.656 456.859 113.297 456.375 111.734C455.906 110.172 455.672 108.469 455.672 106.625ZM463.57 106.133V106.625C463.57 107.578 463.656 108.461 463.828 109.273C464.016 110.086 464.297 110.805 464.672 111.43C465.047 112.039 465.508 112.516 466.055 112.859C466.617 113.203 467.273 113.375 468.023 113.375C469.164 113.375 470.086 113.133 470.789 112.648C471.492 112.164 472 111.477 472.312 110.586C472.625 109.695 472.758 108.648 472.711 107.445V105.594C472.742 104.562 472.672 103.656 472.5 102.875C472.328 102.078 472.055 101.414 471.68 100.883C471.32 100.352 470.836 99.9531 470.227 99.6875C469.633 99.4062 468.914 99.2656 468.07 99.2656C467.336 99.2656 466.688 99.4375 466.125 99.7812C465.562 100.125 465.094 100.609 464.719 101.234C464.344 101.844 464.055 102.57 463.852 103.414C463.664 104.242 463.57 105.148 463.57 106.133Z" fill="black"/>
<path d="M1134 0H1348C1356.28 0 1363 6.71573 1363 15V148C1363 156.284 1356.28 163 1348 163H1134V0Z" fill="#FDD100"/>
<path d="M1245.46 69.3333H1251.54V72.375H1245.46V69.3333ZM1245.46 57.1666H1251.54V60.2083H1245.46V57.1666ZM1245.46 75.4166H1251.54V78.4583H1245.46V75.4166Z" fill="white"/>
<path d="M1275.87 81.5V72.375C1266.6 72.3721 1257.62 75.5985 1250.46 81.5H1246.54C1239.38 75.5985 1230.4 72.3721 1221.12 72.375V81.5C1220.32 81.5 1219.54 81.8205 1218.97 82.3909C1218.4 82.9613 1218.08 83.735 1218.08 84.5417V90.625C1218.08 91.4317 1218.4 92.2054 1218.97 92.7758C1219.54 93.3462 1220.32 93.6667 1221.12 93.6667V105.833C1231.29 105.823 1241.08 109.684 1248.5 116.631C1255.93 109.697 1265.71 105.838 1275.87 105.833V93.6667C1276.68 93.6667 1277.46 93.3462 1278.03 92.7758C1278.6 92.2054 1278.92 91.4317 1278.92 90.625V84.5417C1278.92 83.735 1278.6 82.9613 1278.03 82.3909C1277.46 81.8205 1276.68 81.5 1275.87 81.5Z" fill="white"/>
<path d="M1239.37 60.2083C1241.05 60.2083 1242.42 58.8465 1242.42 57.1667C1242.42 55.4868 1241.05 54.125 1239.37 54.125C1237.7 54.125 1236.33 55.4868 1236.33 57.1667C1236.33 58.8465 1237.7 60.2083 1239.37 60.2083Z" fill="white"/>
<path d="M1257.62 60.2083C1259.3 60.2083 1260.67 58.8465 1260.67 57.1667C1260.67 55.4868 1259.3 54.125 1257.62 54.125C1255.95 54.125 1254.58 55.4868 1254.58 57.1667C1254.58 58.8465 1255.95 60.2083 1257.62 60.2083Z" fill="white"/>
<path d="M1260.67 69.3333H1236.33C1233.91 69.3309 1231.59 68.3688 1229.88 66.658C1228.17 64.9473 1227.21 62.6277 1227.21 60.2083V54.125C1227.21 51.7056 1228.17 49.3861 1229.88 47.6753C1231.59 45.9646 1233.91 45.0024 1236.33 45H1260.67C1263.09 45.0024 1265.41 45.9646 1267.12 47.6753C1268.83 49.3861 1269.79 51.7056 1269.79 54.125V60.2083C1269.79 62.6277 1268.83 64.9473 1267.12 66.658C1265.41 68.3688 1263.09 69.3309 1260.67 69.3333ZM1236.33 51.0833C1235.53 51.0833 1234.75 51.4038 1234.18 51.9742C1233.61 52.5446 1233.29 53.3183 1233.29 54.125V60.2083C1233.29 61.015 1233.61 61.7887 1234.18 62.3591C1234.75 62.9295 1235.53 63.25 1236.33 63.25H1260.67C1261.47 63.25 1262.25 62.9295 1262.82 62.3591C1263.39 61.7887 1263.71 61.015 1263.71 60.2083V54.125C1263.71 53.3183 1263.39 52.5446 1262.82 51.9742C1262.25 51.4038 1261.47 51.0833 1260.67 51.0833H1236.33Z" fill="white"/>
</svg>
